<?xml version="1.0" encoding="utf-8"?>
<!-- Generator: Adobe Illustrator 16.0.0, SVG Export Plug-In . SVG Version: 6.00 Build 0)  -->
<!DOCTYPE svg PUBLIC "-//W3C//DTD SVG 1.1//EN" "http://www.w3.org/Graphics/SVG/1.1/DTD/svg11.dtd">
<svg version="1.1" id="Layer_1" xmlns="http://www.w3.org/2000/svg" xmlns:xlink="http://www.w3.org/1999/xlink" x="0px" y="0px"
	 width="52.272px" height="36.412px" viewBox="0 0 52.272 36.412" enable-background="new 0 0 52.272 36.412" xml:space="preserve">
<g id="XMLID_6078_">
	<g id="XMLID_6079_">
		<path id="XMLID_6091_" fill="#77A4B0" d="M1.021,31.124C0.458,31.124,0,30.666,0,30.103s0.458-1.022,1.021-1.022h50.23
			c0.563,0,1.021,0.459,1.021,1.022s-0.459,1.021-1.021,1.021H1.021z"/>
	</g>
	<g id="XMLID_6092_">
		<path id="XMLID_6093_" fill="#77A4B0" d="M3.665,31.124c-0.564,0-1.021-0.458-1.021-1.021V28.78
			c0-12.954,10.539-23.493,23.492-23.493c12.955,0,23.494,10.539,23.494,23.493v1.322c0,0.563-0.459,1.021-1.023,1.021H3.665z
			 M26.136,7.331c-11.826,0-21.449,9.622-21.449,21.449v0.3h42.898v-0.3C47.585,16.953,37.964,7.331,26.136,7.331z"/>
	</g>
	<g id="XMLID_6096_">
		<path id="XMLID_6097_" fill="#77A4B0" d="M9.415,25.837c-0.082,0-0.16-0.01-0.232-0.028c-0.553-0.131-0.892-0.684-0.764-1.231
			c1.957-8.244,9.242-14.002,17.717-14.002c0.564,0,1.021,0.458,1.021,1.021s-0.457,1.022-1.021,1.022
			c-7.523,0-13.99,5.111-15.729,12.431C10.3,25.514,9.892,25.837,9.415,25.837z"/>
	</g>
	<g id="XMLID_6098_">
		<path id="XMLID_6099_" fill="#77A4B0" d="M30.101,7.331c-0.563,0-1.021-0.458-1.021-1.021V4.987c0-1.623-1.32-2.943-2.943-2.943
			s-2.943,1.32-2.943,2.943V6.31c0,0.563-0.459,1.021-1.021,1.021c-0.564,0-1.021-0.458-1.021-1.021V4.987
			c0-2.75,2.236-4.987,4.986-4.987s4.988,2.237,4.988,4.987V6.31C31.124,6.873,30.665,7.331,30.101,7.331z"/>
	</g>
	<g id="XMLID_6100_">
		<path id="XMLID_6101_" fill="#77A4B0" d="M8.952,36.412c-0.271,0-0.529-0.106-0.725-0.3L2.94,30.826
			c-0.398-0.398-0.398-1.047,0-1.445c0.193-0.192,0.449-0.299,0.724-0.299c0.272,0,0.528,0.106,0.722,0.299l4.99,4.989h33.521
			l4.988-4.989c0.193-0.192,0.449-0.299,0.723-0.299s0.529,0.106,0.723,0.299c0.398,0.398,0.398,1.047,0,1.445l-5.287,5.287
			c-0.191,0.189-0.455,0.299-0.725,0.299H8.952z"/>
	</g>
</g>
</svg>
