<?xml version="1.0" encoding="utf-8"?>
<!-- Generator: Adobe Illustrator 16.0.0, SVG Export Plug-In . SVG Version: 6.00 Build 0)  -->
<!DOCTYPE svg PUBLIC "-//W3C//DTD SVG 1.1//EN" "http://www.w3.org/Graphics/SVG/1.1/DTD/svg11.dtd">
<svg version="1.1" id="Layer_1" xmlns="http://www.w3.org/2000/svg" xmlns:xlink="http://www.w3.org/1999/xlink" x="0px" y="0px"
	 width="37.729px" height="52.505px" viewBox="0 0 37.729 52.505" enable-background="new 0 0 37.729 52.505" xml:space="preserve">
<g transform="translate(0,-1010.3622)">
	<path fill="#77A4B0" d="M16.871,1010.363c-0.464,0.003-0.934,0.022-1.403,0.055v0.016c-3.754,0.251-7.594,1.4-10.322,3.796
		c-6.086,5.345-6.86,14.678-1.816,21.007c-0.031,0.088-0.048,0.182-0.049,0.275v1.323c-1.949,0.659-3.285,2.571-3.28,4.735
		c0.005,2.175,1.363,4.085,3.332,4.726c0.521,9.6,7.223,16.57,15.532,16.57s15.012-6.971,15.532-16.57
		c1.954-0.636,3.308-2.522,3.332-4.681c0.024-2.178-1.313-4.11-3.281-4.777v-1.326c0.02-0.021,0.038-0.044,0.055-0.067
		c1.312-1.903,1.858-4.893,1.503-7.744c-0.333-2.667-1.573-5.288-4.063-6.395c-0.228-3.292-2.008-6.55-6.511-9.086
		c-1.896-1.068-4.441-1.688-7.179-1.826C17.796,1010.372,17.336,1010.359,16.871,1010.363z M18.169,1012.048
		c2.543,0.139,4.88,0.727,6.455,1.615c4.136,2.329,5.498,4.923,5.685,7.708l-25.631,12.928c-4.582-5.653-3.904-14.051,1.551-18.842
		c2.344-2.058,5.857-3.159,9.349-3.393C16.45,1012.005,17.321,1012.002,18.169,1012.048z M31.192,1022.762
		c1.88,0.785,2.891,2.783,3.185,5.142c0.3,2.405-0.245,5.053-1.144,6.468l-12.175-6.497L31.192,1022.762z M19.265,1028.778
		l13.543,7.225v9.1c0,9.484-6.239,16.124-13.943,16.124c-7.705,0-13.943-6.64-13.943-16.124v-9.086L19.265,1028.778z
		 M11.482,1035.061c-3.161,0-5.741,2.581-5.741,5.741c0,3.162,2.58,5.742,5.741,5.742s5.741-2.58,5.741-5.742
		C17.224,1037.641,14.644,1035.061,11.482,1035.061z M26.245,1035.061c-3.16,0-5.74,2.581-5.74,5.741c0,3.162,2.58,5.742,5.74,5.742
		c3.162,0,5.742-2.58,5.742-5.742C31.987,1037.641,29.407,1035.061,26.245,1035.061z M11.482,1036.702
		c2.274,0,4.101,1.826,4.101,4.1c0,2.275-1.826,4.102-4.101,4.102s-4.101-1.826-4.101-4.102
		C7.382,1038.528,9.208,1036.702,11.482,1036.702z M26.245,1036.702c1.615,0,2.989,0.927,3.659,2.273
		c-0.259-0.371-0.77-0.463-1.142-0.205c-0.045,0.031-0.086,0.066-0.124,0.106c-0.615,0.615-1.449,0.961-2.319,0.961
		s-1.704-0.346-2.319-0.961c-0.153-0.159-0.365-0.249-0.587-0.25c-0.453-0.001-0.821,0.364-0.822,0.817
		c-0.002,0.223,0.089,0.438,0.249,0.592c0.068,0.069,0.149,0.119,0.222,0.184l-0.702,0.701l1.16,1.16l0.964-0.965
		c0.296,0.118,0.603,0.209,0.916,0.27v0.977h1.641v-0.954c0.33-0.05,0.653-0.13,0.965-0.243l0.916,0.916l1.16-1.16l-0.615-0.615
		c0.109-0.092,0.23-0.167,0.333-0.27c0.212-0.203,0.299-0.506,0.228-0.791c-0.016-0.037-0.022-0.078-0.039-0.115
		c0.016,0.037,0.029,0.076,0.039,0.115c0.197,0.481,0.32,1.003,0.32,1.557c0,2.275-1.826,4.102-4.102,4.102
		c-2.273,0-4.101-1.826-4.101-4.102C22.145,1038.528,23.972,1036.702,26.245,1036.702z M3.28,1038.62v5.879
		c-0.974-0.559-1.637-1.656-1.64-2.931C1.638,1040.288,2.303,1039.182,3.28,1038.62z M14.414,1038.62
		c-0.217,0.006-0.423,0.097-0.573,0.254c-0.615,0.615-1.449,0.961-2.32,0.961c-0.87,0-1.703-0.346-2.319-0.961
		c-0.154-0.16-0.367-0.25-0.589-0.25c-0.453,0-0.82,0.367-0.82,0.82c0,0.223,0.09,0.435,0.25,0.589
		c0.078,0.079,0.173,0.136,0.256,0.208l-0.676,0.677l1.16,1.159l0.947-0.948c0.301,0.118,0.613,0.202,0.933,0.26v0.971h1.641v-0.961
		c0.325-0.053,0.642-0.138,0.948-0.253l0.933,0.932l1.159-1.159l-0.641-0.642c0.098-0.083,0.207-0.15,0.298-0.243
		c0.328-0.313,0.339-0.832,0.026-1.159C14.867,1038.707,14.645,1038.615,14.414,1038.62z M34.447,1038.62
		c0.987,0.569,1.655,1.691,1.641,2.98c-0.015,1.261-0.676,2.342-1.641,2.896V1038.62z M16.743,1051.385
		c-0.455,0-0.771,0.161-1.083,0.329c-0.312,0.171-0.604,0.377-0.868,0.577c-0.527,0.402-0.945,0.798-0.945,0.798
		c-0.314,0.3-0.342,0.793-0.061,1.125c1.26,1.498,3.373,2.092,5.023,2.092c0.826,0,1.793-0.166,2.724-0.5s1.836-0.825,2.438-1.627
		c0.256-0.342,0.207-0.822-0.112-1.105c0,0-0.443-0.396-0.996-0.795c-0.276-0.199-0.581-0.402-0.9-0.57
		c-0.318-0.167-0.631-0.323-1.086-0.323c-0.704,0-1.182,0.36-1.521,0.589c-0.34,0.229-0.556,0.311-0.545,0.311
		s-0.204-0.082-0.545-0.311C17.925,1051.745,17.448,1051.385,16.743,1051.385z M16.743,1053.018v0.003
		c0.065,0,0.277,0.087,0.605,0.308s0.76,0.593,1.461,0.593c0.702,0,1.133-0.372,1.461-0.593s0.54-0.308,0.605-0.308
		c-0.07,0,0.113,0.028,0.324,0.138c0.21,0.11,0.467,0.275,0.704,0.445c0.024,0.019,0.021,0.016,0.045,0.032
		c-0.313,0.219-0.542,0.465-0.971,0.618c-0.741,0.266-1.574,0.404-2.169,0.404c-0.938,0-2.154-0.445-3.047-1.048
		c0.013-0.017,0.01-0.017,0.022-0.02c0.223-0.169,0.463-0.335,0.66-0.442S16.813,1053.018,16.743,1053.018z"/>
</g>
</svg>
