<?xml version="1.0" encoding="utf-8"?>
<!-- Generator: Adobe Illustrator 19.0.0, SVG Export Plug-In . SVG Version: 6.00 Build 0)  -->
<svg version="1.1" id="Layer_1" xmlns="http://www.w3.org/2000/svg" xmlns:xlink="http://www.w3.org/1999/xlink" x="0px" y="0px"
	 viewBox="-24 32.2 35.5 20.8" style="enable-background:new -24 32.2 35.5 20.8;" xml:space="preserve">
<style type="text/css">
	.st0{fill:#9B8578;}
</style>
<g id="XMLID_3260_">
	<path id="XMLID_3261_" class="st0" d="M-18.8,53c-0.3,0-0.4-0.2-0.4-0.4c0-0.2-0.1-1.5,0.8-2.5l0.2-0.3l-5.4-0.6
		c-0.2,0-0.4-0.3-0.4-0.5c0.1-1,0.9-3,3.2-3c0.1,0,0.1,0,0.2,0h1l-4.2-2.6c-0.1-0.1-0.2-0.2-0.2-0.3c0-0.2,0-0.3,0.1-0.4
		c0.4-0.4,1.8-1.7,3.5-1.7c0.4,0,0.7,0.1,1,0.2c0.7,0.3,2.1,0.9,2.5,1.1v0.1l0.1,0l5.1,3l-0.1-0.4c-0.3-1.1-0.5-2.1-0.5-2.5
		c0-0.9,1.7-4.7,2.4-5.5c0.2-0.3,0.7-0.4,1.4-0.5l0.5,0l-0.5-0.3c-0.7-0.4-1.1-1.2-1.2-2.3c0-0.1,0-0.2,0.1-0.3c0.1-0.1,0.4-0.5,6-1
		c0.1,0,0.1,0,0.3,0c0.6,0,2.8,0.2,5.5,2.8c2.7,2.7,7,5.2,8.8,6.2c0.2,0.1,0.3,0.3,0.2,0.6C11.3,41.9,11.2,42,11,42
		c-0.1,0-0.1,0-0.2,0c-0.6-0.3-5.8-3.1-9.1-6.3c-2.4-2.4-4.4-2.6-4.9-2.6c-0.1,0-0.1,0-0.2,0c-1.8,0.1-4.2,0.4-5.1,0.6l-0.2,0l0,0.2
		c0.3,1.5,1.3,1.6,3,1.7l0.2,0c1.1,0.1,2.1,0.1,3,0.9c1.8,1.7,3.4,3.9,3.8,4.6c0.1,0.2,0.1,0.4,0,0.5L-1.5,45
		c-0.1,0.1-0.1,0.1-0.2,0.1l-2.8,0.8c0,0-0.1,0-0.1,0c-0.1,0-0.1,0-0.1,0l-2.5-1.3c-0.1-0.1-0.2-0.2-0.2-0.2c-0.3-0.8-1.1-3.3-0.1-5
		c0-0.1,0.1-0.2,0.3-0.2c1.2-0.2,2-0.5,2.3-1.1c0.2-0.3,0.2-0.6,0.2-0.7v-0.2l-0.2,0c-0.9-0.1-1.9-0.2-2.7-0.2
		c-1.3,0-1.5,0.2-1.6,0.2c-0.7,0.8-2.2,4.4-2.2,5c0,0.6,0.4,2.3,0.8,3.6l0,0.1h0c0.3,1,0.6,1.6,1,1.9c0.6,0.5,2,1.3,2,1.3
		c0.1,0.1,0.2,0.1,0.2,0.2c0,0.1,0,0.2,0,0.3C-7.4,49.9-7.5,50-7.7,50c0,0-0.1,0-0.2-0.1c0,0,0,0,0,0c0,0,0,0-0.2-0.1
		c-0.4-0.2-1.4-0.8-1.9-1.2c-0.4-0.3-0.8-1.1-1.2-2.2l0-0.1l-5.9-3.5c-0.1,0-0.4-0.2-0.8-0.4c-0.6-0.2-1.3-0.6-1.7-0.7
		c-0.2-0.1-0.5-0.1-0.7-0.1c-0.9,0-1.7,0.5-2.3,0.9l-0.2,0.2l6.4,3.9v0.1l0.1,0c1.4,1,3,2.2,3.4,2.3c0.2,0.1,0.7,0.3,1.4,0.6l0,0
		h0.1c1.1,0.5,2.9,1.3,3.3,1.5c0.7,0.3,2.7,0.8,4.1,0.9h0c0.3,0,1.2-0.1,2.2-0.3l0.8-0.1c2.7-0.4,6.4-1,9.1-1c1.4,0,2.5,0.1,3.1,0.4
		c0.2,0.1,0.3,0.4,0.2,0.6C11.4,52,11.2,52,11.1,52h0c-0.1,0-0.1,0-0.2,0c-0.6-0.2-1.4-0.3-2.7-0.3c-2.8,0-6.8,0.6-9.1,1l-1,0.1
		C-3,52.9-3.7,53-4.1,53h-0.1c-1.2-0.1-2.5-0.4-3.3-0.6c-1.1,0.1-3.1,0.2-3.1,0.2L-18.8,53z M-16.9,50.1c-1.1,0.4-1.4,1.5-1.4,1.9
		l0,0.2l7.7-0.4h0.5l0.1-0.3c-0.6-0.2-1.1-0.5-1.8-0.8c-2.3-0.3-3.5-0.4-3.6-0.4L-16.9,50.1L-16.9,50.1z M-15.4,49.4
		c0,0,0.3,0,0.7,0.1l0.7,0.1l-0.5-0.4c-0.7-0.5-1.5-1.1-2-1.5l-0.3-0.2l-1.2-0.7l-1-0.1c-0.6,0-1.2,0-1.5-0.1c-0.1,0-0.1,0-0.2,0
		c-1.5,0-2,1.1-2.3,1.7l-0.1,0.2L-15.4,49.4z M-3.9,37c0,0.4,0.1,1-0.3,1.6c-0.4,0.7-1.3,1.2-2.6,1.5l-0.1,0l0,0.1
		c-0.6,1.4,0,3.4,0.2,3.8l0,0.1l2.2,1.2l2.5-0.7l2.5-3.1l-0.1-0.1c-0.5-0.7-1.9-2.6-3.4-4c-0.2-0.2-0.4-0.3-0.6-0.4l-0.3-0.1
		L-3.9,37z"/>
</g>
</svg>
