<?xml version="1.0" encoding="utf-8"?>
<!-- Generator: Adobe Illustrator 16.0.0, SVG Export Plug-In . SVG Version: 6.00 Build 0)  -->
<!DOCTYPE svg PUBLIC "-//W3C//DTD SVG 1.1//EN" "http://www.w3.org/Graphics/SVG/1.1/DTD/svg11.dtd">
<svg version="1.1" id="Layer_1" xmlns="http://www.w3.org/2000/svg" xmlns:xlink="http://www.w3.org/1999/xlink" x="0px" y="0px"
	 width="58.349px" height="47.871px" viewBox="0 0 58.349 47.871" enable-background="new 0 0 58.349 47.871" xml:space="preserve">
<g id="XMLID_3167_">
	<path fill="#77A4B0" d="M34.999,12.072c3.329,0,6.036-2.708,6.036-6.037S38.327,0,34.999,0s-6.035,2.708-6.035,6.036
		C28.964,9.364,31.671,12.072,34.999,12.072z M34.999,1.484c2.511,0,4.554,2.042,4.554,4.552c0,2.511-2.043,4.553-4.554,4.553
		c-2.51,0-4.552-2.042-4.552-4.553C30.447,3.525,32.489,1.484,34.999,1.484z"/>
	<path fill="#77A4B0" d="M6.771,38.048c3.329,0,6.036-2.708,6.036-6.036s-2.708-6.036-6.036-6.036s-6.036,2.708-6.036,6.036
		S3.441,38.048,6.771,38.048z M6.771,27.458c2.511,0,4.552,2.043,4.552,4.553c0,2.511-2.041,4.554-4.552,4.554
		s-4.553-2.043-4.553-4.554C2.218,29.501,4.26,27.458,6.771,27.458z"/>
	<path fill="#77A4B0" d="M22.974,29.99c0.392-0.119,0.613-0.533,0.495-0.926c-0.257-0.846,0.133-1.748,0.924-2.145l6.059-3.028
		c0.115-0.058,0.213-0.145,0.285-0.252l4.512-6.768c0.041-0.063,0.09-0.126,0.146-0.189c0.026-0.031,0.051-0.064,0.072-0.099
		c0.48-0.776,1.223-1.36,2.091-1.642c2.028-0.661,4.215,0.453,4.874,2.479l4.636,14.341c0.102,0.313,0.392,0.514,0.706,0.514
		c0.075,0,0.152-0.013,0.229-0.037c0.391-0.126,0.604-0.544,0.478-0.934l-4.636-14.341c-0.914-2.806-3.939-4.345-6.745-3.432
		c-1.183,0.386-2.197,1.173-2.861,2.222c-0.083,0.097-0.158,0.198-0.226,0.298l-4.4,6.603l-5.883,2.94
		c-1.44,0.721-2.146,2.361-1.682,3.901C22.167,29.886,22.581,30.108,22.974,29.99z"/>
	<path fill="#77A4B0" d="M35.787,23.352c-0.281-0.04-0.561,0.087-0.717,0.323l-1.693,2.54c-0.175,0.263-0.416,0.475-0.697,0.615
		l-4.59,2.296c-0.367,0.183-0.516,0.629-0.332,0.995c0.183,0.366,0.629,0.515,0.995,0.332l4.589-2.296
		c0.513-0.256,0.951-0.643,1.27-1.119l0.844-1.267l1.658,5.094c0.102,0.313,0.393,0.513,0.705,0.513
		c0.076,0,0.154-0.013,0.229-0.037c0.391-0.127,0.604-0.545,0.476-0.935l-2.131-6.549C36.305,23.587,36.069,23.39,35.787,23.352z"/>
	<path fill="#77A4B0" d="M57.607,43.462H19.961c-0.41,0-0.742,0.332-0.742,0.742c0,0.409,0.333,0.741,0.742,0.741h37.646
		c0.41,0,0.741-0.332,0.741-0.741C58.349,43.794,58.017,43.462,57.607,43.462z"/>
	<path fill="#77A4B0" d="M54.5,40.984h0.02c0.018,0,0.036-0.002,0.055-0.002c0.04-0.002,0.079-0.006,0.12-0.01
		c0.009,0,0.017-0.001,0.024-0.002c0.003,0,0.006-0.001,0.01-0.001l0,0c0.045-0.005,0.091-0.011,0.132-0.017
		c0.015-0.002,0.03-0.004,0.046-0.007c0.039-0.007,0.077-0.013,0.116-0.021c0.008-0.001,0.015-0.003,0.022-0.004
		c0.003-0.001,0.005-0.002,0.008-0.002c0.033-0.007,0.066-0.014,0.1-0.022l0.021-0.005c0.005-0.001,0.01-0.002,0.015-0.004
		c0.016-0.004,0.031-0.008,0.035-0.008c0.035-0.01,0.068-0.02,0.103-0.029c0.019-0.006,0.038-0.012,0.06-0.018l0.079-0.027
		c0.01-0.003,0.017-0.006,0.026-0.01c0.017-0.006,0.034-0.012,0.04-0.014c0.017-0.006,0.033-0.012,0.05-0.018l0.012-0.005
		c0.011-0.004,0.021-0.009,0.031-0.013l0.121-0.053c0.004-0.001,0.008-0.003,0.012-0.005l0.065-0.03
		c0.005-0.002,0.01-0.004,0.014-0.007c0.021-0.01,0.041-0.021,0.061-0.031c0.026-0.014,0.052-0.026,0.071-0.037
		c0.018-0.01,0.035-0.02,0.061-0.034c0.002-0.002,0.015-0.009,0.018-0.011l0.056-0.032c0.021-0.013,0.041-0.025,0.063-0.04
		c0.029-0.019,0.06-0.038,0.08-0.052c0.013-0.01,0.026-0.019,0.049-0.035c0.004-0.003,0.008-0.006,0.013-0.009l0.063-0.046
		c0.004-0.002,0.009-0.006,0.013-0.008c0.021-0.016,0.041-0.033,0.068-0.055l0.036-0.029c0.024-0.02,0.049-0.041,0.072-0.062
		l0.005-0.005c0.019-0.016,0.036-0.031,0.062-0.054c0.023-0.022,0.047-0.044,0.064-0.062c0.015-0.014,0.029-0.029,0.044-0.043
		c0.024-0.024,0.047-0.049,0.07-0.074c0.012-0.012,0.021-0.021,0.026-0.027c0.031-0.033,0.06-0.067,0.089-0.102
		c0.001-0.002,0.001-0.002,0.002-0.002c0.005-0.006,0.011-0.012,0.015-0.018c0.028-0.034,0.056-0.068,0.082-0.104
		c0.009-0.012,0.016-0.021,0.024-0.033c0.022-0.03,0.044-0.061,0.065-0.092c0.007-0.01,0.014-0.02,0.021-0.03
		c0.024-0.035,0.048-0.071,0.07-0.109l0.013-0.02c0.02-0.03,0.038-0.063,0.062-0.106c0.008-0.014,0.015-0.025,0.022-0.039
		c0.017-0.031,0.033-0.064,0.047-0.092l0.025-0.052c0.008-0.017,0.016-0.033,0.023-0.05l0.008-0.018
		c0.005-0.009,0.009-0.018,0.013-0.026l0.007-0.015c0.006-0.014,0.013-0.029,0.019-0.044c0.007-0.017,0.013-0.035,0.023-0.06
		c0.009-0.023,0.018-0.047,0.027-0.07l0.009-0.021c0.006-0.017,0.012-0.034,0.019-0.057c0.012-0.033,0.022-0.066,0.032-0.1
		c0.004-0.012,0.007-0.022,0.008-0.027c0.002-0.006,0.004-0.012,0.006-0.017c0.012-0.04,0.022-0.081,0.031-0.118
		c0.004-0.014,0.008-0.028,0.011-0.043c0.01-0.039,0.018-0.076,0.025-0.116c0.004-0.016,0.007-0.032,0.01-0.049
		c0.007-0.038,0.013-0.075,0.018-0.113c0.003-0.016,0.005-0.032,0.007-0.049c0.005-0.036,0.009-0.071,0.013-0.108
		c0.003-0.021,0.005-0.043,0.006-0.066c0.001-0.008,0.001-0.014,0.002-0.021l0.006-0.088c0.001-0.029,0.002-0.059,0.002-0.088
		c0.001-0.019,0.001-0.038,0.001-0.057c0-0.009,0-0.018,0-0.027c0-0.037-0.002-0.074-0.004-0.111c0-0.002,0-0.006,0-0.007
		l-0.001-0.026c-0.002-0.045-0.006-0.09-0.01-0.135c-0.001-0.004-0.001-0.007-0.001-0.011c-0.001-0.011-0.002-0.022-0.004-0.034
		c-0.004-0.037-0.009-0.074-0.014-0.107l-0.003-0.031c-0.002-0.01-0.003-0.02-0.005-0.029c-0.006-0.033-0.012-0.066-0.018-0.1
		c-0.002-0.015-0.005-0.028-0.008-0.041c-0.001-0.008-0.003-0.014-0.004-0.021c-0.008-0.031-0.014-0.062-0.021-0.092
		c-0.005-0.02-0.01-0.041-0.016-0.063c-0.008-0.028-0.016-0.058-0.026-0.093l-0.016-0.054c-0.005-0.02-0.013-0.04-0.019-0.062
		l-0.008-0.02c-0.01-0.029-0.02-0.059-0.028-0.08c-0.009-0.023-0.018-0.047-0.027-0.068l-0.003-0.008
		c-0.011-0.027-0.021-0.055-0.032-0.081c-0.006-0.013-0.011-0.023-0.016-0.035c-0.001-0.001-0.007-0.014-0.007-0.015l-0.012-0.017
		c-0.014-0.028-0.026-0.058-0.037-0.077l-0.01-0.02c-0.004-0.007-0.008-0.014-0.011-0.02l-0.009-0.018
		c-0.014-0.027-0.029-0.057-0.047-0.09l-0.015-0.025c-0.019-0.033-0.038-0.066-0.058-0.1c-0.002-0.003-0.004-0.007-0.007-0.011
		l-0.011-0.015c-0.002-0.004-0.005-0.01-0.008-0.014c-0.02-0.03-0.039-0.061-0.06-0.09c-0.01-0.014-0.019-0.029-0.03-0.045
		c-0.021-0.029-0.041-0.059-0.064-0.088c-0.012-0.016-0.022-0.031-0.033-0.043c-0.016-0.02-0.031-0.04-0.047-0.059l-0.009-0.012
		c-0.007-0.009-0.015-0.018-0.021-0.025l-0.05-0.057c-0.014-0.018-0.028-0.033-0.043-0.049c-0.021-0.023-0.042-0.047-0.068-0.074
		c-0.015-0.015-0.03-0.03-0.041-0.04c-0.024-0.024-0.049-0.048-0.076-0.073c-0.01-0.01-0.021-0.02-0.039-0.037
		c-0.026-0.023-0.054-0.046-0.082-0.069c-0.012-0.01-0.021-0.019-0.033-0.028c-0.03-0.025-0.063-0.051-0.094-0.074
		c-0.003-0.002-0.006-0.004-0.007-0.005c-0.009-0.008-0.018-0.015-0.027-0.021c-0.034-0.024-0.068-0.05-0.1-0.069
		c-0.006-0.005-0.013-0.012-0.021-0.015c-0.03-0.021-0.062-0.041-0.093-0.06l-0.016-0.012c-0.003-0.002-0.015-0.01-0.019-0.012
		c-0.006-0.004-0.011-0.006-0.016-0.01c-0.033-0.02-0.066-0.039-0.104-0.061c-0.012-0.006-0.022-0.013-0.033-0.018
		c-0.031-0.017-0.063-0.033-0.095-0.049c-0.006-0.002-0.018-0.009-0.023-0.012l-0.021-0.01c-0.032-0.016-0.066-0.031-0.102-0.047
		c-0.018-0.008-0.036-0.016-0.061-0.025l-0.127-0.051c-0.012-0.004-0.021-0.008-0.032-0.012l-0.134-0.043
		c-0.008-0.004-0.015-0.006-0.022-0.008l-0.03-0.008c-0.008-0.003-0.016-0.005-0.023-0.008l-0.085-0.022
		c-0.006-0.002-0.013-0.003-0.019-0.005c-0.014-0.004-0.029-0.007-0.043-0.01c-0.035-0.009-0.069-0.016-0.105-0.023
		c-0.014-0.003-0.027-0.006-0.041-0.008c-0.007-0.002-0.015-0.002-0.021-0.004l-0.021-0.004c-0.026-0.004-0.054-0.009-0.081-0.013
		c-0.016-0.003-0.031-0.005-0.046-0.007c-0.034-0.004-0.067-0.008-0.101-0.012c-0.013-0.002-0.024-0.003-0.035-0.004l-35.765-3.221
		c-0.099-0.01-0.198-0.014-0.297-0.014c-1.11,0-2.14,0.554-2.751,1.482l-5.468,8.293L3.88,39.775
		c-0.194-0.035-0.391-0.053-0.586-0.053c-1.595,0-2.958,1.143-3.241,2.715c-0.155,0.867,0.036,1.742,0.539,2.465
		c0.502,0.723,1.256,1.207,2.123,1.361l8.665,1.557c0.192,0.033,0.388,0.051,0.581,0.051c1.111,0,2.141-0.553,2.753-1.482
		l3.563-5.404h36.126C54.434,40.986,54.467,40.986,54.5,40.984z M17.877,39.502c-0.25,0-0.482,0.125-0.619,0.334l-3.783,5.738
		c-0.338,0.51-0.903,0.814-1.514,0.814c-0.107,0-0.216-0.01-0.321-0.028l-8.663-1.555C2.5,44.72,2.085,44.455,1.809,44.057
		c-0.277-0.397-0.382-0.879-0.296-1.356c0.155-0.865,0.903-1.493,1.78-1.493c0.107,0,0.217,0.01,0.324,0.029l7.006,1.257
		c0.293,0.053,0.587-0.074,0.751-0.32l5.737-8.703c0.366-0.555,1.01-0.867,1.676-0.807l35.743,3.219
		c0.004,0,0.008,0.001,0.011,0.001c0.009,0.001,0.017,0.002,0.025,0.003c0.014,0.002,0.027,0.003,0.045,0.005l0.036,0.005
		c0.006,0.001,0.012,0.002,0.015,0.002l0.07,0.013c0.006,0.001,0.012,0.003,0.018,0.004c0.016,0.003,0.031,0.007,0.046,0.011
		c0.008,0.002,0.015,0.004,0.022,0.004l0.066,0.018c0.011,0.004,0.021,0.007,0.036,0.011l0.204,0.077
		c0.014,0.006,0.028,0.012,0.042,0.02c0.003,0,0.012,0.006,0.014,0.006l0.013,0.007c0.017,0.009,0.034,0.017,0.051,0.026
		c0.004,0.002,0.007,0.004,0.01,0.005c0.003,0.002,0.006,0.003,0.01,0.005c0.019,0.012,0.039,0.022,0.058,0.034
		c0.005,0.003,0.01,0.007,0.012,0.007l0.02,0.014c0.014,0.008,0.027,0.016,0.041,0.025c0.008,0.006,0.016,0.012,0.021,0.016
		c0.017,0.011,0.032,0.021,0.049,0.033l0.012,0.01c0.004,0.004,0.008,0.007,0.012,0.01c0.016,0.012,0.032,0.023,0.048,0.037
		c0.006,0.005,0.012,0.01,0.018,0.014c-0.006-0.004-0.012-0.01-0.013-0.01c0,0,0.001,0,0.001,0.001
		c0.005,0.005,0.01,0.009,0.014,0.013c0.016,0.013,0.03,0.025,0.045,0.038c0.01,0.011,0.02,0.021,0.027,0.026
		c0.014,0.014,0.029,0.027,0.047,0.045l0.018,0.018c0.012,0.014,0.023,0.025,0.034,0.037l0.106,0.127
		c0.014,0.018,0.025,0.035,0.034,0.048l0.015,0.021c0.001,0,0.001,0.001,0.001,0.001c0.013,0.019,0.025,0.037,0.038,0.057
		c0.005,0.008,0.01,0.015,0.014,0.022c0.011,0.018,0.021,0.036,0.031,0.054c0.004,0.006,0.01,0.016,0.014,0.021
		c0.007,0.014,0.014,0.026,0.02,0.04l0.008,0.014c0.005,0.01,0.01,0.02,0.016,0.032l0.021,0.043c0,0.002,0.006,0.015,0.007,0.017
		c0.004,0.009,0.006,0.013,0.01,0.021l0.016,0.041c0.003,0.007,0.012,0.028,0.014,0.034c0.005,0.014,0.01,0.025,0.012,0.031
		l0.028,0.09c0.005,0.016,0.01,0.033,0.015,0.055c0.003,0.012,0.005,0.022,0.009,0.034c0.003,0.014,0.006,0.027,0.009,0.041
		l0.002,0.009c0.002,0.01,0.004,0.02,0.006,0.03c0.004,0.018,0.007,0.036,0.01,0.054l0.001,0.004l0.003,0.018
		c0.002,0.021,0.006,0.043,0.008,0.064c0,0.006,0.001,0.012,0.002,0.017c0,0.007,0.001,0.013,0.002,0.019
		c0.002,0.018,0.004,0.037,0.004,0.056c0,0.014,0.001,0.028,0.002,0.042c0.001,0.018,0.001,0.035,0.001,0.053
		c0,0.006,0.001,0.012,0.001,0.018L56.2,37.705c0,0.008,0,0.014,0,0.02c0,0.018-0.001,0.035-0.001,0.042l-0.004,0.056
		c0,0.008-0.001,0.014-0.002,0.021c0,0.009-0.002,0.017-0.002,0.024c-0.002,0.018-0.004,0.035-0.008,0.062l-0.002,0.021
		c0,0.002-0.001,0.004-0.001,0.006c-0.003,0.021-0.007,0.041-0.011,0.063c-0.002,0.01-0.004,0.019-0.005,0.027
		c0,0.001,0,0.001,0,0.001c-0.004,0.02-0.009,0.038-0.014,0.058c-0.003,0.013-0.005,0.018-0.007,0.031
		c-0.005,0.019-0.01,0.037-0.015,0.057c-0.003,0.008-0.005,0.016-0.008,0.026c-0.001,0.002-0.001,0.003-0.001,0.005
		c-0.006,0.016-0.011,0.031-0.016,0.047c-0.002,0.006-0.007,0.019-0.008,0.023l-0.036,0.092c-0.001,0.005-0.003,0.009-0.005,0.014
		l-0.051,0.109c-0.006,0.012-0.013,0.025-0.02,0.038c-0.001,0.002-0.002,0.004-0.003,0.006l0,0l-0.018,0.031
		c-0.008,0.014-0.015,0.026-0.026,0.044l-0.013,0.021c-0.01,0.016-0.019,0.031-0.03,0.047c-0.001,0.002-0.003,0.004-0.004,0.007
		c-0.006,0.007-0.012,0.015-0.016,0.022c-0.012,0.016-0.023,0.031-0.035,0.047c-0.003,0.004-0.006,0.008-0.009,0.012
		c-0.002,0.004-0.004,0.006-0.007,0.009c-0.01,0.014-0.02,0.028-0.03,0.04c-0.003,0.004-0.007,0.008-0.009,0.012
		c-0.005,0.005-0.01,0.011-0.015,0.016c-0.011,0.013-0.021,0.025-0.036,0.042c-0.002,0.003-0.006,0.007-0.006,0.007
		c-0.008,0.008-0.016,0.016-0.021,0.023c-0.013,0.014-0.024,0.025-0.038,0.039c-0.001,0.001-0.002,0.002-0.003,0.003l-0.021,0.02
		c-0.017,0.017-0.033,0.032-0.046,0.044c-0.001,0.001-0.01,0.008-0.01,0.008c-0.004,0.004-0.008,0.008-0.012,0.01l-0.182,0.143
		c-0.011,0.007-0.021,0.014-0.037,0.023c0,0-0.011,0.007-0.012,0.007l-0.094,0.056c-0.013,0.007-0.023,0.013-0.036,0.019
		c-0.009,0.004-0.017,0.009-0.025,0.014l-0.13,0.06c-0.012,0.004-0.023,0.01-0.035,0.014l-0.02,0.008
		c-0.011,0.003-0.021,0.007-0.031,0.011l-0.06,0.02c-0.009,0.003-0.018,0.005-0.026,0.008c-0.015,0.005-0.029,0.009-0.049,0.015
		c-0.008,0.001-0.016,0.004-0.023,0.006l-0.019,0.004c-0.013,0.003-0.023,0.006-0.036,0.009c-0.007,0.001-0.014,0.003-0.021,0.003
		c-0.003,0.002-0.005,0.002-0.009,0.003c-0.021,0.005-0.044,0.009-0.067,0.013c-0.009,0-0.018,0.002-0.025,0.002
		c-0.021,0.004-0.042,0.007-0.063,0.009h-0.002c-0.01,0.001-0.021,0.002-0.031,0.003c-0.016,0.002-0.034,0.004-0.051,0.004
		c-0.008,0-0.015,0.001-0.021,0.002c-0.004,0-0.009,0-0.01,0h-0.021c-0.015,0.001-0.031,0.002-0.046,0.002H17.877V39.502z"/>
</g>
</svg>
