<?xml version="1.0" encoding="utf-8"?>
<!-- Generator: Adobe Illustrator 19.0.0, SVG Export Plug-In . SVG Version: 6.00 Build 0)  -->
<svg version="1.1" id="Layer_1" xmlns="http://www.w3.org/2000/svg" xmlns:xlink="http://www.w3.org/1999/xlink" x="0px" y="0px"
	 viewBox="-28 28.9 28.1 28.1" style="enable-background:new -28 28.9 28.1 28.1;" xml:space="preserve">
<style type="text/css">
	.st0{fill:#9B8578;}
</style>
<g id="XMLID_3305_">
	<path class="st0" d="M-2.9,34.3L-2.9,34.3L-2.9,34.3C-3,34.1-3,34.1-3.1,34.1c0,0,0,0-0.1-0.1c-1.6-1.9-3.7-3.4-6-4.2l0,0l0,0
		c-0.2-0.1-0.4-0.1-0.5-0.2c0,0-0.1,0-0.1,0c-0.2,0-0.3-0.1-0.5-0.1c-0.1,0-0.2,0-0.2-0.1c-0.1,0-0.3-0.1-0.4-0.1
		c-0.1,0-0.2,0-0.3-0.1c-0.1,0-0.3,0-0.4-0.1c-0.1,0-0.3,0-0.4-0.1c-0.1,0-0.2,0-0.3,0c-0.1,0-0.2,0-0.3,0c-0.1,0-0.1,0-0.2,0
		c0,0,0,0,0,0c-0.1,0-0.2,0-0.3,0c-0.3,0-0.5,0-0.8,0c-1.2,0-2.4,0.2-3.6,0.5l0,0l-0.2,0.1c0,0,0,0-0.1,0c-0.2,0.1-0.4,0.1-0.6,0.2
		c-0.1,0-0.1,0-0.2,0.1c-0.2,0.1-0.4,0.2-0.7,0.3c0,0-0.1,0-0.1,0c-0.2,0.1-0.5,0.2-0.7,0.3c-0.1,0.1-0.2,0.1-0.3,0.2
		c-0.1,0.1-0.2,0.1-0.4,0.2c-0.1,0.1-0.3,0.1-0.4,0.2c-0.1,0-0.2,0.1-0.2,0.1c-0.1,0.1-0.3,0.2-0.4,0.3c0,0-0.1,0.1-0.1,0.1
		c-0.7,0.5-1.4,1-2,1.6c0,0,0,0,0,0c-0.6,0.6-1.2,1.3-1.7,2c0,0,0,0.1-0.1,0.1c-0.1,0.1-0.2,0.3-0.3,0.4c0,0.1-0.1,0.2-0.1,0.2
		c-0.1,0.1-0.1,0.3-0.2,0.4c-0.1,0.1-0.1,0.2-0.2,0.3c-0.1,0.1-0.1,0.2-0.2,0.3c-0.1,0.2-0.2,0.5-0.3,0.7c0,0,0,0.1,0,0.1
		c-0.1,0.2-0.2,0.4-0.3,0.7c0,0,0,0,0,0.1l-0.1,0.2l0,0C-27.7,40-28,41.4-28,43c0,0.2,0,0.5,0,0.7c0,0,0,0,0,0c0,0.1,0,0.1,0,0.2
		c0,0.1,0,0.3,0,0.4c0,0,0,0.1,0,0.1c0,0.1,0,0.2,0,0.3c0,0.1,0,0.2,0,0.3c0,0,0,0.1,0,0.1c0,0,0,0,0,0c0,0.1,0,0.2,0.1,0.3
		c0,0.1,0,0.2,0,0.3c0,0,0,0.1,0,0.1c0,0,0,0,0,0c0,0.1,0,0.2,0.1,0.3c0,0.1,0,0.1,0,0.2c0,0,0,0.1,0,0.1c0,0,0,0,0,0
		c0,0.1,0.1,0.3,0.1,0.4c0,0,0,0.1,0,0.1c0,0,0,0.1,0,0.1v0c0.1,0.4,0.3,0.8,0.5,1.2l0,0.1h0c0.9,2,2.2,3.8,3.9,5.2c0,0,0,0,0.1,0.1
		c0,0,0.1,0.1,0.1,0.1l0.1,0.1l0,0c2.4,1.9,5.4,3,8.7,3C-6.2,57,0.1,50.7,0.1,43C0.1,39.7-1,36.7-2.9,34.3z M-3.3,38.6
		c0,8.3-6.7,15-15,15c-1.3,0-2.6-0.2-3.9-0.5c-1.4-1.1-2.6-2.6-3.4-4.2c1,0.2,2.1,0.4,3.2,0.4c7.9,0,14.3-6.4,14.3-14.3
		c0-1.4-0.2-2.7-0.6-4c1.9,0.8,3.6,2.1,4.9,3.7C-3.4,36-3.3,37.3-3.3,38.6z M-13,29.9C-13,29.9-13,29.9-13,29.9c0.1,0,0.2,0,0.2,0
		c0.3,0,0.6,0.1,0.8,0.1c0,0,0,0,0.1,0c0,0,0,0,0,0c0.3,0,0.6,0.1,0.9,0.2c0,0,0.1,0,0.1,0c0.3,0.1,0.6,0.2,0.9,0.3c0,0,0,0,0,0
		c0.5,1.4,0.8,2.9,0.8,4.4c0,7.4-6,13.3-13.3,13.3c-1.3,0-2.5-0.2-3.7-0.5c0-0.1-0.1-0.2-0.1-0.2c0-0.1,0-0.1-0.1-0.2
		c-0.1-0.1-0.1-0.3-0.1-0.4c0-0.1,0-0.1,0-0.2l0,0c0-0.1-0.1-0.3-0.1-0.4c0-0.1,0-0.2-0.1-0.2c0-0.1-0.1-0.3-0.1-0.4c0,0,0,0,0,0
		c0-0.1,0-0.2-0.1-0.3c0-0.1,0-0.2-0.1-0.3c0,0,0,0,0-0.1c0-0.1,0-0.2,0-0.3c0-0.1,0-0.2,0-0.2c0,0,0-0.1,0-0.1c0-0.1,0-0.3,0-0.4
		c0,0,0-0.1,0-0.1c0,0,0-0.1,0-0.1c0-0.2,0-0.5,0-0.7c0-1.2,0.2-2.4,0.5-3.5c0.8,0.7,1.8,1.1,3,1.1c1.8,0,3.8-0.9,5.3-2.4
		c1.3-1.3,2.1-2.8,2.3-4.4c0.2-1.4-0.1-2.6-0.8-3.6c0.9-0.2,1.8-0.3,2.8-0.3C-13.6,29.9-13.3,29.9-13,29.9z M-26.2,38.3
		c0.1-0.2,0.1-0.3,0.2-0.5c0-0.1,0.1-0.2,0.1-0.3c0.1-0.1,0.1-0.2,0.2-0.4c0.1-0.1,0.1-0.2,0.2-0.3c0-0.1,0.1-0.2,0.1-0.3
		c0.1-0.1,0.1-0.2,0.2-0.4c0,0,0.1-0.1,0.1-0.1c0.4-0.7,0.9-1.3,1.4-1.9c0,0,0,0,0,0c0.1-0.2,0.3-0.3,0.4-0.4c0,0,0,0,0,0
		c0.7-0.7,1.5-1.3,2.3-1.8c0.1,0,0.1-0.1,0.2-0.1c0.1-0.1,0.2-0.1,0.3-0.2c0.1-0.1,0.2-0.1,0.3-0.2c0.1,0,0.2-0.1,0.3-0.1
		c0.1-0.1,0.3-0.1,0.4-0.2c0.1,0,0.1-0.1,0.2-0.1c0.4-0.2,0.9-0.4,1.4-0.5c0.7,0.8,1,1.9,0.8,3.2c-0.2,1.4-0.9,2.7-2.1,3.8
		c-1.3,1.3-3.1,2.1-4.6,2.1c-1,0-1.8-0.3-2.4-0.9c-0.1-0.1-0.1-0.1-0.2-0.2C-26.2,38.4-26.2,38.4-26.2,38.3z M-13.9,56.1
		c-2.2,0-4.4-0.6-6.2-1.6c0.6,0.1,1.2,0.1,1.8,0.1c8.8,0,16-7.2,16-16c0-0.6,0-1.2-0.1-1.8c1,1.9,1.6,4,1.6,6.2
		C-0.8,50.2-6.7,56.1-13.9,56.1z"/>
</g>
</svg>
