<?xml version="1.0" encoding="utf-8"?>
<!-- Generator: Adobe Illustrator 16.0.0, SVG Export Plug-In . SVG Version: 6.00 Build 0)  -->
<!DOCTYPE svg PUBLIC "-//W3C//DTD SVG 1.1//EN" "http://www.w3.org/Graphics/SVG/1.1/DTD/svg11.dtd">
<svg version="1.1" id="Layer_1" xmlns="http://www.w3.org/2000/svg" xmlns:xlink="http://www.w3.org/1999/xlink" x="0px" y="0px"
	 width="44.367px" height="44.368px" viewBox="0 0 44.367 44.368" enable-background="new 0 0 44.367 44.368" xml:space="preserve">
<g id="XMLID_6032_">
	<path fill="#77A4B0" d="M25.643,0c0,0,0.873,5.432,0.926,5.721h-8.77C17.852,5.432,18.725,0,18.725,0H0v44.368h12.166
		c0.043-2.629-0.166-4.079-0.454-5.721h20.935c-0.34,1.913-0.472,3.537-0.454,5.721h12.175V0H25.643z M35.206,21.468H22.899V7.152
		h3.974C28.21,12.655,31.109,17.625,35.206,21.468z M21.467,7.152v14.315H9.161c4.088-3.843,6.996-8.813,8.323-14.315H21.467z
		 M1.432,42.936V1.432h15.625C16.044,17.275,3.292,24.114,3.292,24.114c1.441,2.559,7.389,8.952,7.433,18.821H1.432z M5.292,24.542
		c0.777-0.515,1.52-1.065,2.236-1.642h13.948v14.314H11.441C10.332,31.084,5.292,24.542,5.292,24.542z M22.899,37.215V22.9h13.948
		c0.717,0.576,1.459,1.127,2.236,1.642c0,0-5.258,6.926-6.148,12.673H22.899z M42.936,42.936h-9.293
		c-0.279-9.319,7.433-18.821,7.433-18.821S28.673,18.131,27.311,1.432h15.625V42.936z"/>
</g>
</svg>
