<?xml version="1.0" encoding="utf-8"?>
<!-- Generator: Adobe Illustrator 16.0.0, SVG Export Plug-In . SVG Version: 6.00 Build 0)  -->
<!DOCTYPE svg PUBLIC "-//W3C//DTD SVG 1.1//EN" "http://www.w3.org/Graphics/SVG/1.1/DTD/svg11.dtd">
<svg version="1.1" id="Layer_1" xmlns="http://www.w3.org/2000/svg" xmlns:xlink="http://www.w3.org/1999/xlink" x="0px" y="0px"
	 width="60.201px" height="29px" viewBox="0 0 60.201 29" enable-background="new 0 0 60.201 29" xml:space="preserve">
<g id="XMLID_6011_">
	<g id="XMLID_6012_">
		<path id="XMLID_6013_" fill="#77A4B0" d="M13.583,29c-3.441,0-6.241-2.799-6.241-6.24s2.8-6.24,6.241-6.24
			c3.44,0,6.24,2.799,6.24,6.24S17.023,29,13.583,29z M13.583,17.988c-2.632,0-4.772,2.141-4.772,4.771s2.141,4.771,4.772,4.771
			c2.631,0,4.771-2.141,4.771-4.771S16.214,17.988,13.583,17.988z"/>
	</g>
	<g id="XMLID_6016_">
		<path id="XMLID_6017_" fill="#77A4B0" d="M46.619,29c-3.441,0-6.24-2.799-6.24-6.24s2.799-6.24,6.24-6.24s6.241,2.799,6.241,6.24
			S50.061,29,46.619,29z M46.619,17.988c-2.631,0-4.771,2.141-4.771,4.771s2.141,4.771,4.771,4.771c2.632,0,4.772-2.141,4.772-4.771
			S49.251,17.988,46.619,17.988z"/>
	</g>
	<g id="XMLID_6020_">
		<path id="XMLID_6021_" fill="#77A4B0" d="M53.959,23.494h-1.833c-0.405,0-0.734-0.328-0.734-0.734
			c0-2.632-2.141-4.772-4.772-4.772c-2.631,0-4.771,2.141-4.771,4.772c0,0.406-0.328,0.734-0.734,0.734H19.089
			c-0.405,0-0.734-0.328-0.734-0.734c0-2.632-2.141-4.772-4.771-4.772c-2.632,0-4.772,2.141-4.772,4.772
			c0,0.406-0.328,0.734-0.734,0.734H6.24C2.799,23.492,0,20.691,0,17.252V9.911c0-0.405,0.328-0.734,0.734-0.734h44.049
			c0.041,0,0.081,0.003,0.121,0.011l11.004,1.835c0.055,0.009,0.108,0.024,0.16,0.046c0.814,0.337,1.545,0.825,2.171,1.449
			c0.626,0.625,1.113,1.356,1.451,2.174s0.511,1.68,0.511,2.563C60.201,20.695,57.4,23.494,53.959,23.494z M52.817,22.025h1.142
			c2.633,0,4.773-2.141,4.773-4.771c0-0.689-0.135-1.363-0.397-2.002c-0.265-0.638-0.646-1.208-1.133-1.695
			c-0.47-0.469-1.015-0.838-1.62-1.101l-10.859-1.811H1.469v6.606c0,2.631,2.141,4.771,4.771,4.771l1.145,0.001
			c0.365-3.096,3.006-5.506,6.198-5.506s5.833,2.411,6.197,5.507h20.642c0.365-3.096,3.006-5.507,6.197-5.507
			C49.813,16.519,52.453,18.93,52.817,22.025z"/>
	</g>
	<g id="XMLID_6024_">
		<path id="XMLID_6025_" fill="#77A4B0" d="M44.783,10.646H0.734c-0.341,0-0.637-0.234-0.715-0.565
			c-0.078-0.332,0.081-0.673,0.386-0.825L18.76,0.078C18.862,0.026,18.975,0,19.089,0h14.683c0.172,0,0.338,0.061,0.47,0.17
			l11.013,9.177c0.237,0.199,0.325,0.523,0.22,0.814S45.093,10.646,44.783,10.646z M3.845,9.177h38.911l-9.251-7.708H19.262
			L3.845,9.177z"/>
	</g>
	<g id="XMLID_6028_">
		<path id="XMLID_6029_" fill="#77A4B0" d="M26.431,10.646c-0.405,0-0.734-0.329-0.734-0.734V0.734C25.696,0.328,26.025,0,26.431,0
			s0.734,0.328,0.734,0.734v9.177C27.165,10.316,26.836,10.646,26.431,10.646z"/>
	</g>
	<g id="XMLID_6030_">
		<path id="XMLID_6031_" fill="#77A4B0" d="M32.484,15.234h-3.671c-0.405,0-0.733-0.329-0.733-0.734
			c0-0.406,0.328-0.734,0.733-0.734h3.671c0.406,0,0.734,0.328,0.734,0.734C33.219,14.905,32.891,15.234,32.484,15.234z"/>
	</g>
</g>
</svg>
