<?xml version="1.0" encoding="utf-8"?>
<!-- Generator: Adobe Illustrator 19.0.0, SVG Export Plug-In . SVG Version: 6.00 Build 0)  -->
<svg version="1.1" id="Layer_1" xmlns="http://www.w3.org/2000/svg" xmlns:xlink="http://www.w3.org/1999/xlink" x="0px" y="0px"
	 viewBox="-23 29.7 37.1 26.3" style="enable-background:new -23 29.7 37.1 26.3;" xml:space="preserve">
<style type="text/css">
	.st0{fill:#9B8578;}
</style>
<g id="XMLID_3312_">
	<path class="st0" d="M14.1,36.9c-0.1-0.2-0.2-0.3-0.4-0.3L-2.7,36c0.2-0.5,0.4-1.1,0.4-1.7c0.1-2.5-1.8-4.5-4.3-4.6
		c-1.7-0.1-3.1,0.8-4,2.1l0,0l-11.7,16.5l0,0c-0.4,0.7-0.7,1.5-0.8,2.3c-0.1,2.5,1.8,4.5,4.3,4.6L0.1,56c0.2,0,0.3-0.1,0.4-0.2
		L14,37.4C14.1,37.3,14.2,37.1,14.1,36.9z M-9.8,32.5L-9.8,32.5c0.7-1.1,1.9-1.8,3.2-1.8c1.9,0.1,3.4,1.7,3.3,3.6
		c0,0.6-0.2,1.1-0.4,1.6l-0.2,0.3l-10.2,14.4c-0.1-2.3-2-4.1-4.3-4.2c-0.5,0-0.9,0-1.4,0.2L-9.8,32.5z M-18.7,54.4
		c-1.9-0.1-3.4-1.7-3.3-3.6c0.1-1.9,1.7-3.4,3.6-3.3c1.9,0.1,3.4,1.7,3.3,3.6C-15.1,52.9-16.8,54.4-18.7,54.4z M-0.2,55l-15.7-0.6
		c0.4-0.3,0.8-0.7,1.1-1.1l0,0L-3.3,37c0,0,0,0,0.1-0.1l15.9,0.6L-0.2,55z"/>
	<path class="st0" d="M1.1,49.4c0.1,0.1,0.2,0.1,0.3,0.1c0.2,0,0.3-0.1,0.4-0.2l4.1-5.8C6,43.2,6,42.9,5.7,42.8
		c-0.2-0.2-0.5-0.1-0.7,0.1L1,48.7C0.8,48.9,0.9,49.2,1.1,49.4z"/>
	<path class="st0" d="M-18.5,48.4c-1.4-0.1-2.5,1-2.6,2.4c-0.1,1.4,1,2.5,2.4,2.6c1.4,0.1,2.5-1,2.6-2.4
		C-16,49.6-17.1,48.4-18.5,48.4z M-18.6,52.4c-0.8,0-1.5-0.7-1.5-1.6c0-0.8,0.7-1.5,1.6-1.5c0.8,0,1.5,0.7,1.5,1.6
		C-17.1,51.8-17.8,52.4-18.6,52.4z"/>
	<circle class="st0" cx="-18.5" cy="50.9" r="0.6"/>
</g>
</svg>
