<?xml version="1.0" encoding="utf-8"?>
<!-- Generator: Adobe Illustrator 16.0.0, SVG Export Plug-In . SVG Version: 6.00 Build 0)  -->
<!DOCTYPE svg PUBLIC "-//W3C//DTD SVG 1.1//EN" "http://www.w3.org/Graphics/SVG/1.1/DTD/svg11.dtd">
<svg version="1.1" id="Layer_1" xmlns="http://www.w3.org/2000/svg" xmlns:xlink="http://www.w3.org/1999/xlink" x="0px" y="0px"
	 width="54px" height="45px" viewBox="0 0 54 45" enable-background="new 0 0 54 45" xml:space="preserve">
<g transform="translate(0,-1020.3622)">
	<path fill="#77A4B0" d="M36.689,1020.362c-2.143,0-3.91,1.596-4.223,3.656c-0.809,0.109-1.601,0.381-2.327,0.813
		c-1.949,1.156-3.14,3.288-3.14,5.582v0.9h1.8v1.648h1.801v-1.648h1.8v1.648h1.8v-1.648H36v1.648h1.8v-1.648h0.9h0.9v-0.9
		c0-2.294-1.189-4.426-3.14-5.582c-0.683-0.405-1.423-0.663-2.18-0.784c0.267-1.093,1.228-1.885,2.408-1.885h7.622
		c1.393,0,2.488,1.098,2.488,2.496v17.304H23.394c0.011-0.107,0.003-0.215-0.025-0.319c-0.479-1.838-2.093-3.08-3.905-3.08
		c-0.267,0-0.515,0.101-0.773,0.155c-0.688-1.33-1.894-2.331-3.417-2.331v0.003c-1.464,0-2.725,0.823-3.432,2.015
		c-0.506,0.11-0.974,0.325-1.385,0.633c-0.934-0.96-2.193-1.559-3.565-1.561c-2.562,0-4.651,1.972-5.017,4.485H1.8
		c-0.98,0-1.8,0.818-1.8,1.801v3.6c0,0.981,0.819,1.8,1.8,1.8v7.2c0,3.974,3.228,7.2,7.2,7.2v1.8h1.8v-1.8h32.4v1.8H45v-1.8
		c3.974,0,7.2-3.227,7.2-7.2v-7.2c0.982,0,1.8-0.818,1.8-1.8v-3.6c0-0.982-0.817-1.801-1.8-1.801h-3.6v-17.304
		c0-2.362-1.928-4.296-4.289-4.296H36.689z M33.3,1025.759c0.772,0,1.544,0.209,2.24,0.622c1.123,0.667,1.766,1.843,2.025,3.133
		H33.3h-4.264c0.26-1.29,0.901-2.466,2.025-3.133C31.757,1025.968,32.528,1025.759,33.3,1025.759z M28.8,1034.763v1.8h1.801v-1.8
		H28.8z M32.4,1034.763v1.8h1.8v-1.8H32.4z M36,1034.763v1.8h1.8v-1.8H36z M15.272,1038.19c1,0,1.888,0.688,2.162,1.732
		c0.125,0.481,0.617,0.77,1.099,0.644c0.038-0.011,0.077-0.023,0.114-0.038c0.264-0.108,0.539-0.166,0.815-0.166
		c0.975,0,1.778,0.586,2.103,1.6H3.685c0.332-1.555,1.645-2.686,3.206-2.686c1.03,0.002,1.983,0.506,2.603,1.35
		c0.012,0.019,0.024,0.036,0.038,0.053c0.17,0.468,0.687,0.709,1.153,0.539c0.182-0.066,0.336-0.188,0.443-0.349
		c0.313-0.447,0.812-0.724,1.356-0.76c0.421-0.014,0.775-0.317,0.854-0.731C13.73,1038.663,14.443,1038.19,15.272,1038.19z
		 M28.8,1038.362v1.8h1.801v-1.8H28.8z M32.4,1038.362v1.8h1.8v-1.8H32.4z M36,1038.362v1.8h1.8v-1.8H36z M1.8,1043.763h50.4v3.6
		H1.8V1043.763z M3.601,1049.162h46.8v7.2c0,3.008-2.393,5.4-5.4,5.4H10.8H9c-3.007,0-5.399-2.393-5.399-5.4V1049.162z"/>
</g>
</svg>
