<?xml version="1.0" encoding="utf-8"?>
<!-- Generator: Adobe Illustrator 19.0.0, SVG Export Plug-In . SVG Version: 6.00 Build 0)  -->
<svg version="1.1" id="Layer_1" xmlns="http://www.w3.org/2000/svg" xmlns:xlink="http://www.w3.org/1999/xlink" x="0px" y="0px"
	 viewBox="-27 24.6 30.6 37.4" style="enable-background:new -27 24.6 30.6 37.4;" xml:space="preserve">
<style type="text/css">
	.st0{fill:#9B8578;}
</style>
<g id="XMLID_3286_">
	<g id="XMLID_3287_">
		<path id="XMLID_3288_" class="st0" d="M-11.2,33.7c-2.5,0-4.6-2-4.6-4.6c0-2.5,2-4.6,4.6-4.6c2.5,0,4.6,2,4.6,4.6
			C-6.7,31.7-8.7,33.7-11.2,33.7z M-11.2,25.4c-2.1,0-3.7,1.7-3.7,3.7c0,2,1.7,3.7,3.7,3.7c2.1,0,3.8-1.7,3.8-3.7
			S-9.1,25.4-11.2,25.4z"/>
	</g>
	<g id="XMLID_3291_">
		<path id="XMLID_3292_" class="st0" d="M-9.7,62c-0.5,0-0.9-0.2-1.4-0.4c-2.4-1.7-6.9-2.4-10.3-2.4h-0.8c-1.3,0-2.4-0.8-2.8-2
			c-0.4-1.2,0.1-2.5,1.2-3.2c0,0,0.2-0.1,0.2-0.1l6.7-3.5v-9.5c0-3.1,2.5-5.6,5.6-5.6c3.2,0,5.7,2.5,5.7,5.6v10.3l5.2,2.7
			c0,0,0.2,0.1,0.2,0.1c1.1,0.7,1.6,2,1.2,3.2c-0.4,1.2-1.5,2-2.7,2h-0.9c-0.7,0-2.5,0-4.7,0.4l-0.1,0l0,0.1c0,0.5-0.2,0.9-0.4,1.3
			C-8.2,61.7-8.9,62-9.7,62z M-21.4,58.4c1.7,0,7.6,0.2,10.8,2.5c0.2,0.2,0.5,0.3,0.9,0.3c0.5,0,1-0.2,1.2-0.6
			c0.2-0.3,0.3-0.7,0.3-1.1c-0.1-0.4-0.3-0.8-0.6-1c-1.9-1.4-4.7-2.3-8.1-2.8c-0.2,0-0.3-0.2-0.4-0.3c0-0.2,0.1-0.4,0.2-0.4l2.4-1.3
			c0.1,0,0.1-0.1,0.2-0.2c0,0,0.1-0.1,0.2-0.1h4.5c0.1,0,0.2,0,0.2,0.1c0.1,0.1,0.1,0.1,0.2,0.1l2.4,1.2c0.2,0.1,0.2,0.3,0.2,0.4
			c0,0.2-0.2,0.3-0.3,0.3c-1.1,0.1-2.2,0.4-3.2,0.6l-0.5,0.1l0.4,0.2c0.8,0.4,1.4,0.8,2,1.1c0.3,0.2,0.6,0.5,0.7,0.9l0.1,0.1l0.1,0
			c2.1-0.3,3.9-0.4,4.7-0.4h0.8c1,0,1.7-0.6,2-1.4c0.3-0.9-0.1-1.8-0.9-2.3l-5.6-2.9c-0.1-0.1-0.2-0.2-0.2-0.4V40.9
			c0-2.6-2.1-4.8-4.8-4.8c-2.7,0-4.9,2.1-4.9,4.8v9.8c0,0.2-0.1,0.3-0.2,0.4l-7.1,3.7c-0.8,0.5-1.1,1.4-0.8,2.3
			c0.3,0.8,1,1.4,1.9,1.4c0.1,0,0.2,0,0.3,0C-21.8,58.4-21.4,58.4-21.4,58.4z M-14.3,54.4l-1.2,0.7l0.5,0.1c1.1,0.2,2.1,0.5,3,0.8
			l0.1,0l0.1,0c0.9-0.3,2-0.6,3-0.8l0.5-0.1l-1.5-0.7l-4.3,0L-14.3,54.4z"/>
	</g>
	<g id="XMLID_3296_">
		<path id="XMLID_3297_" class="st0" d="M1.3,54.8c-0.5,0-0.9-0.1-1.3-0.4c-2.3-1.5-4.4-3.7-6.3-6.3C-6.4,48-6.4,48-6.4,47.9v-7
			c0-0.3,0-0.5-0.1-0.9c0-0.2,0.1-0.4,0.3-0.5c0,0,0.1,0,0.1,0c0.2,0,0.3,0.1,0.4,0.2c1.6,3.4,4.3,8.1,8.3,10.8
			c0.5,0.3,0.9,0.9,1,1.5c0.1,0.6,0,1.2-0.4,1.8C2.8,54.4,2.1,54.8,1.3,54.8z M-5.6,42.7v5.1l0,0c1.8,2.5,3.8,4.5,6,6
			C0.7,53.9,1,54,1.3,54c0.5,0,1-0.3,1.3-0.7c0.2-0.3,0.3-0.7,0.2-1.1c-0.1-0.4-0.3-0.7-0.6-1c-3.4-2.3-5.9-6-7.4-8.7L-5.6,42.7z"/>
	</g>
	<g id="XMLID_3300_">
		<path id="XMLID_3301_" class="st0" d="M-24.7,54.7c-0.8,0-1.6-0.4-2-1.2c-0.7-1.1-0.3-2.5,0.8-3.2c5-2.9,8.3-9,9.2-10.7
			c0.1-0.1,0.2-0.2,0.4-0.2c0,0,0.1,0,0.1,0c0.2,0.1,0.3,0.3,0.3,0.5c-0.1,0.3-0.1,0.7-0.1,1.1v6.3c0,0.1,0,0.2-0.1,0.2
			c-2.3,3-4.8,5.3-7.4,6.9C-23.8,54.5-24.2,54.7-24.7,54.7z M-17.2,42.2c-1.4,2.3-4.3,6.5-8.2,8.8c-0.7,0.4-0.9,1.3-0.5,2.1
			c0.3,0.5,0.8,0.7,1.3,0.7c0.3,0,0.5-0.1,0.8-0.2c2.5-1.4,4.8-3.6,7-6.4l0,0v-5.5L-17.2,42.2z"/>
	</g>
</g>
</svg>
