<?xml version="1.0" encoding="utf-8"?>
<!-- Generator: Adobe Illustrator 16.0.0, SVG Export Plug-In . SVG Version: 6.00 Build 0)  -->
<!DOCTYPE svg PUBLIC "-//W3C//DTD SVG 1.1//EN" "http://www.w3.org/Graphics/SVG/1.1/DTD/svg11.dtd">
<svg version="1.1" id="Layer_1" xmlns="http://www.w3.org/2000/svg" xmlns:xlink="http://www.w3.org/1999/xlink" x="0px" y="0px"
	 width="49.648px" height="54.909px" viewBox="0 0 49.648 54.909" enable-background="new 0 0 49.648 54.909" xml:space="preserve">
<g id="XMLID_3200_">
	<g transform="translate(0,-1016.3622)">
		<g id="XMLID_3217_">
			<path id="XMLID_3218_" fill="#77A4B0" d="M4.075,1071.271c-0.333,0-0.666-0.023-0.994-0.07c-0.751-0.107-1.358-0.318-1.858-0.645
				c-0.35-0.229-0.445-0.583-0.503-0.794c-0.004-0.013-0.007-0.026-0.01-0.039c-0.033-0.029-0.063-0.061-0.09-0.093l0,0
				c-0.007-0.008-0.018-0.022-0.03-0.039c-0.346-0.322-0.554-0.783-0.561-1.257c-0.034-0.118-0.039-0.245-0.012-0.368
				c0.076-0.351,0.261-0.671,0.523-0.914c0.016-0.048,0.03-0.1,0.046-0.15c0.11-0.369,0.247-0.828,0.609-1.173
				c0.625-0.596,1.322-0.955,1.922-1.228c0.391-0.178,0.787-0.342,1.166-0.499c0.744-0.308,1.447-0.598,1.782-0.872
				c8.078-6.618,16.658-18.66,24.956-30.306c2.668-3.745,5.188-7.283,7.708-10.671c0.481-0.648,0.875-1.978,1.164-3.064l0.094-0.355
				c0.158-0.604,0.321-1.229,0.558-1.853c0.056-0.172,0.172-0.32,0.332-0.415c0.228-0.136,0.512-0.139,0.743-0.011
				c0.034,0.019,0.07,0.033,0.106,0.042c0.04,0.009,0.078,0.022,0.116,0.038c4.483,1.862,7.463,6.106,7.59,10.812
				c0.001,0.046-0.002,0.093-0.01,0.139c-0.021,0.131,0.01,0.266,0.084,0.37c0.137,0.189,0.176,0.432,0.108,0.655l-0.104,0.327
				c-0.1,0.304-0.193,0.591-0.233,0.885c-0.919,6.851-5.797,10.66-9.024,13.18c-0.858,0.67-1.6,1.25-2.146,1.78
				c-1.205,1.173-2.251,2.155-3.254,3.096c-2.571,2.412-4.791,4.495-8.656,8.806c-1.229,1.371-1.12,2.014-1.023,2.58
				c0.041,0.238,0.144,0.503,0.262,0.809c0.233,0.603,0.523,1.352,0.484,2.329c-0.069,1.704-0.63,3.108-1.622,4.063
				c-1.129,1.086-2.87,1.479-4.542,1.023c-1.359-0.37-2.639-0.275-4.718,0.348c-1.479,0.444-3.271,1.12-5.54,1.975
				c-0.942,0.355-1.966,0.742-3.086,1.156C5.69,1071.132,4.885,1071.271,4.075,1071.271z M2.169,1069.374
				c0.293,0.162,0.671,0.275,1.124,0.342c0.874,0.121,1.822,0.029,2.601-0.258c1.116-0.412,2.137-0.797,3.076-1.15
				c2.296-0.866,4.109-1.55,5.638-2.008c2.377-0.713,3.88-0.811,5.544-0.359c1.164,0.316,2.356,0.066,3.106-0.656
				c0.896-0.861,1.128-2.131,1.165-3.044c0.026-0.665-0.174-1.181-0.385-1.726c-0.136-0.35-0.275-0.712-0.342-1.1
				c-0.196-1.154-0.036-2.248,1.385-3.834c3.909-4.357,6.15-6.461,8.747-8.897c0.996-0.936,2.037-1.911,3.234-3.077
				c0.604-0.588,1.376-1.19,2.269-1.887c3.217-2.512,7.623-5.953,8.461-12.198c0.058-0.43,0.184-0.813,0.294-1.151
				c-0.142-0.325-0.196-0.688-0.154-1.044c-0.129-3.934-2.548-7.495-6.219-9.21c-0.1,0.332-0.188,0.668-0.273,0.998l-0.096,0.361
				c-0.361,1.355-0.781,2.727-1.409,3.573c-2.512,3.376-5.027,6.907-7.691,10.646c-8.354,11.726-16.993,23.852-25.226,30.596
				c-0.508,0.416-1.273,0.732-2.161,1.099c-0.363,0.149-0.742,0.307-1.117,0.478c-0.485,0.221-1.044,0.506-1.508,0.948
				c-0.074,0.07-0.148,0.317-0.208,0.517c-0.044,0.149-0.09,0.301-0.146,0.444c-0.048,0.124-0.143,0.243-0.256,0.333
				c0.002,0.033,0.001,0.068-0.002,0.102c-0.005,0.066-0.026,0.144-0.058,0.221c0.016,0.025,0.036,0.051,0.059,0.07
				c0.01,0.007,0.019,0.015,0.028,0.023c0.102,0.061,0.188,0.146,0.251,0.248c0.168,0.233,0.226,0.443,0.267,0.596
				C2.168,1069.37,2.168,1069.372,2.169,1069.374z M2.196,1069.47L2.196,1069.47L2.196,1069.47z"/>
		</g>
	</g>
	<g id="XMLID_3216_">
		<path id="XMLID_3222_" fill="#77A4B0" d="M31.19,27.2c-0.202,0-0.396-0.082-0.538-0.228c-0.015-0.015-1.617-1.623-4.274-2.252
			c-0.243-0.058-0.441-0.233-0.529-0.467s-0.054-0.496,0.092-0.7l7.836-10.952c0.177-0.246,0.485-0.361,0.777-0.294
			c0.399,0.091,3.932,0.952,5.021,3.047c0.13,0.251,0.108,0.554-0.057,0.783L31.8,26.887c-0.13,0.18-0.332,0.294-0.554,0.311
			C31.228,27.2,31.209,27.2,31.19,27.2z M27.776,23.565c1.509,0.519,2.629,1.264,3.284,1.779l6.936-9.659
			c-0.745-0.879-2.353-1.505-3.302-1.788L27.776,23.565z"/>
	</g>
</g>
</svg>
