<?xml version="1.0" encoding="utf-8"?>
<!-- Generator: Adobe Illustrator 16.0.0, SVG Export Plug-In . SVG Version: 6.00 Build 0)  -->
<!DOCTYPE svg PUBLIC "-//W3C//DTD SVG 1.1//EN" "http://www.w3.org/Graphics/SVG/1.1/DTD/svg11.dtd">
<svg version="1.1" id="Layer_1" xmlns="http://www.w3.org/2000/svg" xmlns:xlink="http://www.w3.org/1999/xlink" x="0px" y="0px"
	 width="41.758px" height="57.262px" viewBox="0 0 41.758 57.262" enable-background="new 0 0 41.758 57.262" xml:space="preserve">
<g id="XMLID_6048_">
	<path id="XMLID_6054_" fill="#77A4B0" d="M4.662,57.262C2.092,57.262,0,55.17,0,52.599V19.411c0-2.57,2.092-4.662,4.662-4.662
		h0.873V1.896C5.535,0.851,6.385,0,7.43,0h3.69c1.045,0,1.896,0.851,1.896,1.896v12.854h0.872c2.564,0,4.65,2.092,4.65,4.662v33.188
		c0,2.571-2.092,4.663-4.662,4.663H4.662z M1.956,52.588c0,1.499,1.219,2.718,2.718,2.718h9.214c1.499,0,2.718-1.219,2.718-2.718
		v-15.1L1.956,44.003V52.588z M1.956,41.88l14.649-6.515v-10.78L1.956,31.1V41.88z M4.674,16.694c-1.499,0-2.718,1.219-2.718,2.717
		v9.565l14.66-6.52v-3.046c0-1.498-1.219-2.717-2.718-2.717h-2.817V5.636h-3.59v11.059H4.674z M11.069,3.69V1.946H7.48V3.69H11.069z
		"/>
	<path id="XMLID_6060_" fill="#77A4B0" d="M4.662,56.762c-2.295,0-4.162-1.867-4.162-4.162V19.412c0-2.295,1.867-4.163,4.162-4.163
		h1.373V1.896C6.035,1.126,6.661,0.5,7.43,0.5h3.689c0.771,0,1.396,0.626,1.396,1.396v13.353h1.372c2.288,0,4.15,1.868,4.15,4.163
		V52.6c0,2.295-1.867,4.162-4.162,4.162H4.662z M1.456,43.678v8.91c0,1.774,1.443,3.218,3.218,3.218h9.214
		c1.774,0,3.218-1.443,3.218-3.218V36.719L1.456,43.678z M1.456,30.774v11.874l15.649-6.958V23.816L1.456,30.774z M4.674,16.193
		c-1.774,0-3.218,1.443-3.218,3.219v10.334l15.295-6.803h0.354l0.011-0.449v-3.082c0-1.775-1.442-3.219-3.218-3.219h-2.317V5.136
		h-4.59v11.058H4.674z M6.98,4.19h4.589V1.446H6.98V4.19z"/>
	<path id="XMLID_6066_" fill="#77A4B0" d="M27.281,57.25v-1.944h3.69V44.285c-2.615-0.261-4.964-1.515-6.615-3.534
		c-1.871-2.267-2.613-5.234-2.036-8.142l1.358-6.801h16.53l1.357,6.801c0.578,2.901-0.168,5.869-2.047,8.142
		c-1.661,2.021-4.009,3.274-6.614,3.534v11.021h3.689v1.944H27.281z M24.19,33.288c-0.365,2.225,0.247,4.494,1.684,6.23
		c1.499,1.833,3.714,2.884,6.081,2.884s4.583-1.052,6.08-2.885c1.422-1.729,2.03-3.998,1.674-6.229H24.19z M39.342,31.343
		l-0.723-3.59h-13.34l-0.722,3.59H39.342z"/>
	<path id="XMLID_6070_" fill="#77A4B0" d="M27.781,56.75v-0.944h3.69V43.832l-0.407-0.039c-2.501-0.239-4.746-1.432-6.322-3.358
		c-1.776-2.153-2.479-4.969-1.932-7.728l1.278-6.398h15.71l1.277,6.398c0.549,2.754-0.159,5.569-1.942,7.726
		c-1.585,1.929-3.83,3.122-6.321,3.36l-0.407,0.039v11.974h3.689v0.944H27.781z M23.704,33.162
		c-0.404,2.384,0.246,4.815,1.785,6.675c1.591,1.947,3.948,3.065,6.466,3.065s4.875-1.118,6.468-3.068
		c1.521-1.85,2.167-4.281,1.772-6.669l-0.063-0.377H23.768L23.704,33.162z M23.947,31.843h16.005l-0.924-4.59H24.87L23.947,31.843z"
		/>
	
		<rect id="XMLID_6074_" x="28.195" y="36.871" transform="matrix(-0.7073 0.7069 -0.7069 -0.7073 77.2036 43.7203)" fill="#77A4B0" width="2.71" height="1.945"/>
	
		<rect id="XMLID_6075_" x="28.695" y="37.372" transform="matrix(-0.7071 0.7071 -0.7071 -0.7071 77.2054 43.7089)" fill="#77A4B0" width="1.711" height="0.945"/>
	
		<rect id="XMLID_6076_" x="32.817" y="35.026" transform="matrix(-0.7071 0.7071 -0.7071 -0.7071 83.7898 37.2902)" fill="#77A4B0" width="2.71" height="1.945"/>
	
		<rect id="XMLID_6077_" x="33.316" y="35.526" transform="matrix(-0.7071 0.7071 -0.7071 -0.7071 83.7894 37.2914)" fill="#77A4B0" width="1.711" height="0.945"/>
</g>
</svg>
