<?xml version="1.0" encoding="utf-8"?>
<!-- Generator: Adobe Illustrator 16.0.0, SVG Export Plug-In . SVG Version: 6.00 Build 0)  -->
<!DOCTYPE svg PUBLIC "-//W3C//DTD SVG 1.1//EN" "http://www.w3.org/Graphics/SVG/1.1/DTD/svg11.dtd">
<svg version="1.1" id="Layer_1" xmlns="http://www.w3.org/2000/svg" xmlns:xlink="http://www.w3.org/1999/xlink" x="0px" y="0px"
	 width="47px" height="46px" viewBox="0 0 47 46" enable-background="new 0 0 47 46" xml:space="preserve">
<g id="XMLID_6033_">
	<g id="XMLID_6042_">
		<g id="XMLID_6043_">
			<rect y="21.5" fill="#77A4B0" width="2" height="24.1"/>
			<polygon fill="#77A4B0" points="17.601,46 13.5,37.5 1,37.5 1,35.5 14.7,35.5 19.4,45.1 			"/>
			<rect x="1" y="31.4" fill="#77A4B0" width="16.2" height="2"/>
		</g>
		<g id="XMLID_6044_">
			<rect x="45" y="21.5" fill="#77A4B0" width="2" height="24.1"/>
			<polygon fill="#77A4B0" points="29.4,46 27.601,45.1 32.3,35.5 46,35.5 46,37.5 33.5,37.5 			"/>
			<rect x="29.8" y="31.4" fill="#77A4B0" width="16.2" height="2"/>
		</g>
	</g>
	<rect x="22.5" y="8.6" fill="#77A4B0" width="2" height="35.601"/>
	<rect x="11.601" y="23.4" fill="#77A4B0" width="23.8" height="2"/>
	<path fill="#77A4B0" d="M45.8,13.1h-2.199L43.3,12.7C41.9,10.7,39.5,9.6,36.8,9.6c-2.3,0-4.399,0.9-5.899,2.4l-0.7,0.7L29.5,12
		c-1.5-1.5-3.6-2.4-5.899-2.4c-2.301,0-4.4,0.9-5.9,2.4L17,12.7L16.3,12c-1.5-1.5-3.6-2.4-5.899-2.4C7.7,9.6,5.3,10.8,3.9,12.7
		l-0.3,0.399H1.2L1.4,11.9C2.601,5.1,12.101,0,23.5,0c11.4,0,20.9,5.1,22.101,12L45.8,13.1z M10.3,7.6C12.8,7.6,15.101,8.4,16.9,9.9
		C18.7,8.4,21,7.6,23.5,7.6S28.3,8.4,30.101,9.9C31.9,8.4,34.2,7.6,36.7,7.6c2,0,3.8,0.5,5.4,1.4c-3-4.1-10.4-7-18.601-7
		S7.9,4.9,4.9,9C6.4,8.1,8.3,7.6,10.3,7.6z"/>
</g>
</svg>
