<?xml version="1.0" encoding="utf-8"?>
<!-- Generator: Adobe Illustrator 16.0.0, SVG Export Plug-In . SVG Version: 6.00 Build 0)  -->
<!DOCTYPE svg PUBLIC "-//W3C//DTD SVG 1.1//EN" "http://www.w3.org/Graphics/SVG/1.1/DTD/svg11.dtd">
<svg version="1.1" id="Layer_1" xmlns="http://www.w3.org/2000/svg" xmlns:xlink="http://www.w3.org/1999/xlink" x="0px" y="0px"
	 width="62.925px" height="40.768px" viewBox="0 0 62.925 40.768" enable-background="new 0 0 62.925 40.768" xml:space="preserve">
<g id="XMLID_3168_">
	<path fill="#77A4B0" d="M33.493,31.51c0.154,0.154,0.355,0.231,0.558,0.231c0.201,0,0.401-0.075,0.555-0.229
		c0.308-0.307,0.31-0.805,0.003-1.111l-6.857-6.897c0.14-4.438,3.203-8.314,7.546-9.491c0.315-0.084,0.546-0.357,0.576-0.684
		c0.032-0.326-0.142-0.637-0.436-0.782c-2.019-0.99-3.272-2.973-3.272-5.177c0-3.197,2.621-5.798,5.843-5.798
		c3.22,0,5.841,2.601,5.841,5.798c0,2.203-1.253,4.187-3.271,5.177c-0.294,0.144-0.468,0.456-0.436,0.782
		c0.031,0.325,0.262,0.598,0.576,0.684c4.446,1.205,7.552,5.239,7.552,9.811c0,0.436,0.352,0.787,0.786,0.787
		c0.436,0,0.787-0.352,0.787-0.787c0-4.72-2.863-8.943-7.136-10.778c1.705-1.381,2.716-3.438,2.716-5.674
		C45.423,3.306,42.096,0,38.008,0c-4.089,0-7.416,3.306-7.416,7.371c0,2.237,1.011,4.295,2.716,5.674
		c-4.272,1.835-7.135,6.059-7.135,10.778c0,0.209,0.082,0.407,0.229,0.555L33.493,31.51z"/>
	<path fill="#77A4B0" d="M55.507,26.03c-2.26,0-4.338,1.01-5.728,2.714c-1.024-2.297-2.821-4.145-5.177-5.294
		c-1.766-0.861-4.011-0.627-4.106-0.616c-0.398,0.044-0.7,0.381-0.7,0.782v13.296H1.587c0.419-11.788,10.25-11.968,10.676-11.969
		h11.736c0.435,0,0.786-0.351,0.786-0.786s-0.352-0.787-0.786-0.787H12.263C12.141,23.37,0,23.534,0,37.699
		c0,0.435,0.352,0.787,0.786,0.787h39.795c0.436,0,0.787-0.353,0.787-0.787V24.368c0.719,0.007,1.748,0.107,2.543,0.495
		c2.455,1.198,4.196,3.274,4.906,5.849c0.086,0.314,0.357,0.543,0.682,0.574c0.338,0.027,0.635-0.142,0.78-0.433
		c0.997-2.005,3-3.251,5.226-3.251c3.224,0,5.846,2.6,5.846,5.797c0,3.195-2.622,5.795-5.846,5.795
		c-2.225,0-4.228-1.245-5.226-3.249c-0.192-0.389-0.667-0.547-1.054-0.354c-0.39,0.194-0.548,0.666-0.354,1.055
		c1.266,2.543,3.808,4.122,6.634,4.122c4.09,0,7.419-3.306,7.419-7.368C62.925,29.335,59.597,26.03,55.507,26.03z"/>
</g>
</svg>
