<?xml version="1.0" encoding="utf-8"?>
<!-- Generator: Adobe Illustrator 16.0.0, SVG Export Plug-In . SVG Version: 6.00 Build 0)  -->
<!DOCTYPE svg PUBLIC "-//W3C//DTD SVG 1.1//EN" "http://www.w3.org/Graphics/SVG/1.1/DTD/svg11.dtd">
<svg version="1.1" id="Layer_1" xmlns="http://www.w3.org/2000/svg" xmlns:xlink="http://www.w3.org/1999/xlink" x="0px" y="0px"
	 width="55.295px" height="48.51px" viewBox="0 0 55.295 48.51" enable-background="new 0 0 55.295 48.51" xml:space="preserve">
<g id="XMLID_6045_">
	<path fill="#77A4B0" d="M55.171,20.614c0.237-0.75,0.131-1.512-0.29-2.086c-0.422-0.575-1.115-0.904-1.903-0.904H28.611v-1.398
		c2.94-0.466,5.199-3.012,5.199-6.082c0-4.582-5.272-9.664-5.498-9.877c-0.385-0.367-0.994-0.354-1.362,0.031
		c-0.223,0.233-5.464,5.771-5.464,9.846c0,3.07,2.258,5.616,5.198,6.082v1.398H2.317c-0.789,0-1.482,0.33-1.902,0.904
		c-0.422,0.575-0.527,1.336-0.291,2.086c0.217,0.688,4.897,15.265,12.66,21.516c-2.831,0.197-5.109,2.479-5.264,5.365
		c-0.014,0.265,0.081,0.522,0.263,0.714c0.183,0.192,0.437,0.301,0.7,0.301h38.33c0.264,0,0.518-0.108,0.699-0.3
		c0.182-0.192,0.277-0.45,0.263-0.714c-0.153-2.886-2.431-5.171-5.262-5.366C50.275,35.88,54.954,21.303,55.171,20.614z
		 M23.413,10.144c0-2.366,2.65-5.917,4.259-7.771c1.351,1.459,4.211,4.887,4.211,7.771c0,2.336-1.9,4.237-4.235,4.237
		C25.313,14.381,23.413,12.479,23.413,10.144z M1.968,19.668c0.054-0.073,0.184-0.116,0.349-0.116h24.367v4.729H3.536
		c-1.005-2.473-1.556-4.191-1.573-4.246C1.913,19.878,1.915,19.741,1.968,19.668z M45.656,46.582H9.641
		c0.504-1.485,1.903-2.544,3.538-2.544h28.94C43.753,44.038,45.152,45.097,45.656,46.582z M39.047,42.11H16.249
		C10.961,39.47,6.787,31.774,4.349,26.208h28.497c0.532,0,0.964-0.432,0.964-0.964s-0.432-0.964-0.964-0.964h-4.235v-4.729h24.367
		c0.165,0,0.296,0.043,0.349,0.117c0.054,0.072,0.056,0.209,0.006,0.366c-0.018,0.055-0.568,1.774-1.571,4.245H41.553
		c-0.532,0-0.965,0.432-0.965,0.964s0.433,0.964,0.965,0.964h9.395C48.511,31.772,44.339,39.468,39.047,42.11z"/>
</g>
</svg>
