<?xml version="1.0" encoding="utf-8"?>
<!-- Generator: Adobe Illustrator 19.0.0, SVG Export Plug-In . SVG Version: 6.00 Build 0)  -->
<svg version="1.1" id="Layer_1" xmlns="http://www.w3.org/2000/svg" xmlns:xlink="http://www.w3.org/1999/xlink" x="0px" y="0px"
	 viewBox="0 0 248.4 229.1" style="enable-background:new 0 0 248.4 229.1;" xml:space="preserve">
<style type="text/css">
	.st0{fill:#999C86;}
	.st1{fill:#565759;}
	.st2{fill:none;stroke:#999C86;stroke-width:4.7926;stroke-linecap:round;stroke-linejoin:round;stroke-dasharray:0,14.3643;}
	.st3{fill:none;stroke:#999C86;stroke-width:4.7926;stroke-linecap:round;stroke-linejoin:round;stroke-dasharray:0,14.8914;}
	.st4{fill:none;stroke:#999C86;stroke-width:4.7926;stroke-linecap:round;stroke-linejoin:round;}
	.st5{fill:none;stroke:#999C86;stroke-width:4.7926;stroke-linecap:round;stroke-linejoin:round;stroke-dasharray:0,14.3664;}
	.st6{fill:none;stroke:#999C86;stroke-width:4.7926;stroke-linecap:round;stroke-linejoin:round;stroke-dasharray:0,14.4731;}
	.st7{fill:none;stroke:#999C86;stroke-width:4.7926;stroke-linecap:round;stroke-linejoin:round;stroke-dasharray:0,14.5799;}
</style>
<g>
	<path class="st0" d="M10.1,84.4c1.3,0,2.3,0.9,2.3,2.3c0,0.6-0.3,1.2-0.6,1.6c-0.5,0.5-1,0.8-1,1.3c0,1,1.2,1.5,2.4,1.5
		c2.2,0,4.5-0.7,4.5-9V56.6c0-3.2-0.4-3.7-3.2-3.7H13v-0.6l7.6-0.4V81c0,6.1-2.7,10.5-7.4,10.5c-3.5,0-5.8-1.8-5.8-4.5
		C7.4,85.6,8.6,84.4,10.1,84.4L10.1,84.4z M18.4,38.3c1.5,0,2.7,1.2,2.7,2.7c0,1.5-1.3,2.7-2.7,2.7c-1.5,0-2.7-1.2-2.7-2.7
		C15.7,39.5,16.9,38.3,18.4,38.3L18.4,38.3z"/>
	<path class="st0" d="M38,51.5c6,0,11.7,5.6,11.7,13.8c0,7.8-5.5,14.1-11.6,14.1c-6.1,0-11.8-6.2-11.8-14
		C26.3,57.3,32.1,51.5,38,51.5L38,51.5z M38,52.1c-5.8,0-8,6.1-8,13.3c0,7,2.2,13.5,8.1,13.5c6,0,8-6.3,8-13.4
		C46.1,58.3,43.8,52.1,38,52.1L38,52.1z"/>
	<path class="st0" d="M58.3,60.6c2-6,5.8-8.7,10-8.7c4.9,0,7.5,2.9,7.5,9.3v13.3c0,3.1,0.8,3.5,3,3.5h0.5v0.6h-11V78h0.9
		c2.9,0,3.5-0.5,3.5-3.5V59.2c0-4.7-2.5-5.9-5.1-5.9c-4.9,0-9.1,5.3-9.1,10.8v10.4c0,3,0.7,3.5,3.5,3.5h0.8v0.6H51.6V78h0.6
		c2.7,0,3.4-0.4,3.4-3.5V39.7c0-3.2-0.6-3.7-3.4-3.7h-0.8v-0.6l7.1-1.1c0,0,0,16.1,0,19.7c0,2.6-0.3,6.7-0.3,6.7H58.3L58.3,60.6z"/>
	<path class="st0" d="M97.6,62v-1.9c0-6.1-3-7.8-6.6-7.8c-3.4,0-6.3,1.5-6.4,2.6c0,0.2,0.1,0.2,0.3,0.3c1.1,0.3,2,1.1,2,2.5
		c0,1.4-1.1,2.4-2.3,2.4c-1.2,0-2.3-0.9-2.3-2.6c0-2.9,3.4-5.8,9.6-5.8c4.2,0,8.7,1.4,8.7,8.9v13c0,3.2,0.6,4.1,1.7,4.1
		c1.8,0,2.1-2.5,2.1-5.6h0.7c0.3,5.3-1.5,7-3.7,7c-2,0-3.6-1.2-3.7-5.9h-0.1c-1.4,3.2-4.4,6-9.3,6c-4.1,0-7-1.9-7-6
		C81.2,67.2,86.3,64.1,97.6,62L97.6,62z M97.6,62.8c-11,2-12.9,5.5-12.9,9.3c0,3.6,1.7,5.8,5.3,5.8c2.5,0,7.7-2,7.7-10.3V62.8
		L97.6,62.8z"/>
	<path class="st0" d="M130,74.4c0,3.1,0.8,3.5,3,3.5h0.5v0.6h-11V78h0.9c2.9,0,3.5-0.5,3.5-3.5V59.2c0-4.7-2.6-5.9-5.2-5.9
		c-5,0-9,5.5-9,10.8v10.4c0,3,0.7,3.5,3.5,3.5h0.8v0.6h-11.3V78h0.6c2.8,0,3.4-0.4,3.4-3.5V56.6c0-3.2-0.6-3.7-3.4-3.7h-0.6v-0.6
		l6.9-0.4l-0.3,8.7h0.1c1.9-6,5.8-8.7,10-8.7c4.9,0,7.5,2.9,7.5,9.3V74.4L130,74.4z"/>
	<path class="st0" d="M137.1,68.4c1,6.5,5.2,10.3,10.2,10.3c4.7,0,7-2.8,7-5.7c0-3-2.4-4-8.6-6.1c-5.6-1.9-8.7-3-8.7-7.8
		c0-4.6,3.3-7.2,7.6-7.2c3.6,0,4.7,1.7,6.7,1.7c0.9,0,1.8-0.5,2.3-1.6h0.5v10h-0.4c-1-5.6-3.7-9.4-9.4-9.4c-3,0-6,2-6,5.1
		c0,3,2,3.7,8.2,5.8c6.1,2,9.1,3.5,9.1,8.2c0,4.6-2.9,7.7-8.5,7.7c-3.7,0-6.3-2.3-7.6-2.3c-0.9,0-1.8,0.8-2.3,2.2h-0.5V68.4H137.1
		L137.1,68.4z"/>
	<path class="st0" d="M170.5,51.5c4.4,0,10.1,3.3,10.1,11.5c0,0.1-0.1,1.6-0.1,2h-17.9c0,6.6,2.2,13.2,8.6,13.2
		c4.5,0,7.1-2.5,8.7-5.5l0.5,0.4c-1.7,3.4-4.6,6.3-9.8,6.3c-6.7,0-11.7-5.2-11.7-13.8C158.9,57.1,164.4,51.5,170.5,51.5L170.5,51.5z
		 M173.9,64.2c2.8,0,3.2-0.4,3.2-2.5c0-5.1-2.2-9.6-6.7-9.6c-5,0-7.6,5.3-7.9,12.1H173.9L173.9,64.2z"/>
	<path class="st0" d="M207.2,74.4c0,3.1,0.8,3.5,3,3.5h0.5v0.6h-11V78h0.9c2.9,0,3.5-0.5,3.5-3.5V59.2c0-4.7-2.6-5.9-5.2-5.9
		c-5,0-9,5.5-9,10.8v10.4c0,3,0.7,3.5,3.5,3.5h0.8v0.6h-11.3V78h0.6c2.8,0,3.4-0.4,3.4-3.5V56.6c0-3.2-0.6-3.7-3.4-3.7h-0.6v-0.6
		l6.9-0.4l-0.3,8.7h0.1c1.9-6,5.8-8.7,10-8.7c4.9,0,7.5,2.9,7.5,9.3V74.4L207.2,74.4z"/>
	<path class="st0" d="M214.2,68.4c1,6.5,5.2,10.3,10.2,10.3c4.7,0,7-2.8,7-5.7c0-3-2.4-4-8.6-6.1c-5.6-1.9-8.7-3-8.7-7.8
		c0-4.6,3.3-7.2,7.6-7.2c3.6,0,4.7,1.7,6.7,1.7c0.9,0,1.8-0.5,2.3-1.6h0.5v10h-0.4c-1-5.6-3.7-9.4-9.4-9.4c-3,0-6,2-6,5.1
		c0,3,2,3.7,8.2,5.8c6.1,2,9.1,3.5,9.1,8.2c0,4.6-2.9,7.7-8.5,7.7c-3.7,0-6.3-2.3-7.6-2.3c-0.9,0-1.8,0.8-2.3,2.2h-0.5V68.4H214.2
		L214.2,68.4z"/>
	<path class="st1" d="M83.3,30.4h0.3v4.9h-0.4c-0.4-2.7-2.1-5-5.1-5c-1.9,0-3.6,1.4-4.4,3.1c-0.6,1.2-0.8,2.8-0.8,4.1
		c0,1.8,0.4,3,1.3,4.6c0.7,1.2,2.1,2.2,3.7,2.2c2.9,0,4.7-2.1,5.2-4.8h0.4v4.6h-0.4l-0.6-1c-1.4,0.9-3,1.5-4.7,1.5
		c-4.5,0-7.3-2.8-7.3-7.3c0-4.4,3.1-7.5,7.5-7.5c1.7,0,3,0.6,4.4,1.5L83.3,30.4L83.3,30.4z"/>
	<path class="st1" d="M102.3,37.3c0,2.4-1.4,7.3-7.4,7.3c-5.6,0-7.1-4.7-7.1-7.2c0-6.3,5.1-7.6,7.2-7.6
		C98.4,29.8,102.3,32.2,102.3,37.3L102.3,37.3z M95.1,30.2c-2.5,0-5.1,2.2-5.1,7.3c0,3.6,1.8,6.7,4.8,6.7c3.6,0,5.2-3.8,5.2-6.9
		C100,32.2,96.9,30.2,95.1,30.2L95.1,30.2z"/>
	<path class="st1" d="M108,32.2v10.5c0,0.7,0.5,1.1,1.9,1.2v0.4h-4.3v-0.4c1-0.1,1.7-0.1,1.8-1.2c0,0,0,0,0-0.1V31.6
		c-0.6-0.6-1.1-1.2-1.8-1.2V30h3.1l10.3,11.3v-9.5c0-1.1-0.6-1.2-1.8-1.3V30h4.3v0.4c-1.4,0.2-1.9,0.6-1.9,1.3v12.8h-0.3L108,32.2
		L108,32.2z"/>
	<path class="st1" d="M125.5,30c2.2,0,4.3-0.1,6.5-0.1c6.5,0,8.6,3.5,8.6,7.4c0,4.8-3.1,7.2-9,7.2c-2,0-4-0.1-6-0.1v-0.4
		c1,0,1.5-0.1,1.5-1.2V31.6c0-1.1-0.8-1.2-1.5-1.2V30L125.5,30z M129.1,42.4c0,1.6,1,1.6,2.6,1.7c4,0,6.5-2.6,6.5-6.6
		c0-4.6-2.2-7.2-6.9-7.2c-1.6,0-2.2,0.2-2.2,1.6V42.4L129.1,42.4z"/>
	<path class="st1" d="M144.8,44.4v-0.4c1,0,1.6-0.1,1.6-1.2V31.6c0-1.1-0.8-1.2-1.7-1.2V30h10.6l1,3.4l-0.4,0.1
		c-0.3-0.5-0.6-0.9-0.9-1.3c-1.1-1.4-2.1-1.7-3.3-1.7h-3.2v6.4h1.1c2.1,0,2.9-0.3,3.4-2.6h0.3v6h-0.3c-0.2-2.3-1.1-2.8-3.1-2.8h-1.4
		v5.5c0,0.9,0.7,1,1.4,1h2.3c1,0,1.6-0.2,2.4-1c0.7-0.7,1.4-1.5,1.9-2.4l0.4,0.1l-0.8,3.7H144.8L144.8,44.4z M149,28.7l3.1-3.1
		c0.2-0.2,0.6-0.5,0.9-0.5c0.5,0,0.7,0.3,0.7,0.8c0,0.3-0.4,0.6-0.6,0.8l-3.2,2H149L149,28.7z"/>
	<path class="st1" d="M170.5,32.2v10.5c0,0.7,0.5,1.1,1.9,1.2v0.4h-4.3v-0.4c1-0.1,1.7-0.1,1.8-1.2c0,0,0,0,0-0.1V31.6
		c-0.6-0.6-1.1-1.2-1.8-1.2V30h3.1l10.3,11.3v-9.5c0-1.1-0.6-1.2-1.8-1.3V30h4.3v0.4c-1.4,0.2-1.9,0.6-1.9,1.3v12.8h-0.3L170.5,32.2
		L170.5,32.2z"/>
	<path class="st1" d="M186.9,44.4v-0.4c0.6,0,1.1-0.4,1.3-1l4.3-11.1l-0.4-0.6c0.7-0.4,1.2-1,1.7-1.6l4.9,12.4
		c0.5,1.2,0.7,1.8,1.8,1.9v0.4h-5.4v-0.4c0.6,0,1.8,0,1.8-0.8c0-0.6-1.2-3.3-1.4-4.2h-5c-0.2,0.7-1.4,3.6-1.4,4.1
		c0,0.8,1.1,0.8,1.7,0.9v0.4H186.9L186.9,44.4z M190.6,38.3h4.5l-2.4-5.9L190.6,38.3L190.6,38.3z"/>
	<path class="st1" d="M203.5,40h0.4c0.3,2.2,1.4,4.2,4,4.2c2.8,0,3.4-2,3.4-3c0-2.1-1.9-2.4-3.5-2.9c-2.4-0.8-3.8-1.5-3.8-4.3
		c0-2.5,2-4.2,4.5-4.2c1.2,0,2.5,0.4,3.4,1.2l0.6-0.5h0.3v4.3h-0.4c-0.3-1-0.6-2.5-1.3-3.3c-0.6-0.7-1.4-1.1-2.3-1.1
		c-2,0-3,1.3-3,3.2c0,1.8,1.4,2.3,2.8,2.7c2.3,0.7,4.6,1.6,4.6,4.4c0,3-2.3,4.1-5,4.1c-1.3,0-2.5-0.4-3.6-1.1l-0.8,0.8h-0.2V40
		L203.5,40z"/>
	<path class="st1" d="M223,30.4h-3.4c-0.8,0-1,0.3-1.5,0.9c-0.6,0.7-1,1.6-1.7,2.4l-0.3-0.1l0.9-3.9c0.6,0.2,1.2,0.3,1.8,0.3h10.4
		c0.6,0,1.2-0.2,1.8-0.3l0.8,3.9l-0.3,0.1c-0.5-0.8-0.9-1.7-1.6-2.4c-0.5-0.6-0.7-0.9-1.5-0.9h-3.4v12.3c0,0.9,0.4,1.1,1.9,1.2v0.4
		h-5.9v-0.4c1.4-0.1,1.9-0.3,1.9-1.2V30.4L223,30.4z"/>
	<polygon class="st1" points="30.5,90.3 30.5,99.1 34.9,99.1 34.9,99.7 29.8,99.7 29.8,90.3 30.5,90.3 	"/>
	<path class="st1" d="M41.5,99.7l0-2c-0.3,1.3-1.2,2.1-2.4,2.1c-1.2,0-1.9-0.7-1.9-2.1V93h0.6v4.7c0,0.9,0.3,1.6,1.3,1.6
		c1.3,0,2.3-1,2.3-3.9V93h0.6v6.7H41.5L41.5,99.7z"/>
	<polygon class="st1" points="45.8,93 47.6,95.8 49.4,93 50.1,93 48,96.2 50.3,99.7 49.5,99.7 47.6,96.7 45.6,99.7 44.8,99.7 
		47.2,96.2 45,93 45.8,93 	"/>
	<path class="st1" d="M57.4,99.7l0-2c-0.3,1.3-1.2,2.1-2.4,2.1c-1.2,0-1.9-0.7-1.9-2.1V93h0.6v4.7c0,0.9,0.3,1.6,1.3,1.6
		c1.3,0,2.3-1,2.3-3.9V93H58v6.7H57.4L57.4,99.7z"/>
	<path class="st1" d="M62.1,93v1.7c0.2-1.1,0.9-1.8,1.8-1.8c0.1,0,0.2,0,0.3,0l-0.1,0.6c-0.1,0-0.2,0-0.3,0c-1.3,0-1.8,1.8-1.8,3.2
		v2.9h-0.6V93H62.1L62.1,93z"/>
	<path class="st1" d="M69.5,99.6c-0.8,2.3-1.4,3.4-2.7,3.4c-0.3,0-0.6-0.1-0.7-0.2l0.2-0.6c0.2,0.1,0.4,0.1,0.6,0.1
		c0.9,0,1.4-0.9,2-2.8h-0.4L66,93h0.7l2.3,6.4l2-6.4h0.7L69.5,99.6L69.5,99.6z"/>
	<polygon class="st1" points="79,90.3 79,94.6 84.1,94.6 84.1,90.3 84.7,90.3 84.7,99.7 84.1,99.7 84.1,95.2 79,95.2 79,99.7 
		78.4,99.7 78.4,90.3 79,90.3 	"/>
	<path class="st1" d="M92.7,99c-0.5,0.5-1.1,0.8-2.1,0.8c-1,0-1.6-0.3-2-0.8c-0.5-0.6-0.7-1.5-0.7-2.5c0-1.2,0.2-2.2,0.8-2.8
		c0.5-0.5,1.1-0.8,2.1-0.8c1,0,1.6,0.3,2,0.8c0.5,0.6,0.7,1.5,0.7,2.5C93.5,97.4,93.3,98.3,92.7,99L92.7,99z M92.3,94
		c-0.3-0.3-0.7-0.6-1.5-0.6c-0.9,0-1.3,0.4-1.6,0.7c-0.4,0.6-0.6,1.5-0.6,2.4c0,0.9,0.1,1.7,0.5,2.2c0.3,0.3,0.7,0.6,1.5,0.6
		c0.9,0,1.3-0.4,1.6-0.7c0.5-0.6,0.6-1.5,0.6-2.4C92.8,95.3,92.7,94.5,92.3,94L92.3,94z"/>
	<path class="st1" d="M100.1,99.6c-0.4,0.1-0.9,0.1-1.3,0.1c-1.5,0-1.7-0.6-1.7-2.2v-3.9h-1.4v-0.6H97v-2l0.6-0.1v2.1h2.3v0.6h-2.3
		v3.9c0,1.1,0.1,1.6,1.2,1.6c0.4,0,0.8-0.1,1.2-0.1L100.1,99.6L100.1,99.6z"/>
	<path class="st1" d="M107.6,98.8c-0.7,0.7-1.4,1.1-2.5,1.1c-0.8,0-1.4-0.2-1.9-0.6c-0.6-0.5-0.8-1.4-0.8-2.7c0-1.1,0.2-2.2,0.8-2.9
		c0.4-0.5,1.1-0.7,1.9-0.7c1.8,0,2.5,1.2,2.5,2.8c0,0.1,0,0.4,0,0.6l-4.5,0v0.2c0,1.7,0.4,2.8,2,2.8c0.9,0,1.6-0.3,2.1-0.9
		L107.6,98.8L107.6,98.8z M107,95.7c0-1.4-0.4-2.3-1.8-2.3c-1.5,0-2,1-2.1,2.3L107,95.7L107,95.7z"/>
	<polygon class="st1" points="111.6,89.3 111.6,99.7 111,99.7 111,89.3 111.6,89.3 	"/>
	<path class="st1" d="M118.2,93.9c-0.5-0.4-1-0.5-1.5-0.5c-0.9,0-1.5,0.3-1.5,1.1c0,1.7,3.6,1.1,3.6,3.4c0,1.3-1.2,1.8-2.3,1.8
		c-0.8,0-1.6-0.2-2-0.8l0.4-0.4c0.4,0.4,1,0.6,1.7,0.6c0.9,0,1.6-0.3,1.6-1.3c0-1.8-3.6-1.1-3.6-3.4c0-1.2,1-1.7,2.2-1.7
		c0.7,0,1.3,0.2,1.8,0.6L118.2,93.9L118.2,93.9z"/>
	<path class="st1" d="M142,91.4c-0.7-0.5-1.4-0.6-2-0.6c-1.1,0-2.1,0.4-2.1,1.7c0,2.4,4.8,1.7,4.8,4.9c0,0.8-0.3,1.5-0.9,1.9
		c-0.5,0.4-1.3,0.6-2.1,0.6c-0.9,0-1.9-0.2-2.6-0.9l0.4-0.5c0.7,0.6,1.5,0.8,2.3,0.8c1.1,0,2.2-0.4,2.2-1.9c0-2.6-4.8-1.8-4.8-4.9
		c0-0.7,0.3-1.3,0.7-1.7c0.5-0.4,1.3-0.6,2.1-0.6c0.8,0,1.6,0.2,2.3,0.7L142,91.4L142,91.4z"/>
	<path class="st1" d="M146.3,93l0,1.6c0.4-1.1,1.4-1.7,2.5-1.7c0.8,0,1.3,0.3,1.6,0.7c0.5,0.7,0.7,1.7,0.7,2.6c0,1.1-0.2,2.3-0.9,3
		c-0.4,0.4-1,0.7-1.7,0.7c-0.8,0-1.7-0.3-2.2-1.3v4.5h-0.6V93H146.3L146.3,93z M147,94.2c-0.6,0.7-0.8,1.6-0.8,2.4
		c0,0.7,0.2,1.4,0.5,1.9c0.3,0.5,0.9,0.8,1.6,0.8c1.4,0,2-1,2-3c0-1.9-0.6-2.8-1.8-2.8C148,93.4,147.4,93.7,147,94.2L147,94.2z"/>
	<path class="st1" d="M153.9,93.7c0.5-0.7,1.3-0.9,2.2-0.9c1.6,0,2.4,0.7,2.4,2.5v4.3h-0.6v-1.4c-0.4,1-1.3,1.5-2.3,1.5
		c-0.6,0-1.1-0.2-1.4-0.5c-0.3-0.3-0.5-0.8-0.5-1.4c0-0.6,0.2-1.1,0.7-1.5c0.5-0.4,1.3-0.5,2.4-0.5h1.1v-0.5c0-1.5-0.5-2-1.8-2
		c-0.8,0-1.3,0.2-1.8,0.7L153.9,93.7L153.9,93.7z M156.7,96.5c-1.4,0-2.4,0.2-2.4,1.5c0,0.8,0.4,1.3,1.3,1.3c1.1,0,2.2-0.7,2.2-2.8
		H156.7L156.7,96.5z"/>
	<path class="st1" d="M164.9,93.9c-0.5-0.4-1-0.5-1.5-0.5c-0.9,0-1.5,0.3-1.5,1.1c0,1.7,3.6,1.1,3.6,3.4c0,1.3-1.2,1.8-2.3,1.8
		c-0.8,0-1.6-0.2-2-0.8l0.4-0.4c0.4,0.4,1,0.6,1.7,0.6c0.9,0,1.6-0.3,1.6-1.3c0-1.8-3.6-1.1-3.6-3.4c0-1.2,1-1.7,2.2-1.7
		c0.7,0,1.3,0.2,1.8,0.6L164.9,93.9L164.9,93.9z"/>
	<polygon class="st1" points="184.2,90.3 187.2,99 190.3,90.3 191,90.3 187.6,99.7 186.8,99.7 183.5,90.3 184.2,90.3 	"/>
	<path class="st1" d="M197.7,98.8c-0.7,0.7-1.4,1.1-2.5,1.1c-0.8,0-1.4-0.2-1.9-0.6c-0.6-0.5-0.8-1.4-0.8-2.7c0-1.1,0.2-2.2,0.8-2.9
		c0.4-0.5,1.1-0.7,1.9-0.7c1.8,0,2.5,1.2,2.5,2.8c0,0.1,0,0.4,0,0.6l-4.5,0v0.2c0,1.7,0.4,2.8,2,2.8c0.9,0,1.6-0.3,2.1-0.9
		L197.7,98.8L197.7,98.8z M197.1,95.7c0-1.4-0.4-2.3-1.8-2.3c-1.5,0-2,1-2.1,2.3L197.1,95.7L197.1,95.7z"/>
	<path class="st1" d="M201.6,93l0,2c0.3-1.3,1.2-2.1,2.5-2.1c1.2,0,1.9,0.8,1.9,2.1v4.8h-0.6V95c0-1-0.3-1.6-1.3-1.6
		c-1.3,0-2.4,1.1-2.4,3.9v2.3H201V93H201.6L201.6,93z"/>
	<path class="st1" d="M213.8,99.7l0-2c-0.3,1.3-1.2,2.1-2.4,2.1c-1.2,0-1.9-0.7-1.9-2.1V93h0.6v4.7c0,0.9,0.3,1.6,1.3,1.6
		c1.3,0,2.3-1,2.3-3.9V93h0.6v6.7H213.8L213.8,99.7z"/>
	<path class="st1" d="M222.8,98.8c-0.7,0.7-1.4,1.1-2.5,1.1c-0.8,0-1.4-0.2-1.9-0.6c-0.6-0.5-0.8-1.4-0.8-2.7c0-1.1,0.2-2.2,0.8-2.9
		c0.4-0.5,1.1-0.7,1.9-0.7c1.8,0,2.5,1.2,2.5,2.8c0,0.1,0,0.4,0,0.6l-4.5,0v0.2c0,1.7,0.4,2.8,2,2.8c0.9,0,1.6-0.3,2.1-0.9
		L222.8,98.8L222.8,98.8z M222.1,95.7c0-1.4-0.4-2.3-1.8-2.3c-1.5,0-2,1-2.1,2.3L222.1,95.7L222.1,95.7z"/>
	<path class="st1" d="M229.1,93.9c-0.5-0.4-1-0.5-1.5-0.5c-0.9,0-1.5,0.3-1.5,1.1c0,1.7,3.6,1.1,3.6,3.4c0,1.3-1.2,1.8-2.3,1.8
		c-0.8,0-1.6-0.2-2-0.8l0.4-0.4c0.4,0.4,1,0.6,1.7,0.6c0.9,0,1.6-0.3,1.6-1.3c0-1.8-3.6-1.1-3.6-3.4c0-1.2,1-1.7,2.2-1.7
		c0.7,0,1.3,0.2,1.8,0.6L229.1,93.9L229.1,93.9z"/>
	<path class="st1" d="M128.2,97.2c-0.6,0-1-0.5-1-1c0-0.6,0.4-1,1-1c0.6,0,1,0.4,1,1C129.2,96.7,128.7,97.2,128.2,97.2L128.2,97.2z"
		/>
	<path class="st1" d="M174.7,97.2c-0.6,0-1-0.5-1-1c0-0.6,0.4-1,1-1c0.6,0,1,0.4,1,1C175.6,96.7,175.2,97.2,174.7,97.2L174.7,97.2z"
		/>
	<path class="st2" d="M170.2,13c-10.9-4.5-22.6-7.2-34.8-8"/>
	<path class="st3" d="M113.4,5.7c-12.6,1.7-24.5,5.5-35.4,11"/>
	<path class="st4" d="M183.1,19.3L183.1,19.3 M128.2,4.7L128.2,4.7 M71.5,20.3L71.5,20.3"/>
	<path class="st5" d="M17.6,115.2c0-2.4,0.1-4.8,0.2-7.2"/>
	<path class="st6" d="M18.6,129.7c6.8,51.9,49.5,92.5,102.4,95.9 M142.6,224.9c51.9-6.8,92.5-49.5,95.9-102.4"/>
	<path class="st7" d="M237.8,100.7c0.3,2.4,0.6,4.8,0.7,7.3"/>
	<path class="st4" d="M18.6,100.9L18.6,100.9 M17.6,115.2L17.6,115.2 M128.2,225.8L128.2,225.8 M238.7,115.2L238.7,115.2
		 M237.8,100.7L237.8,100.7"/>
	<path class="st1" d="M79,207.1h22l0.5-11.5h-0.7c-0.7,5.1-1.1,7.3-6.4,7.3H81.2c2.4-5.3,6.4-9.2,10.2-12.1
		c5.1-4.1,9.9-6.7,9.9-13.4c0-6.4-5.7-9.3-10.6-9.3c-5.7,0-10.6,3.6-10.6,9.1c0,2.7,1.6,4.5,3.6,4.5c1.9,0,3.3-1.4,3.3-3.1
		c0-1.8-1.4-3.1-3-3.1c-0.8,0-1.4,0.2-1.9,0.6c-0.3,0.2-0.8-0.4-0.6-1.2c0.6-3.2,4.7-5.7,8.2-5.7c3.4,0,6.1,2.5,6.1,8.3
		c0,4.6-1.7,6.9-6.3,11.6c-1.3,1.3-8,9-10.5,16.4V207.1L79,207.1z M118.4,208c6.6,0,13-7.9,13-20.1c0-12.2-6.2-20-12.8-20
		c-6.6,0-13.1,7.9-13.1,20C105.5,200.1,111.8,208,118.4,208L118.4,208z M118.6,207.2c-5,0-7.6-6.6-7.6-19.3
		c0-12.7,2.4-19.2,7.4-19.2c4.9,0,7.5,6.5,7.5,19.2C125.9,200.6,123.6,207.2,118.6,207.2L118.6,207.2z M135,207.1h15.7v-0.9H149
		c-2.5,0-3.5-0.7-3.5-3.4v-35.1h-0.7c-1,2.1-3.3,3.8-9.7,4.3v0.9h2.2c2.5,0,3.5,0.7,3.5,3.4v26.6c0,2.7-1,3.4-3.5,3.4H135V207.1
		L135,207.1z M163.8,207.9c1.9,0,2.8-1.6,2.8-3.9c0-1.6-0.7-4-0.7-7c0-7.9,3.3-14.9,10.3-25.2v-3H154l-1.1,13.3h0.7
		c1.3-8.7,2.7-9,8.1-9h12.5c-8,10.6-13.3,23-13.3,29.5C160.8,205.5,161.7,207.9,163.8,207.9L163.8,207.9z"/>
	<path class="st1" d="M56.6,136.9l6.4,25.7h3.1l6.2-22l6.1,22h3.1l6.6-25.7h-2.5L80,159.8l-6.1-22h-3l-6.1,22l-5.5-22.9H56.6
		L56.6,136.9z M94.3,136.9v25.7h2.5v-25.7H94.3L94.3,136.9z M105.4,136.9v25.7h2.5l-0.1-22.4l13.3,22.4h3.4v-25.7H122l0.1,22.5
		l-13.3-22.5H105.4L105.4,136.9z M133,136.9v25.7h2.5l-0.1-22.4l13.3,22.4h3.4v-25.7h-2.5l0.1,22.5l-13.3-22.5H133L133,136.9z
		 M160.7,136.9v25.7h13.5v-2.2h-10.9v-9.8h9.9v-2.2h-9.9v-9.2H174v-2.2H160.7L160.7,136.9z M181.6,136.9v25.7h2.5v-11.2h4.3
		c3.9,0,4.7,2.9,6.7,11.2h2.7c-1.6-7.2-2.6-11.3-6-12.2c3.8-0.8,5.6-3.4,5.6-7.1c0-2.6-0.9-4.1-2.3-5.1c-1.3-0.9-3.1-1.3-5.3-1.3
		H181.6L181.6,136.9z M184.1,139.1h5.6c1.8,0,3,0.3,3.8,1c0.7,0.6,1.2,2,1.2,3.7c0,4.3-2.8,5.5-7.1,5.5h-3.4V139.1L184.1,139.1z"/>
	<path class="st1" d="M85.7,131.6l-8.9-25.7h-3.2l-9,25.7h2.6l2.5-7.1h10.9l2.4,7.1H85.7L85.7,131.6z M79.9,122.3h-9.5l4.8-13.9
		L79.9,122.3L79.9,122.3z M87.2,105.8l6.4,25.7h3.1l6.2-22l6.1,22h3.1l6.6-25.7h-2.5l-5.6,22.9l-6.1-22h-3l-6.1,22l-5.5-22.9H87.2
		L87.2,105.8z M141.4,131.6l-8.9-25.7h-3.2l-9,25.7h2.6l2.5-7.1h10.9l2.4,7.1H141.4L141.4,131.6z M135.6,122.3h-9.5l4.8-13.9
		L135.6,122.3L135.6,122.3z M147,105.8v25.7h2.5v-11.2h4.3c3.9,0,4.7,2.9,6.7,11.2h2.7c-1.6-7.2-2.6-11.3-6-12.2
		c3.8-0.8,5.6-3.4,5.6-7.1c0-2.6-0.9-4.1-2.3-5.1c-1.3-0.9-3.1-1.3-5.3-1.3H147L147,105.8z M149.5,108h5.6c1.8,0,3,0.3,3.8,1
		c0.7,0.6,1.2,2,1.2,3.7c0,4.3-2.8,5.5-7.1,5.5h-3.4V108L149.5,108z M170.2,105.8v25.7h8.3c3.4,0,5.7-0.9,7.3-2.5
		c2.5-2.5,2.9-6.3,2.9-10.4c0-5.1-0.6-8.4-2.8-10.6c-1.6-1.5-4-2.3-7.5-2.3H170.2L170.2,105.8z M172.8,108.1h5.7
		c2.6,0,4.4,0.6,5.5,1.8c1.5,1.6,2.1,4.2,2.1,8.9c0,4.5-0.6,7.1-2.1,8.7c-1.2,1.3-3.1,1.9-5.6,1.9h-5.7V108.1L172.8,108.1z"/>
</g>
</svg>
