<svg xmlns="http://www.w3.org/2000/svg" width="50" height="50" viewBox="0 0 50 50">
  <metadata><?xpacket begin="﻿" id="W5M0MpCehiHzreSzNTczkc9d"?>
<x:xmpmeta xmlns:x="adobe:ns:meta/" x:xmptk="Adobe XMP Core 5.6-c142 79.160924, 2017/07/13-01:06:39        ">
   <rdf:RDF xmlns:rdf="http://www.w3.org/1999/02/22-rdf-syntax-ns#">
      <rdf:Description rdf:about=""/>
   </rdf:RDF>
</x:xmpmeta>
                                                                                                    
                                                                                                    
                                                                                                    
                                                                                                    
                                                                                                    
                                                                                                    
                                                                                                    
                                                                                                    
                                                                                                    
                                                                                                    
                                                                                                    
                                                                                                    
                                                                                                    
                                                                                                    
                                                                                                    
                                                                                                    
                                                                                                    
                                                                                                    
                                                                                                    
                                                                                                    
                           
<?xpacket end="w"?></metadata>
<defs>
    <style>
      .cls-1 {
        fill: #fff;
        fill-rule: evenodd;
      }
    </style>
  </defs>
  <path class="cls-1" d="M17,11v1h1V11H17"/>
  <path id="Shape_2_copy" data-name="Shape 2 copy" class="cls-1" d="M14,14v1h1V14H14"/>
  <path id="Shape_2_copy_2" data-name="Shape 2 copy 2" class="cls-1" d="M11,17v1h1V17H11"/>
  <path id="Shape_2_copy_3" data-name="Shape 2 copy 3" class="cls-1" d="M10,21v1h1V21H10"/>
  <path id="Shape_2_copy_4" data-name="Shape 2 copy 4" class="cls-1" d="M9,24v1h1V24H9"/>
  <path id="Shape_2_copy_5" data-name="Shape 2 copy 5" class="cls-1" d="M9,25v1h1V25H9"/>
  <path id="Shape_2_copy_6" data-name="Shape 2 copy 6" class="cls-1" d="M10,28v1h1V28H10"/>
  <path id="Shape_2_copy_7" data-name="Shape 2 copy 7" class="cls-1" d="M11,32v1h1V32H11"/>
  <path id="Shape_2_copy_8" data-name="Shape 2 copy 8" class="cls-1" d="M14,35v1h1V35H14"/>
  <path id="Shape_2_copy_9" data-name="Shape 2 copy 9" class="cls-1" d="M17,38v1h1V38H17"/>
  <path id="Shape_2_copy_10" data-name="Shape 2 copy 10" class="cls-1" d="M21,39v1h1V39H21"/>
  <path id="Shape_2_copy_11" data-name="Shape 2 copy 11" class="cls-1" d="M24,40v1h1V40H24"/>
  <path id="Shape_2_copy_12" data-name="Shape 2 copy 12" class="cls-1" d="M25,40v1h1V40H25"/>
  <path id="Shape_2_copy_13" data-name="Shape 2 copy 13" class="cls-1" d="M28,39v1h1V39H28"/>
  <path id="Shape_2_copy_14" data-name="Shape 2 copy 14" class="cls-1" d="M32,38v1h1V38H32"/>
  <path id="Shape_2_copy_15" data-name="Shape 2 copy 15" class="cls-1" d="M35,35v1h1V35H35"/>
  <path id="Shape_2_copy_16" data-name="Shape 2 copy 16" class="cls-1" d="M38,32v1h1V32H38"/>
  <path id="Shape_2_copy_17" data-name="Shape 2 copy 17" class="cls-1" d="M39,28v1h1V28H39"/>
  <path id="Shape_2_copy_18" data-name="Shape 2 copy 18" class="cls-1" d="M40,25v1h1V25H40"/>
  <path id="Shape_2_copy_19" data-name="Shape 2 copy 19" class="cls-1" d="M40,24v1h1V24H40"/>
  <path id="Shape_2_copy_20" data-name="Shape 2 copy 20" class="cls-1" d="M39,21v1h1V21H39"/>
  <path id="Shape_2_copy_21" data-name="Shape 2 copy 21" class="cls-1" d="M38,17v1h1V17H38"/>
  <path id="Shape_2_copy_22" data-name="Shape 2 copy 22" class="cls-1" d="M35,14v1h1V14H35"/>
  <path id="Shape_2_copy_23" data-name="Shape 2 copy 23" class="cls-1" d="M32,11v1h1V11H32"/>
  <path id="Shape_2_copy_24" data-name="Shape 2 copy 24" class="cls-1" d="M28,10v1h1V10H28"/>
  <path id="Shape_2_copy_25" data-name="Shape 2 copy 25" class="cls-1" d="M25,9v1h1V9H25"/>
  <path id="Shape_2_copy_26" data-name="Shape 2 copy 26" class="cls-1" d="M24,9v1h1V9H24"/>
  <path id="Shape_2_copy_27" data-name="Shape 2 copy 27" class="cls-1" d="M21,10v1h1V10H21"/>
  <path class="cls-1" d="M6,24H2v2H6v4H4v1H6l2,3L5,36l1,1,3-2,2,3L9,41l1,1,2-3,3,3-2,3,1,1,2-3,3,1-1,2h2l1-2,3,1v3h1V2H24V5L21,6,20,4H18l1,2L16,8,14,5,13,6l2,3-3,2L10,9,9,10l2,2L9,15,6,13,5,14l3,2L7,19H4v1H6v4ZM25,7S7,8.088,7,25c0,0,1.929,18,18,18"/>
  <path id="Shape_1_copy" data-name="Shape 1 copy" class="cls-1" d="M44,24h4v2H44v4h2v1H44l-2,3,3,2-1,1-3-2-2,3,2,3-1,1-2-3-3,3,2,3-1,1-2-3-3,1,1,2H30l-1-2-3,1v3H25V2h1V5l3,1,1-2h2L31,6l3,2,2-3,1,1L35,9l3,2,2-2,1,1-2,2,2,3,3-2,1,1-3,2,1,3h3v1H44v4ZM25,7S43,8.088,43,25c0,0-1.929,18-18,18"/>
</svg>
