<?xml version="1.0" encoding="utf-8"?>
<!-- Generator: Adobe Illustrator 16.0.0, SVG Export Plug-In . SVG Version: 6.00 Build 0)  -->
<!DOCTYPE svg PUBLIC "-//W3C//DTD SVG 1.1//EN" "http://www.w3.org/Graphics/SVG/1.1/DTD/svg11.dtd">
<svg version="1.1" id="Layer_1" xmlns="http://www.w3.org/2000/svg" xmlns:xlink="http://www.w3.org/1999/xlink" x="0px" y="0px"
	 width="21.627px" height="30.627px" viewBox="0 0 21.627 30.627" enable-background="new 0 0 21.627 30.627" xml:space="preserve">
<g id="XMLID_1_">
	<g>
		<path id="XMLID_89_" fill="#FFFFFF" d="M21.139,8.834h-0.182c-0.25-3.329-3.039-5.96-6.43-5.96h-0.16
			C14.13,1.251,12.729,0,11.041,0S7.953,1.251,7.715,2.874h-0.16c-3.391,0-6.18,2.631-6.43,5.96H0.943
			c-0.27,0-0.488,0.218-0.488,0.488c0,0.27,0.219,0.489,0.488,0.489h20.195c0.27,0,0.488-0.22,0.488-0.489
			C21.627,9.052,21.408,8.834,21.139,8.834L21.139,8.834z M11.041,0.978c1.147,0,2.107,0.814,2.334,1.896H8.707
			C8.934,1.792,9.894,0.978,11.041,0.978L11.041,0.978z M7.555,3.852h6.973c2.852,0,5.199,2.193,5.447,4.982H2.107
			C2.355,6.045,4.703,3.852,7.555,3.852L7.555,3.852z M7.555,3.852"/>
		<path id="XMLID_84_" fill="#FFFFFF" d="M20.385,10.799c-0.264-0.056-0.523,0.113-0.579,0.378c-0.521,2.473-2.07,4.613-4.262,5.89
			H6.538c-2.191-1.276-3.741-3.417-4.263-5.89c-0.055-0.265-0.314-0.434-0.578-0.378s-0.434,0.314-0.378,0.579
			c0.561,2.662,2.196,4.975,4.512,6.403L5.17,20.015c-0.001,0.002-0.001,0.003-0.002,0.004l-1.02,3.445
			c-0.178-0.027-0.359-0.042-0.545-0.042C1.617,23.422,0,25.038,0,27.024s1.617,3.603,3.604,3.603s3.602-1.616,3.602-3.603
			c0-1.458-0.871-2.716-2.12-3.282l0.916-3.092h10.08l1.743,5.886H8.672c-0.271,0-0.488,0.219-0.488,0.488s0.218,0.489,0.488,0.489
			h9.442l0.818,2.764c0.063,0.212,0.257,0.35,0.469,0.35c0.046,0,0.093-0.006,0.139-0.021c0.259-0.076,0.406-0.348,0.329-0.606
			l-0.923-3.118c0-0.001-0.001-0.003-0.001-0.004l-2.031-6.859c0-0.001-0.001-0.002-0.002-0.004l-0.661-2.233
			c2.315-1.429,3.951-3.741,4.512-6.403C20.818,11.113,20.648,10.854,20.385,10.799L20.385,10.799z M6.229,27.024
			c0,1.447-1.178,2.625-2.625,2.625s-2.625-1.178-2.625-2.625s1.178-2.625,2.625-2.625S6.229,25.577,6.229,27.024L6.229,27.024z
			 M6.291,19.673l0.482-1.629h8.536l0.481,1.629H6.291z M6.291,19.673"/>
		<path id="XMLID_81_" fill="#FFFFFF" d="M1.955,27.024c0,0.271,0.219,0.489,0.49,0.489c0.269,0,0.488-0.219,0.488-0.489
			c0-0.369,0.3-0.67,0.67-0.67c0.369,0,0.67,0.301,0.67,0.67s-0.301,0.67-0.67,0.67c-0.271,0-0.489,0.22-0.489,0.489
			s0.219,0.488,0.489,0.488c0.908,0,1.646-0.739,1.646-1.647s-0.738-1.647-1.646-1.647S1.955,26.116,1.955,27.024L1.955,27.024z
			 M1.955,27.024"/>
	</g>
</g>
</svg>
