<svg xmlns="http://www.w3.org/2000/svg" width="50" height="50" viewBox="0 0 50 50">
  <metadata><?xpacket begin="﻿" id="W5M0MpCehiHzreSzNTczkc9d"?>
<x:xmpmeta xmlns:x="adobe:ns:meta/" x:xmptk="Adobe XMP Core 5.6-c142 79.160924, 2017/07/13-01:06:39        ">
   <rdf:RDF xmlns:rdf="http://www.w3.org/1999/02/22-rdf-syntax-ns#">
      <rdf:Description rdf:about=""/>
   </rdf:RDF>
</x:xmpmeta>
                                                                                                    
                                                                                                    
                                                                                                    
                                                                                                    
                                                                                                    
                                                                                                    
                                                                                                    
                                                                                                    
                                                                                                    
                                                                                                    
                                                                                                    
                                                                                                    
                                                                                                    
                                                                                                    
                                                                                                    
                                                                                                    
                                                                                                    
                                                                                                    
                                                                                                    
                                                                                                    
                           
<?xpacket end="w"?></metadata>
<defs>
    <style>
      .cls-1 {
        fill: #fff;
        fill-rule: evenodd;
      }
    </style>
  </defs>
  <path class="cls-1" d="M4,39S24.949,21.933,23,10a5.07,5.07,0,0,0-1-2s-7.361,7.518-11,17a14.229,14.229,0,0,1-2-7s0.906-5.6,7-10c0,0-8.172-1.347-14,8C2,16,1.119,2.634,16,2c0,0,4.381-.2,9,4a12.336,12.336,0,0,1,9-4s9.537-.085,11,16a22.827,22.827,0,0,0-6-6,17.633,17.633,0,0,1-4,16s1.76-14.629-8-20c0,0-.949,18.658-13,31H4Zm3-1h7S25.744,23.6,26,7c0,0,9.67,1.8,10,17,0,0,4.756-5.115,1-13,0,0,1.172-1.913,6,3,0,0-1.715-16.1-16-9L25,7S13.251-4.766,3,12c0,0,9.738-7.842,15-5,0,0-10.668,7.887-7,15,0,0,5.483-10.549,11-15C22,7,32.1,14.175,7,38Z"/>
  <path class="cls-1" d="M23,40s4.7,0.872,6,0c0,0,1.924-1.334,6,0,0,0,3.193,1.187,5,0,0,0,6.057-2.069,9,0v1a10.893,10.893,0,0,0-9,0s-0.672,1.137-5,0c0,0-3.523-1.594-6,0a12.654,12.654,0,0,1-5,0s6.859,4.269,8,8H31s-5.233-7.183-11-9H1V39H20A7.125,7.125,0,0,1,23,40Z"/>
</svg>
