<?xml version="1.0" encoding="iso-8859-1"?>
<!-- Generator: Adobe Illustrator 19.0.0, SVG Export Plug-In . SVG Version: 6.00 Build 0)  -->
<svg version="1.1" id="Layer_1" xmlns="http://www.w3.org/2000/svg" xmlns:xlink="http://www.w3.org/1999/xlink" x="0px" y="0px"
	 viewBox="-767 482.46 32 40" style="enable-background:new -767 482.46 32 40;" xml:space="preserve">
<title>daylicons</title>
<path style="fill:#FFFFFF;" d="M-746,503.61c-0.162,0.025-0.327-0.031-0.44-0.15l-1.59-2c-0.171-0.218-0.133-0.534,0.085-0.705
	s0.534-0.133,0.705,0.085l1.59,2c0.152,0.231,0.088,0.541-0.143,0.692C-745.855,503.573-745.926,503.6-746,503.61z"/>
<path style="fill:#FFFFFF;" d="M-743.52,506.8c-0.152-0.001-0.296-0.071-0.39-0.19l-0.94-1.15c-0.19-0.201-0.18-0.517,0.02-0.707
	c0.201-0.19,0.517-0.18,0.707,0.02c0.019,0.021,0.037,0.043,0.053,0.066l0.93,1.18c0.155,0.228,0.096,0.539-0.132,0.695
	C-743.346,506.765-743.431,506.794-743.52,506.8z"/>
<path style="fill:#FFFFFF;" d="M-748.7,505.11c-0.176,0.001-0.339-0.09-0.43-0.24l-1.15-1.92c-0.169-0.218-0.13-0.532,0.088-0.702
	c0.218-0.169,0.532-0.13,0.702,0.088c0.029,0.038,0.053,0.079,0.071,0.124l1.15,1.92c0.144,0.236,0.07,0.543-0.166,0.687
	c-0.001,0.001-0.003,0.002-0.004,0.003C-748.522,505.106-748.611,505.12-748.7,505.11z"/>
<path style="fill:#FFFFFF;" d="M-746.77,508.32c-0.175,0.001-0.339-0.09-0.43-0.24l-0.8-1.29c-0.137-0.24-0.053-0.545,0.187-0.682
	c0.234-0.133,0.532-0.057,0.673,0.172l0.77,1.29c0.144,0.236,0.07,0.543-0.166,0.687c-0.001,0.001-0.003,0.002-0.004,0.003
	C-746.611,508.299-746.69,508.319-746.77,508.32z"/>
<path style="fill:#FFFFFF;" d="M-742,499.52c-0.113-0.001-0.222-0.039-0.31-0.11l-2-1.59c-0.23-0.153-0.292-0.463-0.14-0.693
	c0.153-0.23,0.463-0.292,0.693-0.14c0.024,0.016,0.046,0.033,0.066,0.053l2,1.59c0.215,0.173,0.25,0.487,0.077,0.703
	C-741.707,499.45-741.849,499.519-742,499.52z"/>
<path style="fill:#FFFFFF;" d="M-738.76,502.04c-0.113-0.001-0.222-0.039-0.31-0.11l-1.18-0.93
	c-0.218-0.171-0.256-0.487-0.085-0.705c0.171-0.218,0.487-0.256,0.705-0.085l0,0l1.18,0.93c0.221,0.166,0.266,0.479,0.1,0.7
	C-738.446,501.969-738.599,502.043-738.76,502.04z"/>
<path style="fill:#FFFFFF;" d="M-740.08,496.54c-0.092-0.002-0.182-0.03-0.26-0.08l-1.92-1.15c-0.253-0.11-0.37-0.404-0.26-0.657
	c0.11-0.253,0.404-0.37,0.657-0.26c0.041,0.018,0.079,0.04,0.113,0.068l1.92,1.15c0.237,0.141,0.316,0.448,0.175,0.685
	C-739.744,496.445-739.905,496.538-740.08,496.54z"/>
<path style="fill:#FFFFFF;" d="M-736.87,498.46c-0.091,0.001-0.182-0.023-0.26-0.07l-1.29-0.77c-0.24-0.137-0.324-0.442-0.187-0.682
	c0.137-0.24,0.442-0.324,0.682-0.187c0.005,0.003,0.01,0.006,0.015,0.009l1.29,0.77c0.237,0.141,0.316,0.448,0.175,0.685
	C-736.534,498.365-736.695,498.458-736.87,498.46z"/>
<path style="fill:#FFFFFF;" d="M-743.44,502.09c-0.132-0.002-0.258-0.056-0.35-0.15l-2.09-2.08c-0.196-0.196-0.196-0.514,0-0.71
	c0.196-0.196,0.514-0.196,0.71,0l2.09,2.08c0.199,0.192,0.205,0.508,0.013,0.707C-743.164,502.038-743.3,502.094-743.44,502.09z"/>
<path style="fill:#FFFFFF;" d="M-740.28,505.22c-0.132-0.002-0.258-0.056-0.35-0.15l-1.07-1.05
	c-0.181-0.208-0.159-0.524,0.049-0.705c0.186-0.162,0.462-0.164,0.651-0.005l1.06,1.06c0.193,0.197,0.191,0.514-0.007,0.707
	C-740.036,505.165-740.155,505.216-740.28,505.22z"/>
<path style="fill:#FFFFFF;" d="M-743.67,493.31l-0.77-0.46l2.13-2.13l-0.35-0.36c-2.44-2.415-6.077-3.16-9.27-1.9
	c-0.692-0.621-1.614-0.923-2.54-0.83c-0.825-2.263-2.992-3.755-5.4-3.72c-3.178,0.016-5.749,2.592-5.76,5.77v23.37h3v-23.37
	c0.026-1.441,1.215-2.589,2.656-2.563c0.031,0.001,0.063,0.002,0.094,0.003c1.39-0.032,2.569,1.015,2.7,2.4
	c-0.52,1.155-0.338,2.505,0.47,3.48c-1.443,3.269-0.732,7.089,1.79,9.62l0.35,0.35l2.68-2.68l0.44,0.74
	c0.091,0.15,0.255,0.241,0.43,0.24c0.091,0,0.181-0.024,0.26-0.07c0.247-0.124,0.346-0.425,0.222-0.671
	c-0.012-0.024-0.026-0.047-0.042-0.069l-0.57-1l0.92-0.92l0.6,0.76c0.171,0.218,0.487,0.256,0.705,0.085s0.256-0.487,0.085-0.705
	l-0.67-0.85l0.83-0.83l0.68,0.79c0.196,0.196,0.514,0.196,0.71,0c0.196-0.196,0.196-0.514,0-0.71l0,0l-0.71-0.7l0.83-0.83l0.85,0.68
	c0.213,0.179,0.531,0.153,0.71-0.06c0.18-0.213,0.153-0.531-0.06-0.71l0,0l-0.76-0.6l1.26-1.26l1,0.59
	c0.243,0.138,0.552,0.053,0.69-0.19S-743.427,493.448-743.67,493.31z M-759.88,486.12c-1.975-0.094-3.652,1.431-3.746,3.406
	c-0.002,0.051-0.004,0.103-0.004,0.154v22.37h-1v-22.37c-0.011-2.638,2.112-4.788,4.75-4.81c1.959-0.026,3.727,1.171,4.43,3
	c-0.329,0.143-0.633,0.339-0.9,0.58C-756.84,486.71-758.15,486.12-759.88,486.12z M-755.8,489.24c0.749-0.733,1.894-0.876,2.8-0.35
	c-1.335,0.729-2.451,1.803-3.23,3.11C-756.715,491.087-756.54,489.963-755.8,489.24z M-754.55,501.54
	c-2.777-3.199-2.434-8.043,0.765-10.82c2.884-2.503,7.171-2.503,10.055,0L-754.55,501.54z"/>
</svg>
