<?xml version="1.0" encoding="utf-8"?>
<!-- Generator: Adobe Illustrator 19.0.0, SVG Export Plug-In . SVG Version: 6.00 Build 0)  -->
<svg version="1.1" id="Layer_1" xmlns="http://www.w3.org/2000/svg" xmlns:xlink="http://www.w3.org/1999/xlink" x="0px" y="0px"
	 viewBox="-747 490.4 72.5 62.1" style="enable-background:new -747 490.4 72.5 62.1;" xml:space="preserve">
<style type="text/css">
	.st0{fill:#FFFFFF;}
</style>
<path class="st0" d="M-711,528.7c-15.4,0-28.2-12.5-28.3-28c0-0.2,0.1-0.4,0.2-0.5c0.2-0.2,0.3-0.2,0.5-0.2h55.1
	c0.2,0,0.4,0.1,0.5,0.2c0.2,0.2,0.2,0.3,0.2,0.5C-682.8,516.2-695.5,528.7-711,528.7z M-737.7,501.8c0.7,14.3,12.5,25.4,26.7,25.4
	c14.3,0,26-11.2,26.8-25.4l0-0.3h-53.5L-737.7,501.8z"/>
<path class="st0" d="M-688.8,551.9c-0.3,0-0.6-0.1-0.7-0.4l-10.9-25c-0.2-0.4,0-0.8,0.4-1c0.1,0,0.2-0.1,0.3-0.1
	c0.3,0,0.6,0.2,0.7,0.4l10.9,25c0.2,0.4,0,0.8-0.4,1c0,0,0,0,0,0C-688.6,551.8-688.6,551.9-688.8,551.9L-688.8,551.9z"/>
<path class="st0" d="M-725.5,537.3c-0.1,0-0.1,0-0.3-0.1c-0.2-0.1-0.4-0.2-0.4-0.4c-0.1-0.2-0.1-0.4,0-0.6l4.1-10.4
	c0.1-0.3,0.4-0.5,0.7-0.5c0.1,0,0.2,0,0.2,0c0.4,0.2,0.6,0.6,0.5,1l-4.1,10.4C-725,537.3-725.4,537.3-725.5,537.3z"/>
<path class="st0" d="M-728.4,552.2c-4.7,0-8.4-3.8-8.4-8.5s3.8-8.5,8.4-8.5c4.7,0,8.5,3.8,8.5,8.5S-723.7,552.2-728.4,552.2z
	 M-728.4,536.8c-3.8,0-6.9,3.1-6.9,7s3.1,7,6.9,7c3.8,0,7-3.1,7-7S-724.5,536.8-728.4,536.8z"/>
<path class="st0" d="M-728.5,547.6c-2.1,0-3.8-1.7-3.8-3.8s1.7-3.9,3.8-3.9c2.1,0,3.9,1.7,3.9,3.9c0,1-0.3,1.9-1,2.6
	C-726.4,547.2-727.4,547.6-728.5,547.6z M-728.5,541.3c-1.3,0-2.3,1.1-2.3,2.3s1.1,2.4,2.3,2.4c1.3,0,2.4-1.1,2.4-2.4
	c0-0.6-0.1-1.1-0.5-1.6C-727.1,541.6-727.8,541.3-728.5,541.3z"/>
<path class="st0" d="M-720.6,544.5c-0.5,0-0.8-0.3-0.8-0.8s0.3-0.8,0.8-0.8h28.7c0.5,0,0.8,0.3,0.8,0.8s-0.4,0.8-0.8,0.8H-720.6z"/>
<path class="st0" d="M-741.8,505.5c-1.5,0-2.8-1.2-2.8-2.8s1.2-2.8,2.8-2.8h3.6c0.5,0,0.8,0.3,0.8,0.8s-0.3,0.8-0.8,0.8h-3.6
	c-0.6,0-1.2,0.5-1.2,1.2c0,0.6,0.5,1.2,1.2,1.2h3.6c0.5,0,0.8,0.3,0.8,0.8c0,0.4-0.4,0.8-0.8,0.8H-741.8z"/>
<path class="st0" d="M-683.3,505.5c-0.5,0-0.8-0.3-0.8-0.8s0.3-0.8,0.8-0.8h3.6c0.6,0,1.2-0.5,1.2-1.2c0-0.6-0.5-1.2-1.2-1.2h-3.6
	c-0.5,0-0.8-0.3-0.8-0.8s0.3-0.8,0.8-0.8h3.6c1.5,0,2.8,1.2,2.8,2.8s-1.2,2.8-2.8,2.8H-683.3z"/>
<path class="st0" d="M-719.5,513.9c-0.3,0-0.5-0.1-0.7-0.4c-0.2-0.4-0.1-0.8,0.3-1l8.6-4.7c0.1-0.1,0.2-0.1,0.4-0.1
	c0.3,0,0.5,0.2,0.7,0.4c0.2,0.4,0.1,0.8-0.3,1.1l-8.6,4.7C-719.3,513.9-719.4,513.9-719.5,513.9z"/>
<path class="st0" d="M-716.9,517.4c-0.3,0-0.5-0.1-0.7-0.4c-0.1-0.2-0.1-0.4-0.1-0.6c0.1-0.2,0.2-0.4,0.4-0.5l13.1-7.1
	c0.1-0.1,0.2-0.1,0.4-0.1c0.3,0,0.5,0.2,0.7,0.4c0.2,0.4,0.1,0.8-0.3,1.1l-13.1,7.1C-716.6,517.4-716.8,517.4-716.9,517.4z"/>
<path class="st0" d="M-710.5,518.8c-0.3,0-0.5-0.1-0.7-0.4c-0.2-0.4-0.1-0.8,0.3-1l7.2-3.9c0.1-0.1,0.3-0.1,0.4-0.1
	c0.3,0,0.5,0.2,0.7,0.4c0.1,0.2,0.1,0.4,0.1,0.6s-0.2,0.4-0.4,0.5l-7.1,3.9c-0.1,0-0.2,0-0.3,0.1
	C-710.4,518.8-710.4,518.8-710.5,518.8z"/>
</svg>
