<?xml version="1.0" encoding="utf-8"?>
<!-- Generator: Adobe Illustrator 16.0.0, SVG Export Plug-In . SVG Version: 6.00 Build 0)  -->
<!DOCTYPE svg PUBLIC "-//W3C//DTD SVG 1.1//EN" "http://www.w3.org/Graphics/SVG/1.1/DTD/svg11.dtd">
<svg version="1.1" id="Layer_1" xmlns="http://www.w3.org/2000/svg" xmlns:xlink="http://www.w3.org/1999/xlink" x="0px" y="0px"
	 width="33.941px" height="33.941px" viewBox="0 0 33.941 33.941" enable-background="new 0 0 33.941 33.941" xml:space="preserve">
<circle id="XMLID_1256_" fill="none" stroke="#FFFFFF" stroke-miterlimit="10" cx="16.971" cy="16.971" r="16.471"/>
<g id="XMLID_17996_">
	<g>
		<path id="XMLID_86_" fill="#FFFFFF" d="M25.218,23.134h-1.484V10.809h1.484c0.145,0,0.261-0.117,0.261-0.261
			c0-0.145-0.116-0.261-0.261-0.261h-1.536V8.75c0-0.144-0.115-0.261-0.26-0.261S23.16,8.606,23.16,8.75v1.537H10.863V8.75
			c0-0.144-0.117-0.261-0.261-0.261s-0.261,0.117-0.261,0.261v1.537H8.805c-0.144,0-0.26,0.116-0.26,0.261
			c0,0.144,0.116,0.261,0.26,0.261h1.537v12.325H8.805c-0.144,0-0.26,0.116-0.26,0.261c0,0.144,0.116,0.261,0.26,0.261h1.537v1.535
			c0,0.145,0.117,0.261,0.261,0.261s0.261-0.116,0.261-0.261v-1.513H23.16v1.513c0,0.145,0.117,0.261,0.262,0.261
			s0.26-0.116,0.26-0.261v-1.535h1.536c0.145,0,0.261-0.117,0.261-0.261C25.479,23.25,25.362,23.134,25.218,23.134L25.218,23.134z
			 M14.834,23.145h-3.971v-4h3.971V23.145z M14.834,18.971h-3.971v-3.988h3.971V18.971z M14.834,14.797h-3.971v-3.988h3.971V14.797z
			 M19.008,23.145h-4v-4h4V23.145z M19.008,18.971h-4v-3.988h4V18.971z M19.008,14.797h-4v-3.988h4V14.797z M23.182,23.145h-4v-4h4
			V23.145z M23.182,18.971h-4v-3.988h4V18.971z M23.182,14.797h-4v-3.988h4V14.797z M22.867,18.612"/>
	</g>
</g>
</svg>
