<?xml version="1.0" encoding="utf-8"?>
<!-- Generator: Adobe Illustrator 16.0.0, SVG Export Plug-In . SVG Version: 6.00 Build 0)  -->
<!DOCTYPE svg PUBLIC "-//W3C//DTD SVG 1.1//EN" "http://www.w3.org/Graphics/SVG/1.1/DTD/svg11.dtd">
<svg version="1.1" id="Layer_1" xmlns="http://www.w3.org/2000/svg" xmlns:xlink="http://www.w3.org/1999/xlink" x="0px" y="0px"
	 width="33.941px" height="33.941px" viewBox="0 0 33.941 33.941" enable-background="new 0 0 33.941 33.941" xml:space="preserve">
<circle id="XMLID_9_" fill="none" stroke="#FFFFFF" stroke-miterlimit="10" cx="16.971" cy="16.971" r="16.471"/>
<path id="XMLID_100_" fill="#FFFFFF" d="M26.576,18.746c0.002-0.012,0.007-0.021,0.007-0.033c0-0.023-0.002-0.049-0.007-0.07
	c-0.023-1.915-1.016-3.037-2.463-3.697v-1.014c0-1.973-1.463-3.149-3.911-3.149c-1.835,0-3.114,0.66-3.642,1.82
	c-0.6-0.981-1.813-1.536-3.491-1.536c-2.447,0-3.909,1.178-3.909,3.149v0.925C8.053,15.83,7.35,16.935,7.35,18.713v3.686
	c0,0.38,0.311,0.69,0.691,0.69h0.914c0.38,0,0.689-0.311,0.689-0.69v-1.636h14.637v1.636c0,0.38,0.31,0.69,0.689,0.69h0.915
	c0.381,0,0.69-0.311,0.69-0.69V18.746z M8.041,20.074v-1.016h17.845v1.014H8.041V20.074z M16.981,13.932
	c0-2.22,2.252-2.459,3.221-2.459c0.968,0,3.22,0.239,3.22,2.459v0.744c-1.893-0.633-4.334-0.669-6.451-0.67
	c-0.001-0.007-0.001-0.014-0.001-0.021C16.973,13.967,16.981,13.951,16.981,13.932L16.981,13.932z M9.85,14.218
	c0-2.222,2.253-2.461,3.222-2.461c0.935,0,3.065,0.229,3.206,2.249c-2.287,0.001-4.69,0.038-6.428,0.781V14.218z M16.613,14.696
	c2.475,0,5.137,0.002,6.971,0.742c0.033,0.022,0.068,0.037,0.111,0.046c1.23,0.528,2.068,1.409,2.179,2.883H8.051
	C8.268,14.966,11.752,14.696,16.613,14.696L16.613,14.696z M8.041,22.399v-1.635h0.914v1.635H8.041z M24.971,22.399v-1.635h0.915
	l0.002,1.635H24.971z M24.971,22.399"/>
</svg>
