<?xml version="1.0" encoding="utf-8"?>
<!-- Generator: Adobe Illustrator 16.0.0, SVG Export Plug-In . SVG Version: 6.00 Build 0)  -->
<!DOCTYPE svg PUBLIC "-//W3C//DTD SVG 1.1//EN" "http://www.w3.org/Graphics/SVG/1.1/DTD/svg11.dtd">
<svg version="1.1" id="Layer_1" xmlns="http://www.w3.org/2000/svg" xmlns:xlink="http://www.w3.org/1999/xlink" x="0px" y="0px"
	 width="35.099px" height="27.955px" viewBox="0 0 35.099 27.955" enable-background="new 0 0 35.099 27.955" xml:space="preserve">
<g id="XMLID_17968_">
	<g>
		<path id="XMLID_132_" fill="#FFFFFF" d="M24.692,23.628h-1.099c-0.284,0-0.515,0.23-0.515,0.515c0,0.285,0.23,0.516,0.515,0.516
			h1.099c0.284,0,0.516-0.23,0.516-0.516C25.208,23.858,24.977,23.628,24.692,23.628L24.692,23.628z M24.692,23.628"/>
		<path id="XMLID_122_" fill="#FFFFFF" d="M33.484,12.089h-2.782v-1.253c0.639-0.215,1.1-0.819,1.1-1.529
			c0-0.837-0.641-1.527-1.459-1.606c-2.109-1.812-6.361-3.04-11.18-3.267V3.229h0.035c0.89,0,1.613-0.725,1.613-1.614
			C20.812,0.724,20.088,0,19.198,0h-3.297c-0.891,0-1.615,0.724-1.615,1.614c0,0.89,0.725,1.614,1.615,1.614h0.033v1.205
			C11.116,4.66,6.864,5.889,4.755,7.7C3.938,7.779,3.297,8.47,3.297,9.307c0,0.71,0.461,1.314,1.099,1.529v1.253H1.614
			C0.724,12.089,0,12.813,0,13.703c0,0.89,0.724,1.613,1.614,1.613h1.099c0.928,0,1.683,0.756,1.683,1.684v7.143
			c0,2.103,1.711,3.813,3.813,3.813h18.683c2.103,0,3.812-1.71,3.812-3.813V17c0-0.928,0.756-1.684,1.684-1.684h1.099
			c0.89,0,1.614-0.724,1.614-1.613C35.099,12.813,34.374,12.089,33.484,12.089L33.484,12.089z M17.549,5.426
			c4.456,0,8.539,0.864,10.988,2.268H6.562C9.011,6.29,13.094,5.426,17.549,5.426L17.549,5.426z M15.317,1.614
			c0-0.322,0.262-0.584,0.584-0.584h3.297c0.321,0,0.583,0.262,0.583,0.584s-0.262,0.584-0.583,0.584h-3.297
			C15.579,2.198,15.317,1.937,15.317,1.614L15.317,1.614z M16.966,3.229h1.167V4.4c-0.194-0.003-0.388-0.005-0.584-0.005
			c-0.194,0-0.39,0.002-0.583,0.005V3.229z M4.911,8.724h25.277c0.32,0,0.582,0.262,0.582,0.583c0,0.322-0.262,0.584-0.582,0.584
			H4.911c-0.322,0-0.584-0.262-0.584-0.584C4.327,8.985,4.589,8.724,4.911,8.724L4.911,8.724z M2.713,14.286H1.614
			c-0.322,0-0.584-0.262-0.584-0.583c0-0.322,0.262-0.584,0.584-0.584h2.781v1.755C3.933,14.507,3.349,14.286,2.713,14.286
			L2.713,14.286z M26.891,26.925H8.208c-1.357,0-2.49-0.978-2.732-2.267h15.92c0.285,0,0.516-0.23,0.516-0.516
			c0-0.284-0.23-0.515-0.516-0.515H5.426V10.921h24.247v12.707h-2.782c-0.285,0-0.515,0.23-0.515,0.515
			c0,0.285,0.229,0.516,0.515,0.516h2.733C29.382,25.947,28.249,26.925,26.891,26.925L26.891,26.925z M33.484,14.286h-1.099
			c-0.636,0-1.221,0.221-1.684,0.588v-1.755h2.782c0.321,0,0.584,0.262,0.584,0.584C34.068,14.024,33.806,14.286,33.484,14.286
			L33.484,14.286z M33.484,14.286"/>
		<path id="XMLID_119_" fill="#FFFFFF" d="M27.989,14.218c0.285,0,0.516-0.23,0.516-0.515v-1.1c0-0.284-0.23-0.515-0.516-0.515
			c-0.284,0-0.516,0.23-0.516,0.515v1.1C27.474,13.987,27.705,14.218,27.989,14.218L27.989,14.218z M27.989,14.218"/>
		<path id="XMLID_116_" fill="#FFFFFF" d="M27.989,20.263c0.285,0,0.516-0.231,0.516-0.516V15.9c0-0.284-0.23-0.515-0.516-0.515
			c-0.284,0-0.516,0.23-0.516,0.515v3.847C27.474,20.031,27.705,20.263,27.989,20.263L27.989,20.263z M27.989,20.263"/>
	</g>
</g>
</svg>
