<?xml version="1.0" encoding="utf-8"?>
<!-- Generator: Adobe Illustrator 19.0.0, SVG Export Plug-In . SVG Version: 6.00 Build 0)  -->
<svg version="1.1" id="Layer_1" xmlns="http://www.w3.org/2000/svg" xmlns:xlink="http://www.w3.org/1999/xlink" x="0px" y="0px"
	 viewBox="0 0 85 85" style="enable-background:new 0 0 85 85;" xml:space="preserve">
<style type="text/css">
	.st0{fill:#FFFFFF;}
</style>
<path class="st0" d="M66.1,57.2c-0.7-9.3-8.6-16.8-18.1-16.8c-4.6,0-8.7,1.7-11.9,4.5l0.9,2.5c2.8-2.8,6.7-4.6,11-4.6
	c8.2,0,15,6.4,15.7,14.3H40.5l-3.6-9.8L36,44.9l-3.6-9.8l17.1-6.4l-0.4-1.1c-1.8-4.9-5.4-8.8-10.1-10.9c-4.7-2.2-10-2.4-14.9-0.6
	c-4.9,1.8-8.8,5.4-10.9,10.2c-2.2,4.7-2.4,10-0.6,14.9l0.4,1.1l17.1-6.4l4,10.8c-2.4,2.8-4,6.4-4.3,10.4H3v2.4h78v-2.4H66.1z
	 M30.8,17.3c2.4,0,4.8,0.5,7.1,1.6c3.8,1.7,6.7,4.7,8.4,8.4l-5.8,2.1c-2.9-7.2-6.7-10.6-9.9-12.2C30.7,17.3,30.7,17.3,30.8,17.3
	L30.8,17.3z M14.4,39.1c-1.2-3.9-0.9-8.1,0.9-11.9c1.1-2.4,2.7-4.4,4.6-6c-1.4,3.3-2.1,8.4,0.3,15.7L14.4,39.1z M22.5,36.2
	c-4-12.1,1.4-17,2.5-17.8c1.3-0.1,8.5,0.2,13.3,11.9L22.5,36.2z M32.2,57.2c0.3-2.8,1.3-5.4,2.9-7.7l2.8,7.7H32.2z M32.2,57.2"/>
<g>
	<rect x="20.1" y="63.2" class="st0" width="31.7" height="2.4"/>
	<rect x="55.5" y="63.2" class="st0" width="4.9" height="2.4"/>
	<path class="st0" d="M24,12.2l0.8,2.3l-2.3,0.8L21.7,13L24,12.2z M24,12.2"/>
</g>
</svg>
