<?xml version="1.0" encoding="utf-8"?>
<!-- Generator: Adobe Illustrator 16.0.0, SVG Export Plug-In . SVG Version: 6.00 Build 0)  -->
<!DOCTYPE svg PUBLIC "-//W3C//DTD SVG 1.1//EN" "http://www.w3.org/Graphics/SVG/1.1/DTD/svg11.dtd">
<svg version="1.1" id="Layer_1" xmlns="http://www.w3.org/2000/svg" xmlns:xlink="http://www.w3.org/1999/xlink" x="0px" y="0px"
	 width="33.94px" height="33.941px" viewBox="0 0 33.94 33.941" enable-background="new 0 0 33.94 33.941" xml:space="preserve">
<circle id="XMLID_41_" fill="none" stroke="#FFFFFF" stroke-miterlimit="10" cx="16.97" cy="16.971" r="16.47"/>
<path id="XMLID_86_" fill="#FFFFFF" d="M22.834,24.727c-0.082,0-0.158-0.032-0.215-0.089l-1.266-1.265h-7.471l-1.266,1.265
	c-0.057,0.057-0.133,0.089-0.214,0.089s-0.157-0.032-0.215-0.089c-0.058-0.058-0.089-0.134-0.089-0.215s0.031-0.156,0.089-0.214
	l0.806-0.806l-0.457-0.094c-1.429-0.293-2.465-1.565-2.465-3.025v-1.999l-0.161-0.063c-0.452-0.175-0.755-0.616-0.755-1.099
	c0-0.601,0.467-1.116,1.065-1.174l0.227-0.021v-4.885c0-1.009,0.82-1.829,1.829-1.829h0.254c0.492,0,0.973,0.205,1.316,0.561
	l0.146,0.153l0.176-0.12c0.267-0.183,0.578-0.279,0.904-0.279c0.429,0,0.832,0.167,1.135,0.471l0.245,0.245
	c0.058,0.057,0.089,0.134,0.089,0.214c0,0.081-0.031,0.157-0.089,0.215l-2.423,2.424c-0.058,0.057-0.134,0.088-0.215,0.088
	s-0.156-0.031-0.214-0.088l-0.246-0.246c-0.626-0.625-0.626-1.644,0-2.27l0.22-0.22L13.4,10.185
	c-0.229-0.231-0.545-0.363-0.87-0.363h-0.253c-0.674,0-1.223,0.548-1.223,1.222v4.901H24.9c0.65,0,1.18,0.529,1.18,1.18
	c0,0.481-0.303,0.924-0.754,1.099l-0.16,0.063v1.999c0,1.46-1.037,2.732-2.467,3.025l-0.457,0.094l0.805,0.806
	c0.058,0.058,0.09,0.133,0.09,0.214s-0.032,0.157-0.09,0.215C22.99,24.694,22.914,24.727,22.834,24.727z M10.678,20.283
	c0,1.369,1.113,2.483,2.482,2.483h8.916c1.369,0,2.482-1.114,2.482-2.483v-1.964H10.678V20.283z M10.336,16.551
	c-0.316,0-0.574,0.257-0.574,0.573s0.258,0.573,0.574,0.573H24.9c0.316,0,0.574-0.257,0.574-0.573s-0.258-0.573-0.574-0.573H10.336z
	 M15.074,10.136c-0.267,0-0.518,0.104-0.706,0.293l-0.583,0.582c-0.313,0.313-0.381,0.802-0.168,1.188l0.162,0.293l2.069-2.07
	l-0.291-0.161C15.412,10.179,15.244,10.136,15.074,10.136z"/>
</svg>
