<?xml version="1.0" encoding="utf-8"?>
<!-- Generator: Adobe Illustrator 19.0.0, SVG Export Plug-In . SVG Version: 6.00 Build 0)  -->
<svg version="1.1" id="Layer_1" xmlns="http://www.w3.org/2000/svg" xmlns:xlink="http://www.w3.org/1999/xlink" x="0px" y="0px"
	 viewBox="0 0 85 85" style="enable-background:new 0 0 85 85;" xml:space="preserve">
<style type="text/css">
	.st0{fill:#FFFFFF;}
	.st1{clip-path:url(#XMLID_2_);}
</style>
<g id="XMLID_467_">
	<g id="XMLID_430_">
		<path id="XMLID_431_" class="st0" d="M24.6,64.4c-1.1-1.1-3-1.1-4.1,0c-1.1,1.1-1.1,3,0,4.1c1.1,1.1,3,1.1,4.1,0
			S25.7,65.6,24.6,64.4z M21.6,67.5c-0.5-0.5-0.5-1.4,0-2c0.5-0.5,1.4-0.5,2,0c0.5,0.5,0.5,1.4,0,2C23,68,22.1,68,21.6,67.5z M62,35
			L62,35c4.1-5.7,8.3-12,11.9-18.7l1.2-2.2l-2.2,1.2C66,18.9,59.7,23,54.1,27.1h0l0,0c-10,7.3-18,14.8-22.7,19.6
			c-11,11.1-18.7,21.6-19.4,26.8c-0.2,1.3,0,2.3,0.7,3c0.7,0.7,1.7,0.9,3,0.7c5.2-0.8,15.7-8.4,26.8-19.4C47.2,53,54.6,45,62,35
			L62,35z M61.7,32.8l-0.3-3.4l2.6,0.2C63.3,30.6,62.5,31.7,61.7,32.8z M60.3,33.3l-2.4-2.1l-2.1-2.4l4,0.4L60.3,33.3z M61.1,24.9
			l2.2,0.9l0.9,2.2l-2.9-0.2L61.1,24.9z M71.3,17.8c-1.8,3.3-3.8,6.4-5.8,9.5l-0.9-2.3l-0.4-0.4l-2.4-0.9
			C64.8,21.6,68,19.6,71.3,17.8z M59.6,25.1l0.2,2.6l-3.4-0.3C57.4,26.6,58.5,25.8,59.6,25.1z M41.3,56.7
			C30.6,67.3,20.2,75,15.4,75.7c-0.6,0.1-1.3,0.1-1.7-0.3c-0.4-0.4-0.4-1.2-0.3-1.7c0.7-4.8,8.4-15.2,19-25.9
			C37,43.2,44.5,36.1,54,29.1l2.8,3.2l0.1,0.1l3.2,2.8C53,44.6,45.9,52.1,41.3,56.7z M52.4,37.1l-0.1-0.3L52,36.7
			c-2.5-0.9-9.7,1.5-21,16c-1.7,2.2-2.3,3.8-0.3,5.8l0,0c2,2,3.6,1.4,5.8-0.3C50.9,46.8,53.3,39.6,52.4,37.1z M35.5,56.9
			c-2.1,1.7-2.7,1.4-3.8,0.4l0,0c-1-1-1.3-1.6,0.4-3.8C42.5,40.3,49,37.9,51.1,38C51.2,40.1,48.8,46.6,35.5,56.9z M29.2,59.9
			c-0.3-0.3-0.7-0.8-1.1-1.3c-0.4-0.5-0.8-1-1.2-1.5c-0.1,0.7,0,1.4,0.2,2c0.2,0.7,0.5,1.3,1.1,1.9c0.6,0.6,1.2,0.8,1.9,1
			c0.7,0.2,1.3,0.3,2,0.2c-0.5-0.5-1-0.9-1.5-1.2C30.1,60.6,29.6,60.2,29.2,59.9z M19.5,69.6c-0.3-0.3-0.8-0.3-1.1,0l-2,2
			c-0.3,0.3-0.3,0.8,0,1.1s0.8,0.3,1.1,0l2-2C19.8,70.4,19.8,69.9,19.5,69.6z"/>
	</g>
	<g id="XMLID_324_">
		<defs>
			<polygon id="XMLID_353_" points="7.8,26 16.9,10 26.7,12.1 41.9,31.5 32.5,40.7 49,56.3 57,47.6 78.6,70.9 71.4,79.2 			"/>
		</defs>
		<clipPath id="XMLID_2_">
			<use xlink:href="#XMLID_353_"  style="overflow:visible;"/>
		</clipPath>
		<g id="XMLID_427_" class="st1">
			<path id="XMLID_429_" class="st0" d="M21.3,12.2l-5.6,3.9l-0.2,0.2l-3.9,5.6l0.1,1L23,33.1l0.4,0.2l8.2,1.6l37.9,37.9
				c-0.9,1-0.9,2.2-0.1,3.1c1,1,2.5,1,3.5,0l2.4-2.4c1-1,1-2.5,0-3.5c-0.9-0.9-2.1-0.8-3.1,0.1L34.3,32.2L32.7,24l-0.2-0.4
				L22.4,12.3L21.3,12.2z"/>
			<polygon id="XMLID_428_" class="st0" points="31.2,24.5 32.6,31.7 32.4,31.8 20.3,19.8 19.2,20.9 31.3,33 31.1,33.1 23.9,31.7 
				13.3,22.2 16.7,17.3 21.7,13.9 			"/>
		</g>
	</g>
</g>
</svg>
