<?xml version="1.0" encoding="utf-8"?>
<!-- Generator: Adobe Illustrator 16.0.0, SVG Export Plug-In . SVG Version: 6.00 Build 0)  -->
<!DOCTYPE svg PUBLIC "-//W3C//DTD SVG 1.1//EN" "http://www.w3.org/Graphics/SVG/1.1/DTD/svg11.dtd">
<svg version="1.1" id="Layer_1" xmlns="http://www.w3.org/2000/svg" xmlns:xlink="http://www.w3.org/1999/xlink" x="0px" y="0px"
	 width="74.842px" height="74.842px" viewBox="0 0 74.842 74.842" enable-background="new 0 0 74.842 74.842" xml:space="preserve">
<path fill="#FFFFFF" fill-opacity="0.1" d="M74.842,46.849V27.994C71.383,14.276,60.565,3.457,46.849,0H27.993
	C14.276,3.457,3.458,14.276,0,27.994v18.854c3.458,13.717,14.276,24.535,27.993,27.992h18.855
	C60.565,71.385,71.383,60.565,74.842,46.849z M73.642,36.221C54.606,35.598,39.243,20.236,38.622,1.2
	C57.657,1.824,73.019,17.185,73.642,36.221z M36.221,1.2C35.599,20.236,20.236,35.598,1.2,36.221
	C1.823,17.185,17.185,1.824,36.221,1.2z M1.2,38.621c19.036,0.623,34.398,15.983,35.021,35.021
	C17.185,73.019,1.823,57.657,1.2,38.621z M9.427,37.421c13.719-3.457,24.536-14.276,27.994-27.993
	c3.458,13.717,14.275,24.536,27.994,27.993C51.696,40.878,40.88,51.697,37.421,65.414C33.963,51.697,23.146,40.878,9.427,37.421z
	 M73.642,38.621c-0.623,19.036-15.983,34.396-35.021,35.021C39.243,54.604,54.606,39.244,73.642,38.621z"/>
<path fill="#FFFFFF" fill-opacity="0.1" d="M1.17,60.81H0v5.849c1.543,3.688,4.499,6.643,8.187,8.186h5.846v-1.17
	C6.94,73.672,1.17,67.901,1.17,60.81z"/>
<path fill="#FFFFFF" fill-opacity="0.1" d="M74.842,66.656v-5.849h-1.17c0,7.094-5.771,12.862-12.862,12.862v1.17h5.847
	C70.342,73.299,73.299,70.344,74.842,66.656z"/>
<path fill="#FFFFFF" fill-opacity="0.1" d="M14.032,1.17V0H8.187C4.499,1.543,1.543,4.498,0,8.186v5.848h1.17
	C1.17,6.94,6.94,1.17,14.032,1.17z"/>
<path fill="#FFFFFF" fill-opacity="0.1" d="M66.655,0H60.81v1.17c7.092,0,12.862,5.771,12.862,12.863h1.17V8.186
	C73.299,4.498,70.342,1.543,66.655,0z"/>
<path fill="#FFFFFF" fill-opacity="0.1" d="M51.454,36.252c-7.094,0-12.863-5.771-12.863-12.863h-2.338
	c0,7.092-5.771,12.863-12.864,12.863v2.338c7.094,0,12.864,5.771,12.864,12.863h2.338c0-7.093,5.77-12.863,12.863-12.863V36.252z
	 M37.421,45.606c-1.543-3.688-4.498-6.645-8.186-8.188c3.688-1.543,6.643-4.498,8.186-8.186c1.542,3.688,4.498,6.643,8.186,8.186
	C41.918,38.964,38.963,41.919,37.421,45.606z"/>
</svg>
