<?xml version="1.0" encoding="utf-8"?>
<!-- Generator: Adobe Illustrator 16.0.0, SVG Export Plug-In . SVG Version: 6.00 Build 0)  -->
<!DOCTYPE svg PUBLIC "-//W3C//DTD SVG 1.1//EN" "http://www.w3.org/Graphics/SVG/1.1/DTD/svg11.dtd">
<svg version="1.1" id="Layer_1" xmlns="http://www.w3.org/2000/svg" xmlns:xlink="http://www.w3.org/1999/xlink" x="0px" y="0px"
	 width="116.332px" height="45.368px" viewBox="0 0 116.332 45.368" enable-background="new 0 0 116.332 45.368"
	 xml:space="preserve">
<g id="XMLID_15_">
	<g>
		<g id="XMLID_318_">
			<g id="XMLID_319_">
				<g id="XMLID_320_">
					<path id="XMLID_327_" fill="#FFFFFF" d="M9.671,5.066C9.848,4.671,9.593,4.837,9.671,5.066L9.671,5.066z"/>
					<path id="XMLID_326_" fill="#FFFFFF" d="M61.727,5.277c0.918-0.338,1.806-1.06,2.322-2.047c0.284-0.542,1.45-2.124,1.487-2.695
						c0.07-1.025-2.015-0.299-2.423-0.088c-1.166,0.595-1.389,1.062-1.977,2.281c-0.376,0.787-0.719,1.042-1.103,1.807
						C59.561,5.475,61.292,5.436,61.727,5.277"/>
					<path id="XMLID_321_" fill="#FFFFFF" d="M116.33,24.971c0.007-0.025-0.074-0.168-0.314-0.266
						c-0.201-0.092-0.486-0.149-0.793-0.149c-0.05,0-0.099,0-0.146,0.005c-0.246,0.014-0.498,0.063-0.729,0.157l-0.053,0.023
						c-4.218,1.807-9.02,2.823-13.694,3.091c-0.846,0.049-1.688,0.074-2.521,0.074c-0.372,0-0.741-0.006-1.104-0.015
						c-2.591-0.069-5.611-0.584-7.403-2.79c-0.571-0.708-0.837-1.533-0.884-2.388c-0.006-0.104-0.01-0.207-0.01-0.312
						c0-0.513,0.069-1.036,0.189-1.548l0.021-0.075l0.02-0.024c1.139-1.682,1.968-3.465,2.312-5.217
						c0.01-0.038,0.011-0.073,0.011-0.104v-0.028c-0.003-0.053-0.013-0.081-0.029-0.106l-0.127-0.226l0.078-0.053l0.133-0.092
						c0.235-0.17,0.379-0.356,0.41-0.498c0.116-0.468,0.17-0.889,0.17-1.264c0-0.074-0.004-0.151-0.007-0.221
						c-0.13-2.301-2.446-3.022-5.041-3.027c-0.273,0-0.548,0.006-0.821,0.025c-1.098,0.063-2.18,0.24-3.04,0.456
						c-4.954,1.207-11.029,4.408-13.212,9.266c-0.027,0.043-0.053,0.092-0.07,0.148c-0.005,0.018-0.012,0.035-0.018,0.053
						c-0.086,0.203-0.167,0.407-0.239,0.615c-0.069,0.201-0.131,0.403-0.186,0.607c-2.903,7.664-8.349,8.394-11.612,4.685
						c-0.88-1-1.152-2.244-1.529-3.713c-0.73-4.547,1.929-7.997,2.28-8.558c0.382-0.612,1.359-1.022,1.689-1.953
						c0.333-0.939-0.726-2.018-1.942-2.225c-1.18-0.204-1.546,1.145-1.546,1.145c-0.69,2.444-1.89,5.232-2.942,7.459
						c-1.332,1.811-3.425,4.493-7.707,7.826c-3,2.333-7.158,4.403-9.745,1.979c-1.16-1.092-0.943-1.889-0.763-3.609
						c0.404-3.849,2.539-7.895,3.844-11.677c0.893-2.589,2.218-6.484-0.075-7.943c-2.609-1.662-6.568,1.045-9.687,3.909
						c-0.554-0.291-1.229-0.5-2.078-0.59c-4.598-0.503-9.529,2.307-13.631,5.32c0.321-1.679,0.314-4.971-0.148-6.552
						c-0.524-1.791-1.777-3.048-3.659-2.582C7.503,4.625,6.588,6.873,6.064,9.424C5.982,9.829,8.236,9.426,8.393,8.66
						c0.24-1.172,0.523-2.264,1.152-3.346c0.058-0.101,0.097-0.179,0.126-0.248c-0.078-0.229,0.177-0.395,0,0
						c0.024,0.07,0.073,0.145,0.183,0.212c0.278,0.169,0.489,0.455,0.695,0.715c1.074,1.369,1.198,5.282,0.93,7.308
						c-0.086,0.652-0.241,1.306-0.433,1.961c-4.44,3.607-9.832,8.924-11.04,14.658c-0.129,0.608,1.888-0.168,2.102-0.342
						c3.966-3.231,9.373-8.852,11.249-14.743c3.841-3.274,8.92-6.748,13.058-5.61c0.613,0.169,1.051,0.468,1.373,0.849
						c-0.881,0.896-1.634,1.731-2.186,2.359c-2.667,3.034-5.072,6.242-7.088,9.645c-1.202,2.03-2.947,5.075-2.506,7.358
						c0.112,0.583,1.598,0.051,1.93-0.102c4.614-2.055,16.275-15.254,12.667-20.01c1.9-1.999,4.776-4.716,6.316-3.307
						c2.135,1.96-0.881,8.145-1.837,10.677c-1.168,3.094-2.85,6.72-2.563,9.866c0.309,3.373,4.26,4.311,7.181,3.831
						c3.764-0.62,9.008-3.095,14.299-9.47c-0.071,0.954-0.045,1.64,0.047,2.125c-0.005,0.004-0.01,0.007-0.015,0.011
						c0.34,2.343,2.187,4.356,3.86,5.439c3.764,2.435,8.539,0.834,11.288-3.078c0.257,1.017,0.707,1.985,1.368,2.845
						c0.874,1.139,2.246,1.517,3.714,1.517c0.173,0,0.347-0.005,0.52-0.016c0.955-0.054,1.919-0.251,2.749-0.47
						c2.711-0.713,5.628-2.465,8.082-4.734l0.341-0.315l0.047,0.159l0.081,0.291c0.107,0.375,0.248,0.738,0.444,1.096
						c1.27,2.379,4.51,3.146,7.104,3.463c1.287,0.163,2.609,0.236,3.946,0.236c0.705,0,1.413-0.021,2.124-0.058
						c5.447-0.315,11.069-1.79,15.838-3.841c0.646-0.265,0.807-0.553,0.792-0.598c0,0,0,0,0-0.021L116.33,24.971z M2.909,27.223
						c1.437-3.581,4.413-6.801,7.168-9.42C8.401,21.346,5.599,24.645,2.909,27.223z M25.907,19.212
						c-1.813,3.053-4.497,6.563-7.421,8.614c0.09-2.229,1.712-4.824,2.825-6.69c1.981-3.332,4.429-6.51,7.099-9.453
						C28.637,14.001,27.063,17.266,25.907,19.212z M88.393,16.105c-0.862,1.474-1.791,3.204-2.242,4.954l-0.1-0.024l0.099,0.026
						l-0.023,0.063l-0.021,0.031c-1.838,2.566-4.463,4.701-6.98,6.097c-0.954,0.53-1.842,0.802-2.656,0.85
						c-0.089,0.002-0.172,0.005-0.256,0.007c-2.628-0.005-4.203-2.377-4.361-5.118c-0.008-0.159-0.014-0.315-0.014-0.474
						c0-0.751,0.102-1.531,0.315-2.303c1.173-4.24,5.891-6.884,9.613-8.165c0.903-0.305,2.063-0.577,3.189-0.644
						c0.16-0.008,0.318-0.014,0.477-0.014c1.71-0.006,3.385,0.574,3.5,2.47c0.005,0.064,0.007,0.131,0.007,0.201
						c0,0.34-0.049,0.718-0.149,1.141c-0.011,0.029-0.012,0.05-0.012,0.068h-0.041l0.042,0.01c0.004,0.043,0.006,0.048,0.038,0.089
						l0.225,0.253l-0.102,0.064l-0.187,0.116C88.558,15.92,88.413,16.062,88.393,16.105z"/>
				</g>
			</g>
		</g>
		<g id="XMLID_238_">
			<path id="XMLID_272_" fill="#FFFFFF" d="M6.247,38.78h1.929c1.402,0,1.759,0.844,1.759,1.533c0,0.697-0.519,1.355-1.348,1.449
				l1.557,2.502h-0.93l-1.395-2.417H6.99v2.417H6.247V38.78z M6.99,41.197h0.977c0.589,0,1.178-0.14,1.178-0.884
				c0-0.743-0.589-0.883-1.178-0.883H6.99V41.197z"/>
			<path id="XMLID_270_" fill="#FFFFFF" d="M12.143,38.78h3.54v0.697h-2.797v1.635h2.603v0.697h-2.603v1.758h2.937v0.697h-3.68
				V38.78z"/>
			<path id="XMLID_268_" fill="#FFFFFF" d="M18.2,43.118c0.264,0.402,0.721,0.588,1.162,0.588c0.487,0,1.093-0.31,1.093-0.913
				c0-1.263-2.704-0.48-2.704-2.618c0-0.644,0.542-1.534,1.859-1.534c0.597,0,1.169,0.124,1.58,0.628l-0.604,0.549
				c-0.186-0.286-0.55-0.479-0.976-0.479c-0.821,0-1.069,0.495-1.069,0.837c0,1.387,2.703,0.558,2.703,2.533
				c0,1.061-0.852,1.695-1.905,1.695c-0.705,0-1.379-0.239-1.751-0.759L18.2,43.118z"/>
			<path id="XMLID_265_" fill="#FFFFFF" d="M23.166,41.522c0-1.627,1.186-2.882,2.858-2.882s2.858,1.255,2.858,2.882
				s-1.186,2.881-2.858,2.881S23.166,43.149,23.166,41.522z M28.093,41.522c0-1.201-0.813-2.185-2.068-2.185
				s-2.068,0.983-2.068,2.185s0.813,2.184,2.068,2.184S28.093,42.723,28.093,41.522z"/>
			<path id="XMLID_262_" fill="#FFFFFF" d="M31.113,38.78h1.93c1.402,0,1.758,0.844,1.758,1.533c0,0.697-0.519,1.355-1.348,1.449
				l1.558,2.502h-0.93l-1.395-2.417h-0.829v2.417h-0.744V38.78z M31.857,41.197h0.977c0.588,0,1.177-0.14,1.177-0.884
				c0-0.743-0.589-0.883-1.177-0.883h-0.977V41.197z"/>
			<path id="XMLID_260_" fill="#FFFFFF" d="M38.155,39.477H36.39V38.78h4.276v0.697h-1.767v4.787h-0.744V39.477z"/>
			<path id="XMLID_258_" fill="#FFFFFF" d="M46.39,37.622v7.746h-0.604v-7.746H46.39z"/>
			<path id="XMLID_256_" fill="#FFFFFF" d="M52.131,38.78h0.976l3.021,4.508h0.015V38.78h0.744v5.484h-0.945l-3.052-4.508h-0.016
				v4.508h-0.743V38.78z"/>
			<path id="XMLID_254_" fill="#FFFFFF" d="M59.459,38.78h0.743v2.277h2.844V38.78h0.743v5.484h-0.743v-2.51h-2.844v2.51h-0.743
				V38.78z"/>
			<path id="XMLID_251_" fill="#FFFFFF" d="M68.081,38.78h0.673l2.348,5.484h-0.867l-0.55-1.355h-2.611l-0.542,1.355h-0.867
				L68.081,38.78z M69.414,42.258l-1.023-2.518h-0.016l-1.038,2.518H69.414z"/>
			<path id="XMLID_249_" fill="#FFFFFF" d="M77.438,39.477h-1.766V38.78h4.275v0.697h-1.766v4.787h-0.744V39.477z"/>
			<path id="XMLID_246_" fill="#FFFFFF" d="M81.9,38.78h1.93c1.401,0,1.758,0.844,1.758,1.533c0,0.697-0.519,1.355-1.348,1.449
				l1.557,2.502h-0.929l-1.396-2.417h-0.828v2.417H81.9V38.78z M82.645,41.197h0.976c0.589,0,1.178-0.14,1.178-0.884
				c0-0.743-0.589-0.883-1.178-0.883h-0.976V41.197z"/>
			<path id="XMLID_243_" fill="#FFFFFF" d="M89.516,38.78h0.674l2.348,5.484h-0.868l-0.55-1.355h-2.61l-0.543,1.355h-0.867
				L89.516,38.78z M90.849,42.258l-1.023-2.518h-0.015l-1.039,2.518H90.849z"/>
			<path id="XMLID_241_" fill="#FFFFFF" d="M94.411,38.78h0.977l3.021,4.508h0.016V38.78h0.743v5.484h-0.945l-3.052-4.508h-0.016
				v4.508h-0.744V38.78z"/>
			<path id="XMLID_239_" fill="#FFFFFF" d="M106.411,41.197v2.704c-0.534,0.324-1.409,0.502-2.076,0.502
				c-1.859,0-2.937-1.324-2.937-2.881c0-1.627,1.186-2.882,2.859-2.882c1.007,0,1.619,0.271,2.045,0.713l-0.527,0.565
				c-0.449-0.434-0.968-0.581-1.518-0.581c-1.255,0-2.068,0.983-2.068,2.185c0,1.239,0.922,2.184,2.13,2.184
				c0.52,0,1.016-0.1,1.349-0.285v-1.527h-1.217v-0.696H106.411z"/>
		</g>
	</g>
</g>
</svg>
