<?xml version="1.0" encoding="utf-8"?>
<!-- Generator: Adobe Illustrator 16.0.0, SVG Export Plug-In . SVG Version: 6.00 Build 0)  -->
<!DOCTYPE svg PUBLIC "-//W3C//DTD SVG 1.1//EN" "http://www.w3.org/Graphics/SVG/1.1/DTD/svg11.dtd">
<svg version="1.1" id="Layer_1" xmlns="http://www.w3.org/2000/svg" xmlns:xlink="http://www.w3.org/1999/xlink" x="0px" y="0px"
	 width="136.983px" height="71.822px" viewBox="0 0 136.983 71.822" enable-background="new 0 0 136.983 71.822"
	 xml:space="preserve">
<g id="XMLID_114_">
	<g>
		<path id="XMLID_791_" fill="#FFFFFF" d="M11.097,68.617c-0.02,0.138-0.068,0.265-0.156,0.383
			c-0.049,0.088-0.099,0.167-0.157,0.245c-0.049,0.099-0.059,0.196-0.029,0.304c0.029,0.078,0.049,0.157,0.088,0.226
			c0.196,0.344,0.354,0.696,0.511,1.069c0.009,0.039,0.029,0.088,0.049,0.117c0.137,0.128,0.146,0.305,0.205,0.461
			c0.021,0.02,0.021,0.06,0.021,0.088c-0.011,0.275-0.157,0.373-0.412,0.275c-0.099-0.039-0.157-0.099-0.226-0.177
			c-0.177-0.216-0.295-0.451-0.402-0.696c-0.127-0.294-0.255-0.598-0.393-0.893c-0.02-0.049-0.039-0.098-0.068-0.146
			c-0.088-0.196-0.255-0.313-0.48-0.324c-0.206-0.02-0.393-0.01-0.578,0.02c-0.196,0.029-0.285,0.118-0.314,0.295
			c-0.029,0.216-0.068,0.431-0.059,0.646c0.01,0.118-0.01,0.236-0.01,0.354c0,0.127,0,0.245,0.02,0.373
			c0.02,0.156-0.059,0.273-0.127,0.392c-0.069,0.089-0.177,0.089-0.285,0.079c-0.215-0.05-0.313-0.187-0.304-0.402
			c0-0.059,0.01-0.108,0.029-0.157c0.02-0.079,0.03-0.138,0-0.216c-0.02-0.039-0.02-0.078-0.02-0.117
			c0.02-0.147,0.01-0.305,0.05-0.451c0.009-0.039,0.009-0.098,0-0.138c-0.079-0.146-0.05-0.284-0.03-0.432
			c0.01-0.029,0.02-0.049,0.02-0.078c-0.01-0.138-0.029-0.265,0-0.402c0.03-0.127,0.011-0.255,0-0.392c0-0.04,0-0.079,0.011-0.118
			c0.029-0.088,0.039-0.177,0-0.274c0.059-0.088,0.009-0.177,0-0.274c0-0.157,0.009-0.313,0.009-0.461c0-0.118,0-0.235,0-0.333
			c0-0.197,0.011-0.393,0-0.589c-0.009-0.128,0.03-0.274-0.009-0.412c-0.021-0.049-0.011-0.107,0-0.157
			c0.009-0.078,0.049-0.156,0.049-0.234c-0.01-0.157,0.068-0.216,0.195-0.246c0.089-0.02,0.167-0.049,0.245-0.068
			c0.05-0.01,0.099-0.02,0.138-0.02c0.107-0.02,0.216-0.039,0.323-0.039c0.245-0.01,0.491-0.02,0.735-0.02
			c0.217,0.01,0.432-0.01,0.628,0.117c0.01,0,0.029,0.01,0.039,0.01c0.294,0.059,0.462,0.275,0.608,0.52
			c0.127,0.217,0.196,0.461,0.187,0.717c-0.01,0.127,0,0.254,0,0.392C11.244,67.813,11.166,68.215,11.097,68.617z M9.116,68.823
			c0.255,0.01,0.5,0.01,0.755,0c0.128,0,0.245-0.039,0.354-0.098c0.068-0.04,0.117-0.099,0.146-0.167
			c0.049-0.137,0.099-0.284,0.079-0.441c-0.01-0.059,0-0.137,0-0.215c0.01-0.138,0.02-0.285,0.029-0.423c0-0.068,0-0.146,0.01-0.216
			c0.02-0.166,0.02-0.343-0.029-0.5c-0.029-0.137-0.099-0.235-0.227-0.284c-0.049-0.01-0.088-0.029-0.137-0.029
			c-0.226-0.039-0.461-0.078-0.696-0.069c-0.107,0-0.226,0.04-0.323-0.009c-0.02-0.01-0.049,0-0.068,0
			c-0.06,0.02-0.118,0.049-0.167,0.059c-0.138,0.049-0.206,0.147-0.216,0.284c-0.01,0.157,0,0.324,0,0.48
			c0,0.059,0.01,0.107,0.01,0.167c-0.049,0.362-0.02,0.726-0.01,1.089c0.01,0.127,0.039,0.244,0.156,0.343
			C8.891,68.804,9.009,68.823,9.116,68.823z"/>
		<path id="XMLID_789_" fill="#FFFFFF" d="M14.608,71.373c-0.02-0.127-0.05-0.235-0.04-0.373c0.01-0.098-0.01-0.195-0.029-0.304
			c-0.01-0.029-0.02-0.068-0.01-0.098c0.049-0.255-0.02-0.491,0.01-0.735c0.039-0.226,0.029-0.461,0.05-0.706
			c0.049-0.314-0.011-0.628,0-0.952c0.009-0.215-0.011-0.44,0.02-0.656c0-0.02,0.02-0.059,0.02-0.088
			c-0.039-0.197,0-0.383,0.01-0.579c0-0.039,0-0.099-0.029-0.147c-0.03-0.098-0.03-0.195-0.02-0.294
			c0.009-0.147,0.02-0.294,0.049-0.441c0.029-0.226,0.225-0.382,0.451-0.382c0.049,0,0.098,0.01,0.107,0.088
			c0.01,0.068,0.068,0.156,0.098,0.226c0.039,0.049,0.089,0.107,0.039,0.187c-0.01,0.02,0.01,0.049,0.02,0.088
			c0.011,0.02,0.03,0.068,0.011,0.078c-0.04,0.079-0.011,0.147-0.011,0.226c0,0.216,0,0.441,0.011,0.677
			c0,0.216,0.02,0.432,0.02,0.638c0.01,0.147,0.02,0.294,0.02,0.432c-0.01,0.461-0.01,0.912-0.01,1.372
			c0,0.207,0.01,0.412,0.01,0.618c0.01,0.314,0.01,0.638-0.05,0.961c-0.01,0.03-0.01,0.079-0.02,0.108
			c-0.039,0.216-0.146,0.372-0.382,0.402c0.029-0.049,0.049-0.079,0.088-0.118c-0.049-0.01-0.059,0.02-0.068,0.049
			c0,0.021-0.02,0.049-0.02,0.06C14.745,71.696,14.647,71.579,14.608,71.373z"/>
		<path id="XMLID_786_" fill="#FFFFFF" d="M18.589,69.765c0.206-0.099,0.393,0.01,0.441,0.245c0.01,0.098,0.02,0.196,0.029,0.295
			c0.01,0.059,0.029,0.117,0.05,0.166c0.009,0.059,0.029,0.089,0.098,0.098c0.02,0.01,0.049,0.05,0.078,0.069
			c0.285,0.382,0.834,0.549,1.275,0.372c0.177-0.068,0.333-0.156,0.461-0.293c0.177-0.196,0.196-0.433,0.146-0.668
			c-0.049-0.156-0.117-0.313-0.274-0.422c-0.216-0.176-0.422-0.362-0.627-0.539c-0.118-0.088-0.226-0.166-0.344-0.235
			c-0.284-0.157-0.539-0.343-0.805-0.529c-0.166-0.108-0.293-0.265-0.431-0.421l-0.01-0.011c-0.089-0.255-0.235-0.48-0.196-0.765
			c0.02-0.177,0.039-0.344,0.088-0.51c0.029-0.078,0.059-0.157,0.118-0.226c0.068-0.069,0.138-0.138,0.187-0.226
			c0-0.01,0.01-0.029,0.02-0.029c0.235-0.157,0.451-0.324,0.755-0.354c0.206-0.029,0.432-0.059,0.638-0.078
			c0.156-0.029,0.304-0.029,0.461,0.02c0.068,0.02,0.49,0.216,0.529,0.245c0.186,0.147,0.363,0.313,0.49,0.539
			c0.02,0.04,0.049,0.099,0.059,0.147c0.059,0.196,0.098,0.383,0.098,0.568c0,0.099-0.01,0.187-0.049,0.275
			c-0.059,0.117-0.146,0.176-0.274,0.166c-0.146-0.01-0.274-0.049-0.333-0.226c-0.01-0.049-0.029-0.107-0.049-0.166
			c-0.01-0.157-0.089-0.324-0.138-0.48c-0.059-0.167-0.187-0.275-0.333-0.354c-0.256-0.147-0.529-0.177-0.814-0.088
			c-0.265,0.078-0.529,0.206-0.706,0.441c-0.049,0.078-0.078,0.166-0.068,0.265c0.049,0.284,0.127,0.432,0.382,0.637
			c0.187,0.167,0.393,0.314,0.589,0.461c0.235,0.196,0.5,0.354,0.765,0.521c0.235,0.156,0.471,0.304,0.657,0.529
			c0.196,0.245,0.333,0.51,0.402,0.804c0.02,0.108,0,0.245-0.011,0.363c0,0.029-0.068,0.059-0.068,0.088
			c0.01,0.354-0.176,0.568-0.333,0.805c-0.108,0.146-0.265,0.234-0.432,0.294c-0.196,0.078-0.392,0.078-0.578,0.118
			c-0.265,0.029-0.521,0.009-0.785,0c-0.245-0.03-0.47-0.079-0.677-0.236c-0.156-0.059-0.265-0.186-0.382-0.294
			c-0.099-0.098-0.177-0.245-0.235-0.372c-0.088-0.266-0.128-0.55-0.068-0.854C18.442,69.863,18.511,69.813,18.589,69.765z
			 M18.746,69.932c0.01,0,0.01,0.01,0.02,0.01s0.02-0.01,0.029-0.01c-0.01-0.01-0.01-0.01-0.02-0.02
			C18.766,69.922,18.756,69.922,18.746,69.932z"/>
		<path id="XMLID_783_" fill="#FFFFFF" d="M27.474,71.167c-0.029,0.118-0.078,0.226-0.078,0.363c0,0.02-0.01,0.059-0.029,0.068
			c-0.274,0.196-0.627,0.138-0.735-0.187c0-0.02,0-0.049,0-0.088c0-0.305,0.029-0.607,0.029-0.912c0.01-0.088,0.02-0.196,0.02-0.305
			c0.029-0.304,0.039-0.598,0.06-0.901c0.039-0.363,0.039-0.716,0.039-1.069c0-0.343-0.021-0.666-0.039-1
			c-0.021-0.146-0.021-0.304-0.03-0.451c0-0.177-0.127-0.323-0.304-0.333c-0.167-0.021-0.344-0.021-0.5-0.03
			c-0.187,0-0.383,0-0.579,0.03c-0.157,0.01-0.304-0.021-0.432-0.108c-0.117-0.068-0.186-0.156-0.176-0.294
			c0.029-0.117,0.137-0.245,0.255-0.265c0.146-0.01,0.304-0.049,0.451-0.049c0.598,0.039,1.235,0,1.824,0
			c0.333,0,0.637,0.01,0.951,0.01c0.274,0,0.51,0,0.784,0c0.107,0,0.196,0,0.294,0.078c0.029,0.029,0.098,0.059,0.167,0.068
			c0.02,0.06,0.059,0.089,0.059,0.147c0.078,0.206-0.039,0.382-0.255,0.392c-0.157,0-0.305,0.021-0.441,0
			c-0.098-0.01-0.187,0-0.284,0c-0.118,0.021-0.206,0.021-0.323,0.021c-0.177-0.021-0.334,0.059-0.5,0.156
			c-0.069,0.04-0.108,0.099-0.157,0.177c-0.021,0.02,0,0.059,0,0.068c0,0.029,0.02,0.04,0.02,0.059
			c-0.05,0.402-0.05,0.834-0.079,1.246c0,0.265,0,0.539-0.01,0.805c0,0.186-0.039,0.382-0.029,0.549
			c0.039,0.226-0.01,0.461,0.029,0.716c0.039,0.127,0.01,0.265,0.01,0.393c0,0.146,0,0.265-0.01,0.392
			c0,0.068,0.01,0.147-0.059,0.187c0.02-0.039,0.02-0.079,0.029-0.128c-0.01,0-0.01,0-0.029,0c0,0.049,0,0.089,0,0.128
			C27.444,71.099,27.474,71.128,27.474,71.167z M29.004,65.686h-0.02c0,0.02,0,0.02,0.02,0.02c0,0,0,0,0.02,0
			C29.004,65.705,29.004,65.686,29.004,65.686z"/>
		<path id="XMLID_767_" fill="#FFFFFF" d="M36.192,66.822c0.029,0.188,0.107,0.373,0.068,0.569c-0.02,0.108,0.02,0.216,0.02,0.313
			c0,0.412,0,0.844-0.02,1.256c-0.01,0.284-0.029,0.578-0.049,0.853c-0.01,0.03-0.01,0.069-0.02,0.089
			c-0.088,0.088-0.088,0.205-0.099,0.323c-0.02,0.108-0.078,0.206-0.039,0.323c0,0-0.01,0.029-0.02,0.029
			c-0.068,0.01-0.059,0.079-0.059,0.118c0.02,0.128-0.029,0.226-0.099,0.323c-0.059,0.049-0.088,0.118-0.117,0.177
			c-0.029,0.05-0.059,0.099-0.098,0.128c-0.099,0.068-0.196,0.137-0.305,0.206c-0.098,0.059-0.206,0.098-0.304,0.147
			c-0.02,0.009-0.039,0.019-0.059,0.019c-0.196,0-0.373,0.05-0.55,0.021c-0.176-0.03-0.343-0.03-0.52-0.03
			c-0.226,0.01-0.422-0.049-0.627-0.078c-0.079-0.02-0.157-0.068-0.236-0.108c-0.078-0.059-0.166-0.117-0.244-0.186
			c-0.04-0.029-0.079-0.068-0.06-0.138c0.02-0.088-0.02-0.157-0.098-0.235c0,0.029-0.01,0.049-0.01,0.068
			c0.01,0.02,0.02,0.04,0.029,0.079c-0.029-0.021-0.049-0.021-0.06-0.039c-0.02-0.04-0.02-0.099-0.039-0.138
			c-0.059-0.147-0.068-0.294-0.068-0.451c0-0.137-0.01-0.294-0.01-0.441c0-0.137,0.01-0.265,0.01-0.402
			c0.02-0.284,0.01-0.559-0.029-0.823c0-0.029,0-0.059,0.01-0.089c0.02-0.176-0.01-0.362-0.01-0.539c0-0.215-0.02-0.432,0.02-0.646
			c0.029-0.147,0.02-0.285,0.029-0.422c0.01-0.304,0.118-0.559,0.314-0.795c0.127-0.137,0.265-0.244,0.432-0.333
			c0.117-0.059,0.225-0.137,0.362-0.177c0.118-0.039,0.235-0.049,0.353-0.107c0.029-0.01,0.079-0.02,0.108,0
			c0.128,0.039,0.255,0.02,0.382,0c0.334-0.039,0.638,0.049,0.922,0.196c0.089,0.039,0.167,0.117,0.236,0.187
			c0.156,0.146,0.313,0.304,0.431,0.5c0.02,0.049,0.02,0.098,0.04,0.146c-0.03,0.029-0.04,0.068,0,0.098c0,0.01,0,0.021,0,0.04
			c0,0,0,0.01,0.01,0.01c0-0.01,0.02-0.02,0.01-0.02c0-0.01-0.02-0.021-0.029-0.03c0-0.039,0-0.068,0-0.107
			C36.153,66.725,36.183,66.773,36.192,66.822z M32.573,68.274c0,0.078,0,0.147,0,0.226C32.612,68.372,32.612,68.372,32.573,68.274z
			 M32.593,69c-0.01,0.01-0.02,0.01-0.02,0.02s0.01,0.01,0.01,0.02c0.01-0.01,0.01-0.02,0.01-0.02C32.593,69.01,32.593,69,32.593,69
			z M32.76,66.686v-0.02l-0.01,0.02H32.76z M32.81,68.607c-0.03,0.069-0.03,0.069,0.01,0.157
			C32.829,68.695,32.878,68.656,32.81,68.607z M32.888,67.744c-0.01,0.011-0.02,0.021-0.02,0.03c0,0.009,0.02,0.02,0.029,0.029
			c0-0.01,0-0.021,0.01-0.029C32.897,67.765,32.897,67.755,32.888,67.744z M33.015,66.303c0.01,0,0.02,0.011,0.02,0.011
			c0.02-0.011,0.029-0.021,0.049-0.03c-0.01-0.01-0.02-0.01-0.029-0.029C33.044,66.273,33.034,66.283,33.015,66.303z M33.034,69.01
			l0.01,0.01v-0.01H33.034z M33.083,67.921c-0.01,0-0.02,0-0.02,0.01c0,0,0,0.011,0.01,0.011c0,0,0,0,0.01,0
			C33.083,67.931,33.083,67.931,33.083,67.921z M33.083,68.323c0-0.059,0-0.118,0-0.177c-0.01,0-0.01,0-0.02,0
			c0,0.059,0,0.118,0,0.177C33.073,68.323,33.073,68.323,33.083,68.323z M35.064,70.99v-0.01c-0.01-0.01-0.029-0.02-0.039-0.029
			c0.049-0.059,0.098-0.117,0.147-0.176c0.01-0.029,0-0.079,0-0.128c0.01-0.01,0.029-0.02,0.039-0.039
			c0.186-0.167,0.265-0.393,0.284-0.638c0.039-0.314,0.029-0.617,0.039-0.941c0.02-0.363,0.02-0.735,0.01-1.099
			c0-0.255-0.02-0.52-0.068-0.765c-0.04-0.186-0.128-0.383-0.255-0.539c-0.216-0.285-0.51-0.373-0.854-0.334
			c-0.049,0-0.098,0.021-0.146,0.029c-0.305,0.01-0.668,0.334-0.795,0.579c-0.01,0.029-0.02,0.059-0.039,0.079
			c-0.157,0.234-0.206,0.51-0.216,0.784c0,0.156,0,0.323,0,0.48c-0.01,0.098-0.01,0.206-0.01,0.304
			c0.01,0.314,0.01,0.638,0.02,0.961c0,0.324-0.01,0.647,0.108,0.961c0.049,0.128,0.078,0.265,0.195,0.354
			c0.147,0.117,0.305,0.226,0.51,0.226c0.06,0,0.118,0,0.157,0.059c0.02,0.02,0.049,0.029,0.079,0.029
			c0.205,0.039,0.411,0.039,0.598-0.098c0.059-0.04,0.117-0.099,0.196-0.089C35.016,70.98,35.025,70.99,35.064,70.99z
			 M33.829,66.038c-0.01,0-0.01-0.01-0.01-0.01c-0.02,0-0.029,0-0.039,0.01c0,0,0.01,0.011,0.02,0.021
			C33.81,66.049,33.819,66.049,33.829,66.038z M33.878,66.215c0,0,0.01,0,0.02,0c-0.01,0-0.01-0.01-0.01-0.01
			S33.878,66.205,33.878,66.215z M35.594,66.656v0.01c0.01,0,0.01,0,0.02,0c0,0,0-0.01,0-0.02
			C35.604,66.656,35.594,66.646,35.594,66.656z M35.613,67.52v0.02l0.011-0.01L35.613,67.52z"/>
		<path id="XMLID_764_" fill="#FFFFFF" d="M42.341,68.617c-0.02,0.138-0.068,0.265-0.157,0.383
			c-0.049,0.088-0.098,0.167-0.156,0.245c-0.05,0.099-0.06,0.196-0.029,0.304c0.029,0.078,0.049,0.157,0.088,0.226
			c0.196,0.344,0.353,0.696,0.51,1.069c0.01,0.039,0.029,0.088,0.049,0.117c0.138,0.128,0.147,0.305,0.206,0.461
			c0.02,0.02,0.02,0.06,0.02,0.088c-0.01,0.275-0.156,0.373-0.412,0.275c-0.098-0.039-0.156-0.099-0.225-0.177
			c-0.177-0.216-0.295-0.451-0.402-0.696c-0.128-0.294-0.255-0.598-0.393-0.893c-0.02-0.049-0.039-0.098-0.068-0.146
			c-0.088-0.196-0.255-0.313-0.48-0.324c-0.206-0.02-0.393-0.01-0.578,0.02c-0.197,0.029-0.285,0.118-0.314,0.295
			c-0.029,0.216-0.068,0.431-0.059,0.646c0.01,0.118-0.01,0.236-0.01,0.354c0,0.127,0,0.245,0.02,0.373
			c0.02,0.156-0.059,0.273-0.127,0.392c-0.069,0.089-0.177,0.089-0.285,0.079c-0.216-0.05-0.313-0.187-0.304-0.402
			c0-0.059,0.01-0.108,0.029-0.157c0.02-0.079,0.029-0.138,0-0.216c-0.02-0.039-0.02-0.078-0.02-0.117
			c0.02-0.147,0.01-0.305,0.049-0.451c0.01-0.039,0.01-0.098,0-0.138c-0.078-0.146-0.049-0.284-0.029-0.432
			c0.01-0.029,0.02-0.049,0.02-0.078c-0.01-0.138-0.029-0.265,0-0.402c0.029-0.127,0.01-0.255,0-0.392c0-0.04,0-0.079,0.01-0.118
			c0.029-0.088,0.039-0.177,0-0.274c0.059-0.088,0.01-0.177,0-0.274c0-0.157,0.01-0.313,0.01-0.461c0-0.118,0-0.235,0-0.333
			c0-0.197,0.01-0.393,0-0.589c-0.01-0.128,0.029-0.274-0.01-0.412c-0.02-0.049-0.01-0.107,0-0.157
			c0.01-0.078,0.049-0.156,0.049-0.234c-0.01-0.157,0.069-0.216,0.196-0.246c0.089-0.02,0.167-0.049,0.245-0.068
			c0.05-0.01,0.099-0.02,0.138-0.02c0.107-0.02,0.215-0.039,0.323-0.039c0.245-0.01,0.49-0.02,0.735-0.02
			c0.216,0.01,0.432-0.01,0.628,0.117c0.01,0,0.029,0.01,0.039,0.01c0.294,0.059,0.461,0.275,0.608,0.52
			c0.127,0.217,0.195,0.461,0.186,0.717c-0.01,0.127,0,0.254,0,0.392C42.488,67.813,42.409,68.215,42.341,68.617z M40.36,68.823
			c0.255,0.01,0.5,0.01,0.755,0c0.127,0,0.245-0.039,0.353-0.098c0.068-0.04,0.118-0.099,0.147-0.167
			c0.049-0.137,0.099-0.284,0.078-0.441c-0.01-0.059,0-0.137,0-0.215c0.01-0.138,0.021-0.285,0.029-0.423
			c0-0.068,0-0.146,0.011-0.216c0.02-0.166,0.02-0.343-0.03-0.5c-0.029-0.137-0.098-0.235-0.226-0.284
			c-0.049-0.01-0.088-0.029-0.137-0.029c-0.226-0.039-0.461-0.078-0.696-0.069c-0.108,0-0.226,0.04-0.324-0.009
			c-0.02-0.01-0.049,0-0.068,0c-0.059,0.02-0.118,0.049-0.167,0.059c-0.137,0.049-0.205,0.147-0.215,0.284
			c-0.01,0.157,0,0.324,0,0.48c0,0.059,0.01,0.107,0.01,0.167c-0.049,0.362-0.02,0.726-0.01,1.089
			c0.01,0.127,0.039,0.244,0.156,0.343C40.134,68.804,40.252,68.823,40.36,68.823z"/>
		<path id="XMLID_753_" fill="#FFFFFF" d="M46.597,68.372c0.02-0.049,0.04-0.098,0.06-0.146c0.187-0.314,0.284-0.667,0.421-1.001
			c0.05-0.117,0.089-0.244,0.128-0.362c0.108-0.313,0.255-0.599,0.402-0.883c0.068-0.138,0.166-0.255,0.265-0.372
			c0.078-0.099,0.235-0.108,0.343-0.04c0.079,0.04,0.128,0.108,0.167,0.177c0.127,0.275,0.226,0.549,0.284,0.844
			c0.02,0.078,0.02,0.176,0.099,0.234c0.039,0.04,0.059,0.099,0.039,0.147c-0.02,0.079,0.01,0.128,0.049,0.187
			s0.078,0.118,0.098,0.177c0.079,0.245,0.157,0.49,0.236,0.735c0.146,0.432,0.294,0.863,0.45,1.285c0,0.009,0,0.02,0,0.02
			c0.235,0.51,0.313,1.059,0.5,1.588c0.04,0.107,0.06,0.235,0.069,0.354c0.01,0.078-0.01,0.167-0.049,0.235
			c-0.079,0.167-0.334,0.167-0.451,0c-0.079-0.118-0.147-0.255-0.206-0.393c-0.039-0.107-0.069-0.216-0.099-0.333
			c-0.068-0.256-0.127-0.51-0.195-0.766c-0.079-0.245-0.295-0.451-0.599-0.441c-0.422,0.021-0.854,0.021-1.284,0.069
			c-0.324,0.029-0.54,0.226-0.717,0.471c-0.098,0.147-0.166,0.313-0.234,0.49c-0.089,0.245-0.197,0.49-0.314,0.726
			c-0.088,0.157-0.245,0.235-0.363,0.354c-0.049,0.049-0.156,0.02-0.205-0.04c-0.089-0.127-0.147-0.265-0.079-0.421
			c0.02-0.049,0.03-0.108,0.06-0.147c0.107-0.177,0.166-0.372,0.244-0.559c0.04-0.079,0.069-0.167,0.118-0.245
			c0.147-0.295,0.167-0.56,0.313-0.854C46.313,69.107,46.489,68.755,46.597,68.372z M46.185,70.48c0.011,0,0.021,0,0.03,0
			c0-0.029,0-0.068,0.01-0.098c0.02-0.049,0.049-0.099,0.078-0.157c-0.049-0.029-0.098-0.049-0.157-0.088
			c-0.029,0.177-0.205,0.274-0.166,0.461c0.01,0.039-0.01,0.078-0.029,0.107c-0.04,0.049-0.06,0.108-0.069,0.167
			c-0.01,0.049-0.049,0.098-0.088,0.167c0.069,0,0.117,0,0.167-0.011c0.029-0.049,0.039-0.107,0.059-0.146
			c0.029-0.049,0.078-0.078,0.107-0.107c-0.029-0.216-0.029-0.216,0.059-0.393C46.185,70.412,46.185,70.451,46.185,70.48z
			 M46.705,69.029c0,0-0.01,0.01-0.02,0.02c0,0,0.01,0.01,0.02,0.02c0-0.01,0.01-0.02,0.01-0.02
			C46.715,69.039,46.705,69.029,46.705,69.029z M47.009,68.383l0.01,0.009l0.01-0.009c0-0.011,0-0.011-0.01-0.021
			C47.019,68.372,47.009,68.372,47.009,68.383z M47.067,68.226c0,0.01-0.01,0.01-0.01,0.02c0,0,0.01,0.01,0.01,0.02
			c0.01-0.01,0.01-0.02,0.01-0.02C47.077,68.235,47.067,68.235,47.067,68.226z M47.106,67.421l-0.01,0.01c0,0.02,0,0.03,0.01,0.04
			c0.011-0.01,0.011-0.01,0.021-0.021C47.127,67.44,47.117,67.431,47.106,67.421z M47.146,68.01l0.01,0.02l0.01-0.02H47.146z
			 M48.715,68.666c-0.078-0.265-0.156-0.539-0.245-0.804c-0.107-0.284-0.195-0.569-0.274-0.863c-0.02-0.059-0.039-0.127-0.078-0.187
			c-0.069-0.088-0.167-0.078-0.216,0.021c-0.049,0.088-0.078,0.177-0.117,0.265c-0.06,0.127-0.118,0.245-0.177,0.373
			c-0.118,0.294-0.235,0.588-0.344,0.882c-0.049,0.118-0.059,0.255-0.078,0.383c-0.01,0.107,0.078,0.216,0.187,0.245
			c0.068,0.02,0.137,0.029,0.206,0.029c0.313,0.039,0.656,0.01,0.941-0.049C48.666,68.941,48.755,68.813,48.715,68.666z
			 M47.205,67.617c0,0,0-0.01-0.01-0.01c0,0.01,0,0.01-0.01,0.02c0.01,0,0.01,0,0.02,0.01
			C47.205,67.627,47.215,67.617,47.205,67.617z M48.156,66.381c0.02,0.03,0.049,0.06,0.098,0.021
			c-0.009-0.06-0.02-0.128-0.049-0.216C48.117,66.254,48.127,66.322,48.156,66.381z"/>
		<path id="XMLID_749_" fill="#FFFFFF" d="M56.639,69.607c0.039-0.343,0.05-0.676,0.029-1.02c-0.029-0.196-0.02-0.412,0.01-0.607
			c0.03-0.266-0.029-0.53-0.029-0.805c0-0.226-0.039-0.471,0.02-0.706c0-0.039,0-0.078,0-0.107c-0.059-0.274,0.04-0.501,0.196-0.716
			c0.157-0.029,0.334-0.039,0.48,0.098c-0.02,0.039-0.049,0.059-0.049,0.098c0,0.03,0,0.099,0.02,0.099
			c0.068,0.039,0.078,0.088,0.068,0.157c-0.02,0.146-0.029,0.294-0.029,0.451c-0.01,0.146-0.01,0.294,0,0.441
			c0.029,0.244,0.01,0.5,0.01,0.754c-0.01,0.06,0,0.128,0,0.207c0.02,0.137,0.029,0.284,0.02,0.411c-0.029,0.451,0,0.902,0.01,1.354
			c0,0.029,0,0.069,0.01,0.108c0.039,0.186,0.039,0.382-0.02,0.568c-0.029,0.068-0.029,0.137-0.02,0.195
			c0.029,0.147,0.039,0.295,0.039,0.452c0,0.187-0.02,0.392-0.078,0.568c-0.107,0.108-0.235,0.128-0.373,0.108
			c-0.117,0-0.205-0.049-0.244-0.157c-0.138-0.294-0.334-0.54-0.521-0.805c-0.226-0.323-0.411-0.667-0.598-1
			c-0.05-0.107-0.108-0.226-0.196-0.294c-0.02-0.01-0.029-0.02-0.029-0.039c-0.088-0.226-0.295-0.383-0.422-0.589
			c-0.137-0.187-0.294-0.372-0.451-0.559c-0.117-0.147-0.216-0.323-0.334-0.471c-0.078-0.089-0.146-0.167-0.225-0.245
			c-0.079-0.068-0.157-0.029-0.196,0.068c0,0.02-0.02,0.049-0.029,0.078c-0.039,0.285-0.069,0.599-0.039,0.883
			c0.009,0.138-0.011,0.245-0.011,0.363c-0.029,0.411-0.029,0.823,0,1.226c0,0.255,0,0.49,0,0.745c0,0.02,0,0.039,0,0.068
			c0.06,0.157,0,0.314,0,0.491c0.011,0.107,0,0.107-0.078,0.265c-0.039-0.01-0.098-0.029-0.137-0.039
			c-0.049,0-0.108,0.029-0.157,0.029c-0.196,0-0.304-0.108-0.343-0.305c-0.03-0.166-0.03-0.323-0.02-0.48c0-0.196,0-0.402,0-0.598
			c0.029-0.599,0.059-1.196,0.068-1.785c0.01-0.206,0-0.412,0.01-0.617c0-0.432,0.02-0.873,0.029-1.324c0-0.187-0.01-0.383,0-0.568
			c0.02-0.147,0.078-0.236,0.177-0.334c0.088-0.078,0.265-0.078,0.353,0c0.137,0.137,0.265,0.255,0.373,0.412
			c0.146,0.195,0.274,0.412,0.422,0.598c0.166,0.196,0.284,0.412,0.411,0.628c0.118,0.157,0.187,0.353,0.304,0.51
			c0.099,0.118,0.177,0.245,0.266,0.363c0.146,0.156,0.265,0.343,0.392,0.51c0.128,0.206,0.265,0.401,0.393,0.599
			c0.059,0.068,0.099,0.137,0.138,0.216c0.049,0.078,0.098,0.156,0.156,0.234c0.029,0.03,0.068,0.069,0.088,0.099
			C56.609,69.813,56.629,69.716,56.639,69.607z M56.747,68.617c0,0.01-0.02,0.01-0.02,0.029v0.01c0.02,0,0.02-0.01,0.02-0.01
			C56.747,68.627,56.747,68.627,56.747,68.617z M57.198,70.49c0,0.01,0,0.039,0.01,0.049h0.029c0-0.029,0-0.049,0-0.078
			C57.208,70.471,57.198,70.471,57.198,70.49z"/>
		<path id="XMLID_746_" fill="#FFFFFF" d="M63.092,71.167c-0.03,0.118-0.079,0.226-0.079,0.363c0,0.02-0.01,0.059-0.029,0.068
			c-0.274,0.196-0.627,0.138-0.735-0.187c0-0.02,0-0.049,0-0.088c0-0.305,0.029-0.607,0.029-0.912
			c0.01-0.088,0.021-0.196,0.021-0.305c0.029-0.304,0.039-0.598,0.059-0.901c0.039-0.363,0.039-0.716,0.039-1.069
			c0-0.343-0.02-0.666-0.039-1c-0.02-0.146-0.02-0.304-0.029-0.451c0-0.177-0.128-0.323-0.305-0.333
			c-0.166-0.021-0.343-0.021-0.5-0.03c-0.187,0-0.383,0-0.578,0.03c-0.157,0.01-0.305-0.021-0.432-0.108
			c-0.118-0.068-0.187-0.156-0.177-0.294c0.029-0.117,0.138-0.245,0.255-0.265c0.147-0.01,0.305-0.049,0.451-0.049
			c0.598,0.039,1.235,0,1.824,0c0.333,0,0.637,0.01,0.951,0.01c0.274,0,0.51,0,0.784,0c0.108,0,0.196,0,0.294,0.078
			c0.029,0.029,0.099,0.059,0.167,0.068c0.02,0.06,0.06,0.089,0.06,0.147c0.078,0.206-0.04,0.382-0.256,0.392
			c-0.156,0-0.304,0.021-0.441,0c-0.098-0.01-0.186,0-0.284,0c-0.118,0.021-0.206,0.021-0.323,0.021
			c-0.177-0.021-0.334,0.059-0.5,0.156c-0.069,0.04-0.108,0.099-0.157,0.177c-0.02,0.02,0,0.059,0,0.068
			c0,0.029,0.02,0.04,0.02,0.059c-0.049,0.402-0.049,0.834-0.078,1.246c0,0.265,0,0.539-0.01,0.805c0,0.186-0.039,0.382-0.03,0.549
			c0.04,0.226-0.009,0.461,0.03,0.716c0.039,0.127,0.01,0.265,0.01,0.393c0,0.146,0,0.265-0.01,0.392c0,0.068,0.01,0.147-0.06,0.187
			c0.021-0.039,0.021-0.079,0.029-0.128c-0.009,0-0.009,0-0.029,0c0,0.049,0,0.089,0,0.128
			C63.062,71.099,63.092,71.128,63.092,71.167z M64.621,65.686h-0.02c0,0.02,0,0.02,0.02,0.02c0,0,0,0,0.02,0
			C64.621,65.705,64.621,65.686,64.621,65.686z"/>
		<path id="XMLID_744_" fill="#FFFFFF" d="M71.868,66.098c-0.029,0.098-0.098,0.166-0.195,0.195
			c-0.147,0.049-0.295,0.049-0.451,0.049c-0.157-0.01-0.305-0.028-0.471-0.01c-0.02,0.01-0.039,0.01-0.06,0
			c-0.177-0.049-0.333-0.019-0.51-0.01c-0.088,0.01-0.167,0-0.255,0c-0.176,0-0.343-0.009-0.51-0.009
			c-0.078,0.009-0.147,0.028-0.216,0.059c-0.098,0.039-0.157,0.117-0.196,0.226c-0.098,0.265-0.137,0.539-0.137,0.823
			c0.01,0.079,0.02,0.157,0.029,0.235c0.02,0.127,0.039,0.246,0.049,0.373c0.01,0.098,0.068,0.156,0.157,0.196
			c0.216,0.098,0.45,0.127,0.677,0.117c0.225-0.01,0.431,0,0.646,0c0.078,0,0.138,0.02,0.187,0.099
			c0.078,0.107,0.078,0.205-0.01,0.313c-0.099,0.127-0.235,0.226-0.402,0.245c-0.167,0.029-0.353,0.029-0.529,0.039
			c-0.138,0.01-0.294,0-0.441,0.01c-0.187,0.01-0.274,0.078-0.323,0.274c-0.029,0.099-0.059,0.216-0.089,0.333
			c-0.029,0.108-0.029,0.197-0.02,0.305c0.011,0.029-0.01,0.068-0.01,0.107c0,0.06-0.01,0.128,0.021,0.167
			c0.068,0.079,0.049,0.167,0.039,0.245c-0.05,0.236,0.049,0.422,0.225,0.569c0.089,0.068,0.187,0.078,0.295,0.078
			c0.294,0.029,0.607,0.01,0.902,0c0.059,0,0.107,0,0.156,0c0.265,0.01,0.529,0.01,0.795,0c0.127,0,0.245,0,0.372,0.02
			c0.128,0.01,0.235,0.059,0.294,0.167c0.099,0.127,0.099,0.206,0.01,0.343c-0.02,0.029-0.039,0.06-0.059,0.079
			c-0.107-0.01-0.235-0.04-0.343-0.02c-0.373,0.039-0.735,0.02-1.099,0.01c-0.166,0-0.323,0.02-0.49,0.029
			c-0.127,0.01-0.265,0.02-0.393-0.01c-0.068-0.02-0.156,0.01-0.245,0.01c-0.029,0.01-0.059,0.029-0.078,0.029
			c-0.049,0-0.099,0-0.147-0.02c-0.195-0.069-0.401,0-0.588-0.108c-0.068-0.039-0.137-0.068-0.147-0.157
			c0-0.059-0.039-0.107-0.068-0.156s-0.059-0.088-0.069-0.138c-0.029-0.156-0.048-0.313-0.068-0.48c-0.01-0.059,0-0.117,0-0.187
			c0.021-0.313,0.039-0.637,0.06-0.951c0-0.127,0-0.244,0-0.372c0.009-0.313,0.009-0.638,0.009-0.951c0-0.079,0-0.147-0.048-0.216
			c-0.03-0.01-0.021-0.078-0.011-0.118c0.069-0.245,0.05-0.49,0.05-0.745c0-0.195,0-0.412,0.009-0.607
			c0.011-0.118,0.06-0.226,0.099-0.334c0.029-0.127,0.059-0.265,0.099-0.402c0.068-0.029,0.146-0.078,0.215-0.127
			c0.118-0.078,0.235-0.098,0.363-0.068c0.245,0.059,0.49,0.02,0.735,0.01c0.089-0.01,0.187-0.01,0.265,0.01
			c0.099,0.02,0.167,0.02,0.255,0c0.089-0.02,0.187-0.029,0.274-0.02c0.373,0.02,0.746,0,1.118-0.01
			c0.157-0.01,0.245,0.039,0.274,0.186c-0.01,0.011-0.029,0.02-0.029,0.039c0,0,0,0.021,0.01,0.03c0.01-0.01,0.02-0.02,0.02-0.02
			c0-0.03,0-0.039,0-0.06C71.957,65.9,71.888,65.999,71.868,66.098z"/>
		<path id="XMLID_742_" fill="#FFFFFF" d="M82.843,71.373c-0.02-0.127-0.05-0.235-0.04-0.373c0.01-0.098-0.01-0.195-0.029-0.304
			c-0.01-0.029-0.02-0.068-0.01-0.098c0.049-0.255-0.02-0.491,0.01-0.735c0.039-0.226,0.029-0.461,0.05-0.706
			c0.049-0.314-0.011-0.628,0-0.952c0.009-0.215-0.011-0.44,0.02-0.656c0-0.02,0.02-0.059,0.02-0.088
			c-0.039-0.197,0-0.383,0.01-0.579c0-0.039,0-0.099-0.029-0.147c-0.03-0.098-0.03-0.195-0.02-0.294
			c0.009-0.147,0.02-0.294,0.049-0.441c0.029-0.226,0.225-0.382,0.451-0.382c0.049,0,0.098,0.01,0.107,0.088
			c0.01,0.068,0.068,0.156,0.098,0.226c0.039,0.049,0.089,0.107,0.039,0.187c-0.01,0.02,0.011,0.049,0.02,0.088
			c0.011,0.02,0.03,0.068,0.011,0.078c-0.04,0.079-0.011,0.147-0.011,0.226c0,0.216,0,0.441,0.011,0.677
			c0,0.216,0.02,0.432,0.02,0.638c0.01,0.147,0.02,0.294,0.02,0.432c-0.01,0.461-0.01,0.912-0.01,1.372
			c0,0.207,0.01,0.412,0.01,0.618c0.01,0.314,0.01,0.638-0.05,0.961c-0.009,0.03-0.009,0.079-0.02,0.108
			c-0.039,0.216-0.146,0.372-0.382,0.402c0.029-0.049,0.049-0.079,0.088-0.118c-0.049-0.01-0.059,0.02-0.068,0.049
			c0,0.021-0.02,0.049-0.02,0.06C82.979,71.696,82.882,71.579,82.843,71.373z"/>
		<path id="XMLID_739_" fill="#FFFFFF" d="M89.354,71.167c-0.029,0.118-0.078,0.226-0.078,0.363c0,0.02-0.01,0.059-0.029,0.068
			c-0.274,0.196-0.628,0.138-0.735-0.187c0-0.02,0-0.049,0-0.088c0-0.305,0.029-0.607,0.029-0.912c0.01-0.088,0.02-0.196,0.02-0.305
			c0.029-0.304,0.039-0.598,0.059-0.901c0.039-0.363,0.039-0.716,0.039-1.069c0-0.343-0.02-0.666-0.039-1
			c-0.02-0.146-0.02-0.304-0.029-0.451c0-0.177-0.128-0.323-0.304-0.333c-0.167-0.021-0.344-0.021-0.501-0.03
			c-0.186,0-0.382,0-0.578,0.03c-0.156,0.01-0.304-0.021-0.432-0.108c-0.117-0.068-0.186-0.156-0.176-0.294
			c0.029-0.117,0.137-0.245,0.254-0.265c0.147-0.01,0.305-0.049,0.451-0.049c0.599,0.039,1.236,0,1.824,0
			c0.334,0,0.638,0.01,0.951,0.01c0.275,0,0.51,0,0.785,0c0.107,0,0.195,0,0.294,0.078c0.029,0.029,0.098,0.059,0.167,0.068
			c0.02,0.06,0.059,0.089,0.059,0.147c0.078,0.206-0.039,0.382-0.255,0.392c-0.157,0-0.304,0.021-0.441,0
			c-0.099-0.01-0.187,0-0.284,0c-0.118,0.021-0.206,0.021-0.324,0.021c-0.176-0.021-0.333,0.059-0.5,0.156
			c-0.068,0.04-0.107,0.099-0.156,0.177c-0.021,0.02,0,0.059,0,0.068c0,0.029,0.02,0.04,0.02,0.059
			c-0.049,0.402-0.049,0.834-0.079,1.246c0,0.265,0,0.539-0.01,0.805c0,0.186-0.039,0.382-0.029,0.549
			c0.039,0.226-0.01,0.461,0.029,0.716c0.04,0.127,0.01,0.265,0.01,0.393c0,0.146,0,0.265-0.01,0.392
			c0,0.068,0.01,0.147-0.059,0.187c0.02-0.039,0.02-0.079,0.029-0.128c-0.01,0-0.01,0-0.029,0c0,0.049,0,0.089,0,0.128
			C89.324,71.099,89.354,71.128,89.354,71.167z M90.884,65.686h-0.02c0,0.02,0,0.02,0.02,0.02c0,0,0,0,0.02,0
			C90.884,65.705,90.884,65.686,90.884,65.686z"/>
		<path id="XMLID_728_" fill="#FFFFFF" d="M94.208,68.372c0.02-0.049,0.039-0.098,0.059-0.146c0.187-0.314,0.285-0.667,0.422-1.001
			c0.049-0.117,0.088-0.244,0.127-0.362c0.108-0.313,0.256-0.599,0.402-0.883c0.069-0.138,0.167-0.255,0.265-0.372
			c0.079-0.099,0.235-0.108,0.344-0.04c0.079,0.04,0.128,0.108,0.167,0.177c0.127,0.275,0.225,0.549,0.284,0.844
			c0.02,0.078,0.02,0.176,0.098,0.234c0.039,0.04,0.06,0.099,0.039,0.147c-0.02,0.079,0.011,0.128,0.05,0.187
			s0.078,0.118,0.098,0.177c0.078,0.245,0.157,0.49,0.235,0.735c0.147,0.432,0.294,0.863,0.451,1.285c0,0.009,0,0.02,0,0.02
			c0.235,0.51,0.313,1.059,0.5,1.588c0.039,0.107,0.059,0.235,0.068,0.354c0.011,0.078-0.01,0.167-0.049,0.235
			c-0.078,0.167-0.333,0.167-0.451,0c-0.078-0.118-0.146-0.255-0.206-0.393c-0.039-0.107-0.068-0.216-0.098-0.333
			c-0.068-0.256-0.128-0.51-0.196-0.766c-0.078-0.245-0.294-0.451-0.599-0.441c-0.421,0.021-0.853,0.021-1.284,0.069
			c-0.323,0.029-0.539,0.226-0.716,0.471c-0.098,0.147-0.166,0.313-0.235,0.49c-0.088,0.245-0.196,0.49-0.313,0.726
			c-0.089,0.157-0.245,0.235-0.363,0.354c-0.049,0.049-0.156,0.02-0.206-0.04c-0.088-0.127-0.146-0.265-0.078-0.421
			c0.02-0.049,0.029-0.108,0.059-0.147c0.108-0.177,0.167-0.372,0.245-0.559c0.039-0.079,0.068-0.167,0.118-0.245
			c0.147-0.295,0.167-0.56,0.313-0.854C93.924,69.107,94.101,68.755,94.208,68.372z M93.796,70.48c0.01,0,0.02,0,0.029,0
			c0-0.029,0-0.068,0.01-0.098c0.02-0.049,0.05-0.099,0.079-0.157c-0.049-0.029-0.099-0.049-0.157-0.088
			c-0.029,0.177-0.206,0.274-0.166,0.461c0.009,0.039-0.011,0.078-0.03,0.107c-0.039,0.049-0.059,0.108-0.068,0.167
			c-0.01,0.049-0.049,0.098-0.088,0.167c0.068,0,0.117,0,0.166-0.011c0.029-0.049,0.04-0.107,0.06-0.146
			c0.029-0.049,0.078-0.078,0.107-0.107c-0.029-0.216-0.029-0.216,0.059-0.393C93.796,70.412,93.796,70.451,93.796,70.48z
			 M94.315,69.029c0,0-0.01,0.01-0.02,0.02c0,0,0.01,0.01,0.02,0.02c0-0.01,0.01-0.02,0.01-0.02
			C94.325,69.039,94.315,69.029,94.315,69.029z M94.62,68.383l0.01,0.009l0.01-0.009c0-0.011,0-0.011-0.01-0.021
			C94.63,68.372,94.62,68.372,94.62,68.383z M94.679,68.226c0,0.01-0.01,0.01-0.01,0.02c0,0,0.01,0.01,0.01,0.02
			c0.01-0.01,0.01-0.02,0.01-0.02C94.688,68.235,94.679,68.235,94.679,68.226z M94.718,67.421l-0.01,0.01c0,0.02,0,0.03,0.01,0.04
			c0.01-0.01,0.01-0.01,0.02-0.021C94.737,67.44,94.728,67.431,94.718,67.421z M94.757,68.01l0.01,0.02l0.01-0.02H94.757z
			 M96.326,68.666c-0.078-0.265-0.157-0.539-0.245-0.804c-0.107-0.284-0.196-0.569-0.274-0.863
			c-0.021-0.059-0.039-0.127-0.079-0.187c-0.068-0.088-0.166-0.078-0.215,0.021c-0.049,0.088-0.079,0.177-0.118,0.265
			c-0.059,0.127-0.117,0.245-0.177,0.373c-0.117,0.294-0.234,0.588-0.343,0.882c-0.049,0.118-0.06,0.255-0.079,0.383
			c-0.01,0.107,0.079,0.216,0.188,0.245c0.068,0.02,0.137,0.029,0.205,0.029c0.314,0.039,0.657,0.01,0.941-0.049
			C96.277,68.941,96.365,68.813,96.326,68.666z M94.815,67.617c0,0,0-0.01-0.01-0.01c0,0.01,0,0.01-0.01,0.02
			c0.01,0,0.01,0,0.02,0.01C94.815,67.627,94.826,67.617,94.815,67.617z M95.768,66.381c0.019,0.03,0.049,0.06,0.098,0.021
			c-0.01-0.06-0.02-0.128-0.049-0.216C95.728,66.254,95.737,66.322,95.768,66.381z"/>
		<path id="XMLID_725_" fill="#FFFFFF" d="M101.151,65.666c0.146,0.127,0.186,0.274,0.186,0.451c0,0.215,0.01,0.432,0.01,0.627
			c-0.01,0.236-0.02,0.471-0.02,0.706c0,0.079,0.01,0.147,0.02,0.216c0,0.049,0.011,0.089,0.011,0.138
			c0,0.529-0.011,1.069-0.011,1.599c0,0.343,0.011,0.686,0,1.029c-0.01,0.128,0.011,0.265,0.099,0.373
			c0.02,0.049,0.059,0.098,0.099,0.107c0.166,0.059,0.313,0.147,0.5,0.128c0.195-0.011,0.401-0.011,0.588-0.021
			c0.354-0.01,0.687-0.01,1.029-0.029c0.187,0,0.334,0.06,0.422,0.246c0,0.078-0.029,0.156-0.078,0.234
			c-0.069,0.108-0.157,0.187-0.284,0.216c-0.118,0.03-0.226,0.03-0.354,0.01c-0.039-0.01-0.078-0.019-0.117-0.019
			c-0.294,0.019-0.589,0.019-0.883,0.009c-0.255-0.009-0.51,0.021-0.765,0.021c-0.226,0-0.432-0.011-0.647-0.039
			c-0.128-0.021-0.206-0.118-0.255-0.227c-0.01-0.039-0.039-0.068-0.029-0.098c0.02-0.107-0.039-0.187-0.029-0.284
			c0-0.618,0-1.226,0.02-1.844c0-0.324,0-0.647,0-0.98c0-0.039-0.02-0.069-0.02-0.108c-0.01-0.059-0.02-0.117-0.01-0.176
			c0.068-0.344-0.039-0.677-0.03-1.03c0-0.068,0-0.147,0-0.235c0.011-0.157,0-0.323-0.049-0.48c-0.02-0.049-0.029-0.107-0.029-0.167
			c0-0.019,0.01-0.059,0.02-0.088c0.02-0.039,0.05-0.068,0.059-0.108c0.021-0.029,0.021-0.068,0.021-0.107
			c0.137-0.127,0.304-0.146,0.48-0.117C101.122,65.637,101.132,65.656,101.151,65.666z M101.259,66.205h-0.01l0.01,0.02V66.205z"/>
		<path id="XMLID_723_" fill="#FFFFFF" d="M107.064,71.373c-0.02-0.127-0.049-0.235-0.039-0.373c0.01-0.098-0.01-0.195-0.029-0.304
			c-0.011-0.029-0.021-0.068-0.011-0.098c0.05-0.255-0.019-0.491,0.011-0.735c0.039-0.226,0.029-0.461,0.049-0.706
			c0.049-0.314-0.01-0.628,0-0.952c0.01-0.215-0.01-0.44,0.02-0.656c0-0.02,0.02-0.059,0.02-0.088c-0.039-0.197,0-0.383,0.01-0.579
			c0-0.039,0-0.099-0.029-0.147c-0.029-0.098-0.029-0.195-0.02-0.294c0.01-0.147,0.02-0.294,0.049-0.441
			c0.029-0.226,0.226-0.382,0.451-0.382c0.049,0,0.099,0.01,0.107,0.088c0.011,0.068,0.069,0.156,0.099,0.226
			c0.039,0.049,0.088,0.107,0.039,0.187c-0.01,0.02,0.01,0.049,0.02,0.088c0.01,0.02,0.029,0.068,0.01,0.078
			c-0.039,0.079-0.01,0.147-0.01,0.226c0,0.216,0,0.441,0.01,0.677c0,0.216,0.02,0.432,0.02,0.638c0.01,0.147,0.02,0.294,0.02,0.432
			c-0.01,0.461-0.01,0.912-0.01,1.372c0,0.207,0.01,0.412,0.01,0.618c0.01,0.314,0.01,0.638-0.049,0.961
			c-0.01,0.03-0.01,0.079-0.02,0.108c-0.039,0.216-0.146,0.372-0.383,0.402c0.029-0.049,0.05-0.079,0.089-0.118
			c-0.049-0.01-0.06,0.02-0.069,0.049c0,0.021-0.02,0.049-0.02,0.06C107.202,71.696,107.104,71.579,107.064,71.373z"/>
		<path id="XMLID_712_" fill="#FFFFFF" d="M112.036,68.372c0.02-0.049,0.039-0.098,0.059-0.146c0.187-0.314,0.285-0.667,0.422-1.001
			c0.049-0.117,0.089-0.244,0.128-0.362c0.107-0.313,0.255-0.599,0.401-0.883c0.068-0.138,0.167-0.255,0.266-0.372
			c0.078-0.099,0.234-0.108,0.343-0.04c0.078,0.04,0.128,0.108,0.167,0.177c0.127,0.275,0.226,0.549,0.284,0.844
			c0.02,0.078,0.02,0.176,0.099,0.234c0.039,0.04,0.059,0.099,0.039,0.147c-0.021,0.079,0.01,0.128,0.049,0.187
			s0.078,0.118,0.098,0.177c0.078,0.245,0.157,0.49,0.235,0.735c0.147,0.432,0.294,0.863,0.451,1.285c0,0.009,0,0.02,0,0.02
			c0.235,0.51,0.313,1.059,0.5,1.588c0.04,0.107,0.06,0.235,0.069,0.354c0.01,0.078-0.01,0.167-0.049,0.235
			c-0.079,0.167-0.334,0.167-0.452,0c-0.078-0.118-0.147-0.255-0.206-0.393c-0.039-0.107-0.068-0.216-0.098-0.333
			c-0.068-0.256-0.127-0.51-0.196-0.766c-0.078-0.245-0.294-0.451-0.598-0.441c-0.422,0.021-0.854,0.021-1.285,0.069
			c-0.323,0.029-0.539,0.226-0.716,0.471c-0.098,0.147-0.166,0.313-0.235,0.49c-0.088,0.245-0.196,0.49-0.313,0.726
			c-0.088,0.157-0.245,0.235-0.363,0.354c-0.049,0.049-0.156,0.02-0.206-0.04c-0.088-0.127-0.146-0.265-0.078-0.421
			c0.02-0.049,0.029-0.108,0.06-0.147c0.107-0.177,0.166-0.372,0.244-0.559c0.039-0.079,0.068-0.167,0.118-0.245
			c0.146-0.295,0.167-0.56,0.313-0.854C111.752,69.107,111.929,68.755,112.036,68.372z M111.624,70.48c0.01,0,0.021,0,0.029,0
			c0-0.029,0-0.068,0.01-0.098c0.021-0.049,0.049-0.099,0.079-0.157c-0.049-0.029-0.098-0.049-0.157-0.088
			c-0.029,0.177-0.206,0.274-0.167,0.461c0.011,0.039-0.009,0.078-0.028,0.107c-0.04,0.049-0.06,0.108-0.069,0.167
			c-0.01,0.049-0.049,0.098-0.089,0.167c0.069,0,0.118,0,0.168-0.011c0.029-0.049,0.039-0.107,0.059-0.146
			c0.029-0.049,0.078-0.078,0.107-0.107c-0.029-0.216-0.029-0.216,0.059-0.393C111.624,70.412,111.624,70.451,111.624,70.48z
			 M112.144,69.029c0,0-0.01,0.01-0.019,0.02c0,0,0.009,0.01,0.019,0.02c0-0.01,0.01-0.02,0.01-0.02
			C112.153,69.039,112.144,69.029,112.144,69.029z M112.448,68.383l0.01,0.009l0.01-0.009c0-0.011,0-0.011-0.01-0.021
			C112.458,68.372,112.448,68.372,112.448,68.383z M112.507,68.226c0,0.01-0.01,0.01-0.01,0.02c0,0,0.01,0.01,0.01,0.02
			c0.01-0.01,0.01-0.02,0.01-0.02C112.517,68.235,112.507,68.235,112.507,68.226z M112.546,67.421l-0.01,0.01
			c0,0.02,0,0.03,0.01,0.04c0.01-0.01,0.01-0.01,0.02-0.021C112.565,67.44,112.556,67.431,112.546,67.421z M112.585,68.01l0.01,0.02
			l0.011-0.02H112.585z M114.155,68.666c-0.079-0.265-0.158-0.539-0.246-0.804c-0.107-0.284-0.195-0.569-0.274-0.863
			c-0.02-0.059-0.039-0.127-0.079-0.187c-0.068-0.088-0.166-0.078-0.215,0.021c-0.049,0.088-0.079,0.177-0.118,0.265
			c-0.059,0.127-0.117,0.245-0.177,0.373c-0.117,0.294-0.234,0.588-0.343,0.882c-0.049,0.118-0.059,0.255-0.078,0.383
			c-0.011,0.107,0.078,0.216,0.187,0.245c0.068,0.02,0.137,0.029,0.205,0.029c0.314,0.039,0.657,0.01,0.941-0.049
			C114.105,68.941,114.194,68.813,114.155,68.666z M112.645,67.617c0,0,0-0.01-0.011-0.01c0,0.01,0,0.01-0.009,0.02
			c0.009,0,0.009,0,0.02,0.01C112.645,67.627,112.654,67.617,112.645,67.617z M113.596,66.381c0.02,0.03,0.049,0.06,0.098,0.021
			c-0.01-0.06-0.02-0.128-0.049-0.216C113.556,66.254,113.566,66.322,113.596,66.381z"/>
		<path id="XMLID_708_" fill="#FFFFFF" d="M122.078,69.607c0.039-0.343,0.049-0.676,0.029-1.02c-0.029-0.196-0.02-0.412,0.01-0.607
			c0.03-0.266-0.029-0.53-0.029-0.805c0-0.226-0.039-0.471,0.02-0.706c0-0.039,0-0.078,0-0.107c-0.059-0.274,0.04-0.501,0.196-0.716
			c0.156-0.029,0.333-0.039,0.48,0.098c-0.02,0.039-0.049,0.059-0.049,0.098c0,0.03,0,0.099,0.02,0.099
			c0.068,0.039,0.078,0.088,0.068,0.157c-0.02,0.146-0.029,0.294-0.029,0.451c-0.01,0.146-0.01,0.294,0,0.441
			c0.029,0.244,0.01,0.5,0.01,0.754c-0.01,0.06,0,0.128,0,0.207c0.02,0.137,0.029,0.284,0.02,0.411c-0.029,0.451,0,0.902,0.01,1.354
			c0,0.029,0,0.069,0.01,0.108c0.039,0.186,0.039,0.382-0.02,0.568c-0.029,0.068-0.029,0.137-0.02,0.195
			c0.029,0.147,0.039,0.295,0.039,0.452c0,0.187-0.02,0.392-0.078,0.568c-0.107,0.108-0.235,0.128-0.373,0.108
			c-0.117,0-0.205-0.049-0.244-0.157c-0.138-0.294-0.334-0.54-0.521-0.805c-0.226-0.323-0.411-0.667-0.598-1
			c-0.05-0.107-0.108-0.226-0.196-0.294c-0.02-0.01-0.029-0.02-0.029-0.039c-0.089-0.226-0.295-0.383-0.422-0.589
			c-0.138-0.187-0.295-0.372-0.451-0.559c-0.117-0.147-0.216-0.323-0.334-0.471c-0.078-0.089-0.146-0.167-0.225-0.245
			c-0.079-0.068-0.158-0.029-0.197,0.068c0,0.02-0.02,0.049-0.028,0.078c-0.04,0.285-0.069,0.599-0.04,0.883
			c0.01,0.138-0.01,0.245-0.01,0.363c-0.029,0.411-0.029,0.823,0,1.226c0,0.255,0,0.49,0,0.745c0,0.02,0,0.039,0,0.068
			c0.059,0.157,0,0.314,0,0.491c0.01,0.107,0,0.107-0.078,0.265c-0.039-0.01-0.099-0.029-0.138-0.039
			c-0.049,0-0.107,0.029-0.156,0.029c-0.196,0-0.304-0.108-0.344-0.305c-0.029-0.166-0.029-0.323-0.02-0.48c0-0.196,0-0.402,0-0.598
			c0.029-0.599,0.06-1.196,0.069-1.785c0.009-0.206,0-0.412,0.009-0.617c0-0.432,0.021-0.873,0.03-1.324c0-0.187-0.01-0.383,0-0.568
			c0.02-0.147,0.078-0.236,0.176-0.334c0.088-0.078,0.266-0.078,0.354,0c0.137,0.137,0.265,0.255,0.373,0.412
			c0.146,0.195,0.274,0.412,0.421,0.598c0.167,0.196,0.285,0.412,0.412,0.628c0.118,0.157,0.187,0.353,0.304,0.51
			c0.099,0.118,0.177,0.245,0.266,0.363c0.146,0.156,0.265,0.343,0.392,0.51c0.128,0.206,0.265,0.401,0.393,0.599
			c0.059,0.068,0.099,0.137,0.138,0.216c0.049,0.078,0.098,0.156,0.156,0.234c0.029,0.03,0.068,0.069,0.088,0.099
			C122.049,69.813,122.068,69.716,122.078,69.607z M122.187,68.617c0,0.01-0.021,0.01-0.021,0.029v0.01
			c0.021,0,0.021-0.01,0.021-0.01C122.187,68.627,122.187,68.627,122.187,68.617z M122.637,70.49c0,0.01,0,0.039,0.01,0.049h0.03
			c0-0.029,0-0.049,0-0.078C122.646,70.471,122.637,70.471,122.637,70.49z"/>
		<path id="XMLID_692_" fill="#FFFFFF" d="M129.482,66.822c0.029,0.188,0.108,0.373,0.069,0.569
			c-0.021,0.108,0.019,0.216,0.019,0.313c0,0.412,0,0.844-0.019,1.256c-0.011,0.284-0.03,0.578-0.05,0.853
			c-0.01,0.03-0.01,0.069-0.02,0.089c-0.089,0.088-0.089,0.205-0.099,0.323c-0.02,0.108-0.078,0.206-0.039,0.323
			c0,0-0.01,0.029-0.02,0.029c-0.068,0.01-0.059,0.079-0.059,0.118c0.02,0.128-0.029,0.226-0.098,0.323
			c-0.059,0.049-0.088,0.118-0.118,0.177c-0.029,0.05-0.059,0.099-0.098,0.128c-0.099,0.068-0.196,0.137-0.304,0.206
			c-0.099,0.059-0.206,0.098-0.305,0.147c-0.02,0.009-0.039,0.019-0.059,0.019c-0.196,0-0.373,0.05-0.549,0.021
			c-0.177-0.03-0.344-0.03-0.521-0.03c-0.226,0.01-0.421-0.049-0.628-0.078c-0.078-0.02-0.156-0.068-0.234-0.108
			c-0.078-0.059-0.167-0.117-0.246-0.186c-0.039-0.029-0.078-0.068-0.059-0.138c0.02-0.088-0.02-0.157-0.098-0.235
			c0,0.029-0.01,0.049-0.01,0.068c0.01,0.02,0.02,0.04,0.029,0.079c-0.029-0.021-0.049-0.021-0.059-0.039
			c-0.02-0.04-0.02-0.099-0.039-0.138c-0.06-0.147-0.069-0.294-0.069-0.451c0-0.137-0.01-0.294-0.01-0.441
			c0-0.137,0.01-0.265,0.01-0.402c0.021-0.284,0.01-0.559-0.029-0.823c0-0.029,0-0.059,0.011-0.089
			c0.019-0.176-0.011-0.362-0.011-0.539c0-0.215-0.02-0.432,0.02-0.646c0.03-0.147,0.02-0.285,0.03-0.422
			c0.01-0.304,0.117-0.559,0.313-0.795c0.128-0.137,0.265-0.244,0.432-0.333c0.117-0.059,0.226-0.137,0.362-0.177
			c0.118-0.039,0.235-0.049,0.354-0.107c0.029-0.01,0.078-0.02,0.107,0c0.128,0.039,0.255,0.02,0.383,0
			c0.333-0.039,0.637,0.049,0.922,0.196c0.088,0.039,0.166,0.117,0.235,0.187c0.156,0.146,0.313,0.304,0.431,0.5
			c0.02,0.049,0.02,0.098,0.04,0.146c-0.029,0.029-0.04,0.068,0,0.098c0,0.01,0,0.021,0,0.04c0,0,0,0.01,0.01,0.01
			c0-0.01,0.02-0.02,0.01-0.02c0-0.01-0.02-0.021-0.03-0.03c0-0.039,0-0.068,0-0.107C129.443,66.725,129.473,66.773,129.482,66.822z
			 M125.864,68.274c0,0.078,0,0.147,0,0.226C125.903,68.372,125.903,68.372,125.864,68.274z M125.884,69
			c-0.01,0.01-0.02,0.01-0.02,0.02s0.01,0.01,0.01,0.02c0.01-0.01,0.01-0.02,0.01-0.02C125.884,69.01,125.884,69,125.884,69z
			 M126.05,66.686v-0.02l-0.01,0.02H126.05z M126.099,68.607c-0.029,0.069-0.029,0.069,0.01,0.157
			C126.119,68.695,126.168,68.656,126.099,68.607z M126.178,67.744c-0.01,0.011-0.02,0.021-0.02,0.03c0,0.009,0.02,0.02,0.029,0.029
			c0-0.01,0-0.021,0.01-0.029C126.188,67.765,126.188,67.755,126.178,67.744z M126.306,66.303c0.01,0,0.02,0.011,0.02,0.011
			c0.02-0.011,0.029-0.021,0.049-0.03c-0.01-0.01-0.02-0.01-0.029-0.029C126.335,66.273,126.325,66.283,126.306,66.303z
			 M126.325,69.01l0.01,0.01v-0.01H126.325z M126.374,67.921c-0.01,0-0.02,0-0.02,0.01c0,0,0,0.011,0.01,0.011c0,0,0,0,0.01,0
			C126.374,67.931,126.374,67.931,126.374,67.921z M126.374,68.323c0-0.059,0-0.118,0-0.177c-0.01,0-0.01,0-0.02,0
			c0,0.059,0,0.118,0,0.177C126.364,68.323,126.364,68.323,126.374,68.323z M128.354,70.99v-0.01c-0.01-0.01-0.029-0.02-0.039-0.029
			c0.049-0.059,0.098-0.117,0.147-0.176c0.009-0.029,0-0.079,0-0.128c0.009-0.01,0.029-0.02,0.039-0.039
			c0.187-0.167,0.265-0.393,0.284-0.638c0.039-0.314,0.029-0.617,0.039-0.941c0.02-0.363,0.02-0.735,0.01-1.099
			c0-0.255-0.02-0.52-0.068-0.765c-0.039-0.186-0.127-0.383-0.255-0.539c-0.216-0.285-0.51-0.373-0.854-0.334
			c-0.049,0-0.098,0.021-0.147,0.029c-0.304,0.01-0.666,0.334-0.794,0.579c-0.01,0.029-0.02,0.059-0.039,0.079
			c-0.157,0.234-0.206,0.51-0.216,0.784c0,0.156,0,0.323,0,0.48c-0.01,0.098-0.01,0.206-0.01,0.304
			c0.01,0.314,0.01,0.638,0.02,0.961c0,0.324-0.01,0.647,0.107,0.961c0.05,0.128,0.079,0.265,0.197,0.354
			c0.146,0.117,0.304,0.226,0.51,0.226c0.059,0,0.117,0,0.156,0.059c0.02,0.02,0.05,0.029,0.079,0.029
			c0.206,0.039,0.411,0.039,0.598-0.098c0.059-0.04,0.118-0.099,0.196-0.089C128.306,70.98,128.315,70.99,128.354,70.99z
			 M127.119,66.038c-0.01,0-0.01-0.01-0.01-0.01c-0.02,0-0.029,0-0.039,0.01c0,0,0.01,0.011,0.02,0.021
			C127.1,66.049,127.109,66.049,127.119,66.038z M127.168,66.215c0,0,0.01,0,0.021,0c-0.011,0-0.011-0.01-0.011-0.01
			S127.168,66.205,127.168,66.215z M128.884,66.656v0.01c0.011,0,0.011,0,0.02,0c0,0,0-0.01,0-0.02
			C128.895,66.656,128.884,66.646,128.884,66.656z M128.903,67.52v0.02l0.01-0.01L128.903,67.52z"/>
		<path id="XMLID_691_" fill="#FFFFFF" d="M132.832,53.451c-19.038-4.943-39.085-7.166-58.688-7.324
			c-0.663-0.006-1.444,1.183-0.524,1.19c19.5,0.158,39.773,1.658,58.708,6.574C132.954,54.055,133.63,53.658,132.832,53.451
			L132.832,53.451z"/>
		<path id="XMLID_690_" fill="#FFFFFF" d="M44,47.462c-13.31,1.904-26.405,5.259-38.699,10.763c-1.491,0.667-1.456,2.96,0.372,2.142
			c12.077-5.407,24.879-9.625,37.954-11.495C45.079,48.663,45.962,47.182,44,47.462L44,47.462z"/>
		<path id="XMLID_689_" fill="#FFFFFF" d="M63.776,46.307c-3.513,0.145-7.02,0.365-10.521,0.672
			c-0.737,0.064-1.162,1.256-0.178,1.17c3.387-0.297,6.778-0.512,10.176-0.651C63.907,47.471,64.688,46.27,63.776,46.307
			L63.776,46.307z"/>
		<path id="XMLID_688_" fill="#FFFFFF" d="M70.259,25.332c0.057,0.144,0.161,0.424,0.284,0.81
			C70.483,25.938,70.389,25.657,70.259,25.332z"/>
		<path id="XMLID_687_" fill="#FFFFFF" d="M70.234,25.27c0.006,0.014,0.012,0.028,0.02,0.05
			C70.247,25.303,70.241,25.286,70.234,25.27z"/>
		<path id="XMLID_682_" fill="#FFFFFF" d="M135.521,21.681c-1.556-0.53-3.879,0.121-5.403,0.514
			c-4.856,1.249-9.233,4.344-11.669,8.773c-0.93,1.691-1.934,4.211-2.205,6.654c0,0-0.001,0.005-0.002,0.007
			c-0.385,2.46-6.008,5.165-7.843,1.347c-1.166-2.427,2.407-10.778,4.421-17.493c0.002-0.007,0.002-0.009,0.004-0.016
			c0.005-0.02,0.012-0.039,0.018-0.059c0.002-0.008-0.002-0.012-0.002-0.012c0.002-0.014,0.001-0.016,0.001-0.02
			c0.11-0.759-3.789,0.262-4.145,1.494c-1.271,4.41-2.575,9.107-4.521,13.266c-5.734,12.262-9.643,5.359-9.832,1.421
			c-0.249-5.198,2.771-10.994,3.551-13.263c0.424-1.235,1.425-2.905,0.291-4.051c-1.019-1.028-3.007-0.532-4.26-0.313
			c-3.836,0.673-7.389,2.516-10.134,5.161c-3.043-0.386-6.062-0.263-9,0.288c-0.113-0.548-0.238-1.093-0.386-1.631
			c-0.682-2.498-2.089-4.012-3.951-4.436c-0.254-0.059-0.356-0.358-0.191-0.56c2.174-2.655,4.006-5.585,5.012-8.835
			c0.861-2.78,1.217-6.535-1.265-8.643c-2.769-2.35-6.746-1.012-9.579,0.458c-2.859,1.484-5.484,3.468-7.936,5.612
			c0.229-1.982,0.438-3.992,0.648-6.038c0.224-2.188-3.62-0.697-3.748,0.489c-0.049,0.453-0.098,0.906-0.147,1.36
			c-1.082,9.972-2.322,20.25-5.829,29.681c-1.033,2.777-2.814,7.821-5.814,9.125c-3.466,1.506-4.52-2.254-4.438-4.853
			c0.114-3.647,1.199-7.298,2.32-10.744c0.389-1.196,1.526-3.18,1.387-4.454c-0.237-2.182-2.806-1.43-4.163-1.047
			c-8.168,2.305-14.387,8.477-15.838,16.949c-0.086,0.509-0.161,1.07-0.207,1.654c-0.466,1.221-1.32,2.48-1.699,3.044
			c-1.499,2.232-3.507,4.108-6.071,5.074c-2.354,0.887-5.332,1.022-6.908-1.263c-2.087-3.025-1.806-7.843-1.777-11.229
			c0.028-3.369,0.342-6.734,0.997-10.039c2.032-10.25,3.388-13.215,8.042-22.408c1.237-2.444-2.989-1.896-3.867-0.164
			C5.248,10.65,4.378,12.489,2.077,21.342c-1.706,6.568-2.435,13.393-1.91,20.174c0.412,5.334,2.457,10.342,8.547,10.191
			c5.184-0.129,9.692-3.156,12.825-7.157c0.446,0.714,1.079,1.292,1.978,1.623c3.266,1.205,7.326-0.936,10.46-2.959
			c0.666,1.151,1.843,1.818,3.794,1.583c6.72-0.812,10.958-7.356,13.219-13.066c2.568-6.488,3.926-12.82,4.861-19.363
			c0.085-0.064,0.169-0.134,0.25-0.212c2.348-2.26,4.822-4.442,7.553-6.231c1.738-1.139,5.071-3.494,7.075-1.627
			c1.597,1.487,0.993,4.353,0.376,6.129c-0.745,2.144-1.903,4.113-3.277,5.937c-1.026,1.361-3,3.264-4.129,4.315
			c-0.231,0.215-0.031,0.597,0.278,0.532c0.39-0.082,0.801-0.165,1.091-0.216c2.724-0.475,4.424,2.459,5.146,4.228h0.001
			c0,0,0.008,0.02,0.02,0.048c0.007,0.017,0.013,0.033,0.02,0.05c0,0,0.003,0.008,0.005,0.013c0.13,0.325,0.225,0.606,0.284,0.81
			c0.236,0.743,0.537,1.877,0.68,3.18c0.145,1.066,0.262,2.548,0.167,4.526c-0.409,8.549-5.211,15.469-12.9,19.132
			c-3.602,1.717-9.59,3.209-8.923-2.827c0.614-5.564,4.876-11.643,8.788-15.337c3.139-2.964,6.722-5.251,10.646-6.61
			c0.264-0.091,0.413-0.367,0.346-0.637c0,0-0.001-0.008-0.002-0.012c-0.078-0.314-0.42-0.488-0.721-0.368
			c-3.408,1.359-6.635,3.255-9.574,5.531c-5.726,4.435-11.667,10.933-13.247,18.242c-0.422,1.953-0.484,4.484,1.353,5.75
			c2.264,1.561,5.716,0.436,8.01-0.435c9.674-3.666,18.445-11.115,19.952-21.817c0.315-2.236,0.163-5.3-0.107-7.554
			c2.188-0.195,4.579-0.105,6.837,0.313c0.014,0.002,0.027,0.005,0.04,0.007c-1.922,2.521-3.194,5.533-3.509,8.835
			c-0.293,3.07,0.828,6.329,4.329,6.542c3.276,0.199,6.506-1.579,9.224-3.662c0.412,2.917,1.865,5.311,5.485,5.347
			c3.509,0.034,5.816-2.386,7.498-5.267c0.248,0.87,0.623,1.673,1.151,2.323c2.426,2.979,7.01,1.256,10.302-0.69
			c0.302,1.312,0.983,2.461,2.218,3.256c3.506,2.258,8.044,0.141,11.596-2.417c-0.229,1.287-0.464,2.574-0.685,3.862
			c-0.183,1.063,3.747-0.501,3.982-1.876c0.934-5.432,1.941-10.852,2.938-16.271C136.745,25.423,137.892,22.487,135.521,21.681z
			 M36.038,26.982c-0.56,1.626-1.076,3.268-1.521,4.93c-0.597,2.225-1.813,6.945-1.039,10.026c-2.781,1.675-6.815,3.298-8.424-0.433
			c-1.281-2.971-0.221-6.906,0.842-9.777c1.418-3.832,4.576-8,8.997-8.512C37.733,22.889,36.636,25.245,36.038,26.982z M92.511,31.2
			c-0.363,1.58-0.707,3.645-0.713,5.664c-2.291,2.018-6.463,4.887-8.738,1.437c-2.09-3.17-0.064-8.504,1.736-11.306
			c1.658-2.582,5.153-4.981,8.434-4.615c2.409,0.27,1.128,2.619,0.62,4.138C93.335,28.058,92.875,29.617,92.511,31.2z M132.1,30.9
			c-0.474,2.581-0.947,5.162-1.415,7.745c-3.051,2.604-9.101,5.622-10.345-0.266c-1.021-4.832,2.197-11.241,6.788-13.063
			c1.222-0.484,3.44-1.241,4.784-0.926C133.978,24.878,132.368,29.439,132.1,30.9z"/>
		<path id="XMLID_681_" fill="#FFFFFF" d="M110.511,20.604c0.727-0.294,1.511-0.481,2.041-0.501
			c0.305-0.011,0.566-0.226,0.664-0.514c0.249-0.739,0.16-0.445,0.439-1.365c0.052-0.172-0.097-0.237-0.192-0.264
			c-0.792-0.216-3.651,0.68-3.953,1.727c-0.003,0.01-0.005,0.019-0.008,0.027C109.328,20.318,109.929,20.839,110.511,20.604z"/>
	</g>
</g>
</svg>
