<?xml version="1.0" encoding="utf-8"?>
<!-- Generator: Adobe Illustrator 16.0.0, SVG Export Plug-In . SVG Version: 6.00 Build 0)  -->
<!DOCTYPE svg PUBLIC "-//W3C//DTD SVG 1.1//EN" "http://www.w3.org/Graphics/SVG/1.1/DTD/svg11.dtd">
<svg version="1.1" id="Layer_1" xmlns="http://www.w3.org/2000/svg" xmlns:xlink="http://www.w3.org/1999/xlink" x="0px" y="0px"
	 width="191.924px" height="61.237px" viewBox="0 0 191.924 61.237" enable-background="new 0 0 191.924 61.237"
	 xml:space="preserve">
<g id="XMLID_541_">
	<g>
		<path id="XMLID_309_" fill="#FFFFFF" d="M25.122,27.708c1.321,2.461,2.688,3.463,4.876,3.463c2.232,0,4.011-1.596,4.011-3.6
			c0-1.504-0.865-2.461-2.78-3.099l-3.646-1.185c-2.188-0.73-3.601-2.598-3.601-4.832c0-3.053,2.826-5.56,6.335-5.56
			c2.688,0,4.602,1.276,5.924,3.92L34.1,18.092c-1.139-2.097-2.278-2.917-3.92-2.917c-1.914,0-3.509,1.413-3.509,3.1
			c0,1.366,0.866,2.232,2.917,2.916l3.69,1.276c1.961,0.639,3.556,2.917,3.556,4.967c0,3.328-3.145,6.016-6.973,6.016
			c-3.235,0-5.605-1.548-6.973-4.602L25.122,27.708z"/>
		<path id="XMLID_306_" fill="#FFFFFF" d="M59.53,29.211c-2.098,3.054-4.057,4.193-7.247,4.193c-5.742,0-9.706-4.147-9.706-10.163
			c0-5.879,4.146-10.208,9.706-10.208c3.236,0,5.561,1.367,7.247,4.284l0.181-0.045c-0.227-0.957-0.317-1.368-0.317-1.961v-1.503
			h2.643v18.775h-2.643v-1.458c0-0.639,0.045-1.004,0.272-1.869L59.53,29.211z M45.22,23.196c0,4.739,2.917,7.93,7.2,7.93
			c4.103,0,7.019-3.281,7.019-7.885c0-4.647-2.916-7.884-7.109-7.884C48.137,15.357,45.22,18.548,45.22,23.196"/>
		<path id="XMLID_305_" fill="#FFFFFF" d="M71.221,13.808h2.644v1.459c0,0.592-0.092,1.048-0.319,1.959l0.183,0.046
			c1.504-2.825,3.508-4.192,6.197-4.192c4.375,0,6.973,2.779,6.973,7.475v12.03h-2.643V21.51c0-4.011-1.55-6.015-4.558-6.015
			c-3.646,0-5.833,2.732-5.833,7.291v9.798h-2.644V13.808z"/>
		<path id="XMLID_302_" fill="#FFFFFF" d="M110.457,29.211c-2.05,3.054-4.01,4.193-7.155,4.193c-5.694,0-9.751-4.239-9.751-10.163
			c0-5.833,4.147-10.208,9.705-10.208c3.191,0,5.606,1.413,7.247,4.284l0.182-0.045c-0.273-3.602-0.319-4.468-0.319-8.387V0h2.69
			v32.584h-2.69v-1.458c0-0.684,0.046-1.047,0.274-1.869L110.457,29.211z M96.239,23.196c0,4.739,2.917,7.93,7.154,7.93
			c4.102,0,7.018-3.281,7.018-7.885c0-4.693-2.87-7.884-7.063-7.884C99.156,15.357,96.239,18.548,96.239,23.196"/>
		<path id="XMLID_299_" fill="#FFFFFF" d="M136.96,29.211c-2.098,3.054-4.057,4.193-7.247,4.193c-5.742,0-9.707-4.147-9.707-10.163
			c0-5.879,4.147-10.208,9.707-10.208c3.235,0,5.56,1.367,7.247,4.284l0.182-0.045c-0.228-0.957-0.319-1.368-0.319-1.961v-1.503
			h2.644v18.775h-2.644v-1.458c0-0.639,0.046-1.004,0.273-1.869L136.96,29.211z M122.649,23.196c0,4.739,2.916,7.93,7.2,7.93
			c4.103,0,7.019-3.281,7.019-7.885c0-4.647-2.916-7.884-7.11-7.884C125.565,15.357,122.649,18.548,122.649,23.196"/>
		<rect id="XMLID_298_" x="147.873" fill="#FFFFFF" width="2.643" height="32.585"/>
		<path id="XMLID_297_" fill="#FFFFFF" d="M159.198,27.708c1.32,2.461,2.688,3.463,4.876,3.463c2.232,0,4.01-1.596,4.01-3.6
			c0-1.504-0.865-2.461-2.78-3.099l-3.645-1.185c-2.188-0.73-3.602-2.598-3.602-4.832c0-3.053,2.826-5.56,6.335-5.56
			c2.689,0,4.603,1.276,5.925,3.92l-2.141,1.275c-1.141-2.097-2.279-2.917-3.92-2.917c-1.914,0-3.51,1.413-3.51,3.1
			c0,1.366,0.865,2.232,2.918,2.916l3.689,1.276c1.961,0.639,3.556,2.917,3.556,4.967c0,3.328-3.146,6.016-6.973,6.016
			c-3.235,0-5.605-1.548-6.973-4.602L159.198,27.708z"/>
		<path id="XMLID_294_" fill="#FFFFFF" d="M45.366,40.53h1.553c0.865,0,1.451,0.035,1.759,0.105c0.463,0.106,0.84,0.334,1.129,0.682
			c0.29,0.349,0.435,0.778,0.435,1.287c0,0.424-0.1,0.797-0.3,1.119s-0.484,0.565-0.855,0.729c-0.37,0.165-0.883,0.248-1.536,0.251
			l2.803,3.619h-0.965l-2.803-3.619h-0.439v3.619h-0.779V40.53z M46.146,41.293v2.649l1.342,0.01c0.521,0,0.905-0.049,1.154-0.147
			c0.25-0.099,0.444-0.257,0.585-0.476c0.14-0.216,0.209-0.458,0.209-0.728c0-0.261-0.07-0.499-0.212-0.713
			s-0.327-0.366-0.558-0.458s-0.611-0.138-1.146-0.138H46.146z"/>
		<path id="XMLID_291_" fill="#FFFFFF" d="M57.728,46.411l0.625,0.328c-0.206,0.403-0.442,0.729-0.711,0.975
			c-0.269,0.248-0.571,0.437-0.906,0.565c-0.337,0.128-0.717,0.193-1.141,0.193c-0.941,0-1.676-0.309-2.207-0.925
			c-0.529-0.616-0.794-1.313-0.794-2.091c0-0.73,0.225-1.382,0.672-1.954c0.569-0.728,1.332-1.092,2.286-1.092
			c0.982,0,1.769,0.373,2.354,1.117c0.418,0.527,0.63,1.184,0.637,1.972h-5.188c0.015,0.67,0.229,1.219,0.642,1.647
			c0.414,0.427,0.925,0.642,1.533,0.642c0.294,0,0.58-0.051,0.857-0.153c0.277-0.102,0.514-0.237,0.708-0.406
			S57.501,46.788,57.728,46.411 M57.728,44.858c-0.099-0.396-0.244-0.711-0.433-0.948c-0.189-0.236-0.439-0.427-0.751-0.572
			c-0.312-0.144-0.638-0.216-0.981-0.216c-0.565,0-1.052,0.181-1.459,0.544c-0.297,0.266-0.521,0.663-0.674,1.192H57.728z"/>
		<path id="XMLID_290_" fill="#FFFFFF" d="M63.909,43.189l-0.477,0.493c-0.397-0.385-0.785-0.578-1.164-0.578
			c-0.24,0-0.447,0.08-0.618,0.238c-0.172,0.16-0.258,0.346-0.258,0.557c0,0.188,0.07,0.366,0.213,0.536
			c0.142,0.173,0.438,0.376,0.892,0.608c0.552,0.286,0.927,0.563,1.125,0.827c0.195,0.269,0.293,0.57,0.293,0.905
			c0,0.474-0.168,0.875-0.499,1.203c-0.333,0.328-0.749,0.492-1.248,0.492c-0.332,0-0.649-0.072-0.951-0.217
			c-0.304-0.145-0.554-0.345-0.751-0.599l0.466-0.53c0.379,0.429,0.78,0.642,1.205,0.642c0.298,0,0.551-0.095,0.76-0.286
			c0.209-0.19,0.313-0.415,0.313-0.673c0-0.213-0.067-0.401-0.207-0.566c-0.138-0.162-0.448-0.368-0.934-0.615
			c-0.521-0.269-0.875-0.533-1.063-0.795c-0.187-0.261-0.28-0.559-0.28-0.896c0-0.438,0.149-0.801,0.448-1.091
			c0.3-0.29,0.677-0.435,1.134-0.435C62.837,42.411,63.372,42.671,63.909,43.189"/>
		<polygon id="XMLID_289_" fill="#FFFFFF" points="66.955,40.419 67.696,40.419 67.696,42.56 68.873,42.56 68.873,43.2 67.696,43.2 
			67.696,48.324 66.955,48.324 66.955,43.2 65.942,43.2 65.942,42.56 66.955,42.56 		"/>
		<path id="XMLID_286_" fill="#FFFFFF" d="M76.814,42.56v5.764h-0.732v-0.99c-0.31,0.379-0.658,0.662-1.046,0.854
			c-0.387,0.189-0.81,0.286-1.27,0.286c-0.814,0-1.513-0.296-2.089-0.888c-0.578-0.592-0.867-1.312-0.867-2.16
			c0-0.83,0.291-1.539,0.874-2.129s1.284-0.885,2.104-0.885c0.474,0,0.901,0.101,1.285,0.302c0.383,0.202,0.72,0.504,1.009,0.905
			V42.56H76.814z M73.85,43.126c-0.413,0-0.794,0.102-1.143,0.304c-0.351,0.204-0.628,0.488-0.834,0.856
			c-0.206,0.365-0.31,0.755-0.31,1.163c0,0.406,0.104,0.795,0.312,1.165c0.208,0.37,0.488,0.658,0.84,0.865
			c0.351,0.207,0.727,0.31,1.129,0.31c0.406,0,0.79-0.103,1.155-0.308c0.362-0.205,0.642-0.48,0.838-0.83s0.294-0.743,0.294-1.182
			c0-0.666-0.22-1.223-0.659-1.671S74.491,43.126,73.85,43.126"/>
		<path id="XMLID_285_" fill="#FFFFFF" d="M79.473,42.56h0.741v2.691c0,0.656,0.036,1.109,0.106,1.356
			c0.106,0.353,0.31,0.632,0.607,0.838c0.299,0.204,0.655,0.306,1.069,0.306s0.766-0.099,1.054-0.299
			c0.288-0.199,0.487-0.462,0.597-0.787c0.074-0.223,0.111-0.694,0.111-1.414V42.56h0.758v2.829c0,0.796-0.094,1.394-0.278,1.796
			s-0.465,0.718-0.837,0.945c-0.373,0.229-0.84,0.343-1.401,0.343c-0.563,0-1.031-0.114-1.407-0.343
			c-0.376-0.228-0.656-0.545-0.842-0.953s-0.278-1.022-0.278-1.842V42.56z"/>
		<path id="XMLID_284_" fill="#FFFFFF" d="M86.969,42.56h0.758v0.842c0.226-0.331,0.465-0.579,0.716-0.744
			c0.25-0.164,0.512-0.247,0.784-0.247c0.204,0,0.424,0.065,0.656,0.196l-0.386,0.625c-0.156-0.066-0.287-0.101-0.393-0.101
			c-0.247,0-0.485,0.103-0.716,0.306c-0.229,0.203-0.404,0.518-0.524,0.946c-0.092,0.327-0.138,0.991-0.138,1.991v1.95h-0.758V42.56
			z"/>
		<path id="XMLID_281_" fill="#FFFFFF" d="M97.343,42.56v5.764H96.61v-0.99c-0.31,0.379-0.659,0.662-1.046,0.854
			c-0.387,0.189-0.81,0.286-1.27,0.286c-0.815,0-1.513-0.296-2.089-0.888c-0.579-0.592-0.867-1.312-0.867-2.16
			c0-0.83,0.291-1.539,0.874-2.129s1.284-0.885,2.104-0.885c0.474,0,0.901,0.101,1.285,0.302c0.383,0.202,0.72,0.504,1.009,0.905
			V42.56H97.343z M94.378,43.126c-0.413,0-0.794,0.102-1.144,0.304c-0.35,0.204-0.628,0.488-0.833,0.856
			c-0.207,0.365-0.31,0.755-0.31,1.163c0,0.406,0.104,0.795,0.312,1.165c0.208,0.37,0.488,0.658,0.84,0.865
			c0.351,0.207,0.727,0.31,1.129,0.31c0.406,0,0.79-0.103,1.154-0.308c0.363-0.205,0.643-0.48,0.839-0.83s0.294-0.743,0.294-1.182
			c0-0.666-0.221-1.223-0.659-1.671C95.561,43.351,95.02,43.126,94.378,43.126"/>
		<path id="XMLID_280_" fill="#FFFFFF" d="M100.097,42.56h0.741v1.033c0.298-0.395,0.626-0.691,0.986-0.888
			c0.359-0.196,0.752-0.295,1.176-0.295c0.431,0,0.813,0.11,1.147,0.329c0.334,0.22,0.578,0.515,0.738,0.885
			c0.16,0.371,0.238,0.949,0.238,1.733v2.967h-0.741v-2.75c0-0.664-0.027-1.108-0.083-1.33c-0.086-0.382-0.25-0.669-0.494-0.86
			c-0.243-0.192-0.563-0.289-0.953-0.289c-0.45,0-0.851,0.147-1.205,0.445c-0.355,0.296-0.59,0.664-0.702,1.102
			c-0.071,0.287-0.107,0.809-0.107,1.568v2.114h-0.741V42.56z"/>
		<polygon id="XMLID_279_" fill="#FFFFFF" points="108.446,40.419 109.188,40.419 109.188,42.56 110.364,42.56 110.364,43.2 
			109.188,43.2 109.188,48.324 108.446,48.324 108.446,43.2 107.434,43.2 107.434,42.56 108.446,42.56 		"/>
		<path id="XMLID_275_" fill="#FFFFFF" d="M122.669,45.442l0.527,0.559c-0.338,0.3-0.659,0.561-0.964,0.777
			c0.212,0.195,0.487,0.464,0.829,0.804c0.27,0.269,0.5,0.515,0.694,0.742h-1.087l-1.035-1.065
			c-0.648,0.523-1.175,0.864-1.581,1.022c-0.406,0.159-0.836,0.239-1.288,0.239c-0.601,0-1.083-0.173-1.446-0.518
			c-0.365-0.345-0.547-0.773-0.547-1.289c0-0.391,0.123-0.779,0.368-1.17c0.246-0.39,0.747-0.884,1.502-1.481
			c-0.427-0.516-0.701-0.896-0.823-1.142c-0.121-0.244-0.184-0.479-0.184-0.702c0-0.388,0.151-0.708,0.452-0.963
			c0.346-0.297,0.776-0.444,1.293-0.444c0.324,0,0.621,0.065,0.89,0.195c0.269,0.131,0.474,0.307,0.614,0.526
			c0.141,0.222,0.212,0.456,0.212,0.703c0,0.261-0.092,0.539-0.276,0.834c-0.183,0.296-0.547,0.673-1.087,1.132l1.181,1.24
			l0.775,0.784C122.104,45.921,122.431,45.659,122.669,45.442 M119.155,44.651c-0.662,0.498-1.097,0.895-1.301,1.189
			c-0.206,0.295-0.309,0.568-0.309,0.82c0,0.296,0.126,0.558,0.377,0.786c0.251,0.228,0.56,0.342,0.924,0.342
			c0.275,0,0.546-0.056,0.812-0.17c0.418-0.18,0.896-0.485,1.437-0.918l-1.229-1.267C119.653,45.212,119.417,44.951,119.155,44.651
			 M119.25,43.619c0.379-0.294,0.663-0.582,0.855-0.863c0.134-0.202,0.2-0.38,0.2-0.536c0-0.18-0.086-0.335-0.263-0.466
			c-0.175-0.131-0.407-0.195-0.697-0.195c-0.277,0-0.503,0.066-0.677,0.2c-0.172,0.135-0.259,0.295-0.259,0.478
			c0,0.142,0.034,0.274,0.105,0.396C118.689,42.934,118.935,43.263,119.25,43.619"/>
		<path id="XMLID_271_" fill="#FFFFFF" d="M130.181,40.53h1.537c0.617,0,1.093,0.073,1.425,0.22s0.595,0.372,0.786,0.676
			c0.193,0.304,0.289,0.641,0.289,1.012c0,0.347-0.084,0.661-0.252,0.945c-0.17,0.285-0.418,0.516-0.744,0.692
			c0.404,0.137,0.717,0.299,0.936,0.484c0.218,0.185,0.387,0.41,0.51,0.673c0.121,0.263,0.182,0.549,0.182,0.856
			c0,0.625-0.229,1.153-0.687,1.586c-0.457,0.434-1.07,0.649-1.84,0.649h-2.142V40.53z M130.943,41.293v2.496h0.446
			c0.542,0,0.94-0.052,1.195-0.151c0.254-0.101,0.457-0.261,0.605-0.477c0.148-0.218,0.223-0.459,0.223-0.724
			c0-0.356-0.125-0.638-0.374-0.84c-0.25-0.203-0.647-0.305-1.192-0.305H130.943z M130.943,44.573v2.988h0.967
			c0.57,0,0.987-0.056,1.253-0.167s0.478-0.286,0.64-0.522c0.16-0.236,0.241-0.492,0.241-0.768c0-0.346-0.113-0.648-0.34-0.906
			c-0.227-0.259-0.537-0.435-0.934-0.53c-0.266-0.063-0.728-0.095-1.387-0.095H130.943z"/>
		<path id="XMLID_268_" fill="#FFFFFF" d="M142.71,42.56v5.764h-0.731v-0.99c-0.311,0.379-0.659,0.662-1.046,0.854
			c-0.387,0.189-0.811,0.286-1.27,0.286c-0.815,0-1.513-0.296-2.09-0.888c-0.578-0.592-0.866-1.312-0.866-2.16
			c0-0.83,0.29-1.539,0.874-2.129c0.582-0.59,1.283-0.885,2.104-0.885c0.472,0,0.899,0.101,1.284,0.302
			c0.384,0.202,0.719,0.504,1.009,0.905V42.56H142.71z M139.745,43.126c-0.412,0-0.793,0.102-1.144,0.304
			c-0.349,0.204-0.627,0.488-0.833,0.856c-0.207,0.365-0.31,0.755-0.31,1.163c0,0.406,0.104,0.795,0.313,1.165
			c0.207,0.37,0.487,0.658,0.839,0.865s0.729,0.31,1.129,0.31c0.406,0,0.791-0.103,1.155-0.308c0.362-0.205,0.643-0.48,0.839-0.83
			s0.294-0.743,0.294-1.182c0-0.666-0.221-1.223-0.66-1.671C140.929,43.351,140.388,43.126,139.745,43.126"/>
		<path id="XMLID_267_" fill="#FFFFFF" d="M145.57,42.56h0.759v0.842c0.225-0.331,0.465-0.579,0.715-0.744
			c0.252-0.164,0.512-0.247,0.784-0.247c0.204,0,0.424,0.065,0.657,0.196l-0.387,0.625c-0.155-0.066-0.287-0.101-0.393-0.101
			c-0.247,0-0.485,0.103-0.715,0.306s-0.405,0.518-0.525,0.946c-0.091,0.327-0.137,0.991-0.137,1.991v1.95h-0.759V42.56z"/>
		<path id="XMLID_266_" fill="#FFFFFF" d="M0,51.933l0.485-1.762c20.011,5.539,55.314,9.243,95.477,9.241
			c40.162,0.002,75.466-3.702,95.477-9.241v0.003l0.485,1.757c-20.31,5.612-55.675,9.303-95.962,9.307
			C55.675,61.233,20.31,57.543,0,51.933"/>
	</g>
</g>
</svg>
