<?xml version="1.0" encoding="utf-8"?>
<!-- Generator: Adobe Illustrator 19.0.0, SVG Export Plug-In . SVG Version: 6.00 Build 0)  -->
<svg version="1.1" id="Layer_1" xmlns="http://www.w3.org/2000/svg" xmlns:xlink="http://www.w3.org/1999/xlink" x="0px" y="0px"
	 viewBox="-458 259.4 42.5 59.6" style="enable-background:new -458 259.4 42.5 59.6;" xml:space="preserve">
<style type="text/css">
	.st0{fill:none;stroke:#A3A3A3;stroke-miterlimit:10;}
	.st1{fill:#A3A3A3;}
	.st2{font-family:'Altis';}
	.st3{font-size:12px;}
</style>
<g id="XMLID_52_">
	<circle id="XMLID_62_" class="st0" cx="-436.7" cy="281.1" r="19.9"/>
	<path id="XMLID_53_" class="st1" d="M-425.9,283.2C-425.9,283.2-425.9,283.1-425.9,283.2C-425.9,283.1-425.9,283.1-425.9,283.2
		c0-2.3-1.1-3.5-2.8-4.3v-1.1c0-2.2-1.6-3.5-4.4-3.5c-2.1,0-3.5,0.7-4.1,2c-0.7-1.1-2-1.7-3.9-1.7c-2.8,0-4.4,1.3-4.4,3.5v1
		c-1.2,0.8-2,2-2,4v4.1c0,0.4,0.3,0.8,0.8,0.8h1c0.4,0,0.8-0.3,0.8-0.8v-1.8h16.5v1.8c0,0.4,0.3,0.8,0.8,0.8h1
		c0.4,0,0.8-0.3,0.8-0.8L-425.9,283.2L-425.9,283.2z M-446.8,284.7v-1.1h20.1v1.1H-446.8L-446.8,284.7z M-436.7,277.8
		c0-2.5,2.5-2.8,3.6-2.8s3.6,0.3,3.6,2.8v0.8C-431.6,277.9-434.3,277.8-436.7,277.8L-436.7,277.8L-436.7,277.8L-436.7,277.8z
		 M-444.7,278.1c0-2.5,2.5-2.8,3.6-2.8s3.4,0.3,3.6,2.5c-2.6,0-5.3,0-7.2,0.9V278.1z M-437.1,278.6c2.8,0,5.8,0,7.8,0.8
		c0,0,0.1,0,0.1,0.1c1.4,0.6,2.3,1.6,2.4,3.2h-20C-446.5,278.9-442.6,278.6-437.1,278.6L-437.1,278.6z M-446.8,287.3v-1.9h1v1.8h-1
		V287.3z M-427.7,287.3v-1.9h1v1.8h-1V287.3z"/>
</g>
<text id="XMLID_12_" transform="matrix(1 0 0 1 -450.6157 316.9446)" class="st1 st2 st3">BEDS</text>
</svg>
