<?xml version="1.0" encoding="utf-8"?>
<!-- Generator: Adobe Illustrator 19.0.0, SVG Export Plug-In . SVG Version: 6.00 Build 0)  -->
<svg version="1.1" id="Layer_1" xmlns="http://www.w3.org/2000/svg" xmlns:xlink="http://www.w3.org/1999/xlink" x="0px" y="0px"
	 viewBox="-458 259.4 42.5 59.6" style="enable-background:new -458 259.4 42.5 59.6;" xml:space="preserve">
<style type="text/css">
	.st0{fill:#A3A3A3;}
	.st1{font-family:'Altis';}
	.st2{font-size:12px;}
	.st3{fill:none;stroke:#A3A3A3;stroke-miterlimit:10;}
</style>
<text id="XMLID_12_" transform="matrix(1 0 0 1 -450.832 316.9446)" class="st0 st1 st2">AREA</text>
<g id="XMLID_13_">
	<circle id="XMLID_1256_" class="st3" cx="-436.6" cy="281.1" r="19.9"/>
	<g id="XMLID_17996_">
		<g id="XMLID_134_">
			<g id="XMLID_135_">
				<path id="XMLID_136_" class="st0" d="M-426.8,288.5h-1.8v-14.9h1.8c0.2,0,0.3-0.1,0.3-0.3c0-0.2-0.1-0.3-0.3-0.3h-1.9v-1.9
					c0-0.2-0.1-0.3-0.3-0.3c-0.2,0-0.3,0.1-0.3,0.3v1.9H-444v-1.9c0-0.2-0.1-0.3-0.3-0.3c-0.2,0-0.3,0.1-0.3,0.3v1.9h-1.9
					c-0.2,0-0.3,0.1-0.3,0.3c0,0.2,0.1,0.3,0.3,0.3h1.9v14.9h-1.9c-0.2,0-0.3,0.1-0.3,0.3c0,0.2,0.1,0.3,0.3,0.3h1.9v1.9
					c0,0.2,0.1,0.3,0.3,0.3c0.2,0,0.3-0.1,0.3-0.3v-1.8h14.9v1.8c0,0.2,0.1,0.3,0.3,0.3c0.2,0,0.3-0.1,0.3-0.3v-1.9h1.9
					c0.2,0,0.3-0.1,0.3-0.3C-426.4,288.6-426.5,288.5-426.8,288.5L-426.8,288.5z M-439.2,288.5h-4.8v-4.8h4.8V288.5z M-439.2,283.5
					h-4.8v-4.8h4.8V283.5z M-439.2,278.4h-4.8v-4.8h4.8V278.4z M-434.2,288.5h-4.8v-4.8h4.8C-434.2,283.7-434.2,288.5-434.2,288.5z
					 M-434.2,283.5h-4.8v-4.8h4.8C-434.2,278.7-434.2,283.5-434.2,283.5z M-434.2,278.4h-4.8v-4.8h4.8
					C-434.2,273.6-434.2,278.4-434.2,278.4z M-429.1,288.5h-4.8v-4.8h4.8V288.5z M-429.1,283.5h-4.8v-4.8h4.8V283.5z M-429.1,278.4
					h-4.8v-4.8h4.8V278.4z"/>
			</g>
		</g>
	</g>
</g>
</svg>
