<?xml version="1.0" encoding="utf-8"?>
<!-- Generator: Adobe Illustrator 19.0.0, SVG Export Plug-In . SVG Version: 6.00 Build 0)  -->
<svg version="1.1" id="Layer_1" xmlns="http://www.w3.org/2000/svg" xmlns:xlink="http://www.w3.org/1999/xlink" x="0px" y="0px"
	 viewBox="-20 31.1 23.9 23.9" style="enable-background:new -20 31.1 23.9 23.9;" xml:space="preserve">
<style type="text/css">
	.st0{fill:#FFFFFF;}
</style>
<g>
	<circle class="st0" cx="-3" cy="38" r="1.9"/>
	<path class="st0" d="M-18.9,32.4v14v1.5v6H2.9v-2.6v-1.6V32.4H-18.9z M-1.2,45.6C-1.5,45.2-2,45-2.6,45c0,0,0,0,0,0l0,0
		c-0.4,0-0.9,0.1-1.2,0.4c0,0-0.1,0.1-0.1,0.1l-2.4,2.2l-4.5-6c-0.4-0.5-0.9-0.7-1.5-0.7c-0.4,0-0.9,0.2-1.2,0.5l-4.4,3.9V33.5H1.8
		v15.1L-1.2,45.6z"/>
</g>
</svg>
