<?xml version="1.0" encoding="utf-8"?>
<!-- Generator: Adobe Illustrator 16.0.0, SVG Export Plug-In . SVG Version: 6.00 Build 0)  -->
<!DOCTYPE svg PUBLIC "-//W3C//DTD SVG 1.1//EN" "http://www.w3.org/Graphics/SVG/1.1/DTD/svg11.dtd">
<svg version="1.1" id="Layer_1" xmlns="http://www.w3.org/2000/svg" xmlns:xlink="http://www.w3.org/1999/xlink" x="0px" y="0px"
	 width="33.576px" height="36.166px" viewBox="0 0 33.576 36.166" enable-background="new 0 0 33.576 36.166" xml:space="preserve">
<path id="XMLID_5837_" fill="#FFFFFF" d="M29.001,5.047c-2.782-2.332-6.432-3.666-10.333-3.787V0.586
	C18.668,0.262,18.406,0,18.082,0c-0.322,0-0.586,0.262-0.586,0.586V1.26C13.597,1.381,9.947,2.715,7.164,5.047
	c-2.951,2.474-4.576,5.771-4.576,9.287c0,0.231,0.138,0.441,0.35,0.535c0.213,0.094,0.46,0.054,0.631-0.103
	c0.924-0.842,2.676-1.365,4.575-1.365s3.651,0.523,4.575,1.365c0.223,0.204,0.565,0.204,0.789,0c0.827-0.755,2.32-1.253,3.988-1.348
	v15.326H15.51l-1.84-2.577h1.288c0.323,0,0.587-0.263,0.587-0.586s-0.264-0.586-0.587-0.586H6.351l-3.022-4.23
	c-0.283-0.399-0.707-0.663-1.191-0.744c-0.483-0.081-0.971,0.032-1.368,0.317c-0.824,0.588-1.016,1.737-0.427,2.561l6.249,8.749
	c0.075,0.105,0.162,0.202,0.257,0.288l-0.592,3.548c-0.053,0.319,0.163,0.621,0.482,0.674c0.032,0.006,0.064,0.008,0.097,0.008
	c0.281,0,0.53-0.203,0.577-0.489l0.545-3.265C8,32.415,8.041,32.417,8.084,32.417h9.412v3.164c0,0.323,0.264,0.585,0.586,0.585
	c0.324,0,0.586-0.262,0.586-0.585v-3.164h11.416l0.544,3.26c0.048,0.286,0.296,0.489,0.577,0.489c0.032,0,0.064-0.002,0.098-0.008
	c0.318-0.053,0.535-0.355,0.48-0.674l-0.511-3.069c0.981-0.035,1.77-0.844,1.77-1.834c0-1.013-0.823-1.836-1.836-1.836H18.668
	V13.419c1.668,0.095,3.162,0.593,3.989,1.348c0.224,0.204,0.565,0.204,0.79,0c0.923-0.842,2.676-1.365,4.574-1.365
	s3.652,0.523,4.574,1.365c0.111,0.101,0.252,0.153,0.396,0.153c0.08,0,0.16-0.017,0.237-0.051c0.211-0.094,0.348-0.304,0.348-0.535
	C33.577,10.818,31.952,7.521,29.001,5.047L29.001,5.047z M12.229,26.168l1.842,2.577H9.029l-1.842-2.577H12.229z M31.87,30.581
	c0,0.366-0.298,0.664-0.664,0.664H8.084c-0.214,0-0.416-0.104-0.54-0.278l-6.249-8.748c-0.104-0.145-0.144-0.32-0.115-0.496
	c0.029-0.174,0.125-0.328,0.27-0.431c0.114-0.081,0.247-0.124,0.385-0.124c0.036,0,0.073,0.003,0.11,0.01
	c0.175,0.029,0.328,0.124,0.431,0.269l5.876,8.226c0.11,0.154,0.288,0.245,0.477,0.245h6.481l0.002,0.001v-0.001h15.995
	C31.572,29.917,31.87,30.215,31.87,30.581L31.87,30.581z M21.053,5.69c0.813,2.031,1.299,4.669,1.396,7.517
	c-1.153-0.622-2.7-0.977-4.366-0.977c-1.665,0-3.212,0.354-4.365,0.977c0.096-2.848,0.583-5.485,1.396-7.517
	c0.83-2.078,1.913-3.27,2.969-3.27C19.139,2.421,20.221,3.612,21.053,5.69L21.053,5.69z M3.826,13.179
	C4.445,7.853,9.299,3.541,15.545,2.609c-0.566,0.658-1.08,1.547-1.52,2.646c-0.868,2.167-1.385,4.966-1.481,7.97
	c-1.156-0.633-2.718-0.995-4.4-0.995C6.502,12.23,4.975,12.574,3.826,13.179L3.826,13.179z M28.021,12.23
	c-1.683,0-3.244,0.362-4.4,0.995c-0.097-3.004-0.613-5.803-1.48-7.97c-0.439-1.1-0.953-1.988-1.521-2.646
	c6.246,0.932,11.101,5.243,11.719,10.569C31.191,12.574,29.664,12.23,28.021,12.23L28.021,12.23z M28.021,12.23"/>
</svg>
