<?xml version="1.0" encoding="utf-8"?>
<!-- Generator: Adobe Illustrator 19.0.0, SVG Export Plug-In . SVG Version: 6.00 Build 0)  -->
<svg version="1.1" id="Layer_1" xmlns="http://www.w3.org/2000/svg" xmlns:xlink="http://www.w3.org/1999/xlink" x="0px" y="0px"
	 viewBox="-733 450.6 100 102.9" style="enable-background:new -733 450.6 100 102.9;" xml:space="preserve">
<style type="text/css">
	.st0{fill:#FFFFFF;}
</style>
<path class="st0" d="M-697,553.3c-2.2,0-4-1.8-4-4v-2l-0.1,0c-23.6-7.7-27.8-44.6-27.9-45c-0.1-0.4,0.1-0.6,0.3-0.9
	c0.2-0.2,0.5-0.3,0.7-0.3h4.8l0-0.2c2.9-11.6,13.3-19.7,25.2-19.7c4.5,0,9,1.2,13.2,3.7l2.4,0.3l2.3,0.3
	c15.2,2.4,28.7,8.1,37.1,15.6l0.1,0.1h4.9c0.3,0,0.6,0.1,0.7,0.3c0.3,0.2,0.4,0.5,0.3,0.8c0,0.4-4.3,37.4-27.9,45.1l-0.1,0v2
	c0,2.2-1.8,4-4,4H-697z M-699,549.2c0,1.1,0.9,2,2,2h27.9c1.1,0,2-0.9,2-2v-1.4l-0.2,0c-2.3,0.5-4.5,0.7-6.5,0.7h-18.5
	c-2.5,0-4.6-0.2-6.5-0.7l-0.2-0.1V549.2z M-726.7,503.2c0.9,6,6.3,36.3,27.1,42.2c2.6,0.7,5,1,7.4,1h18.4c25.8,0,33-33,34.6-43.2
	l0-0.2h-87.6L-726.7,503.2z M-680.7,487.8c1,0.8,1.8,1.7,2.6,2.6l0,0.1l0.1,0c10.5,1.7,20,5.4,26.6,10.5l0.1,0h5.2l-0.5-0.4
	c-8.3-6.4-20.2-11-33.6-13.1l-0.9,0L-680.7,487.8z M-675.9,493.4c0.4,0.5,0.7,1.2,1,1.9l0.3,0.6l0.1,0c5.3,1.1,10,2.8,14,5.1l0,0
	h5.5l-0.6-0.4c-5.5-3.4-12.5-6-20.2-7.5l-0.5-0.1L-675.9,493.4z M-673.5,498.5c0.3,0.7,0.5,1.4,0.7,2.3l0,0.2h6.6l0.1-0.4
	c-2.3-1-4.7-1.7-7.1-2.3l-0.4-0.1L-673.5,498.5z M-698,486.1c9.2,0,17.3,5.9,20.1,14.8l0,0.1h3l-0.1-0.3
	c-2.9-10.3-12.4-17.5-23.1-17.5c-10.7,0-20.2,7.2-23,17.5l-0.1,0.3h3l0-0.1C-715.3,492.1-707.1,486.1-698,486.1z M-698,491.1
	c6.5,0,12.2,3.8,14.7,9.8l0.1,0.1h3.1l-0.1-0.3c-2.6-7.5-9.8-12.5-17.8-12.5s-15.2,5-17.8,12.5l-0.1,0.3h3.1l0.1-0.1
	C-710.2,494.9-704.5,491.1-698,491.1z M-698,496.1c3.6,0,7,1.8,9.2,4.8l0.1,0.1h3.3l-0.2-0.3c-2.5-4.6-7.2-7.5-12.4-7.5
	s-9.9,2.9-12.4,7.5l-0.2,0.3h3.3l0.1-0.1C-705,497.8-701.7,496.1-698,496.1z M-698,498.2c-2.3,0-4.4,0.9-6.1,2.5l-0.4,0.3h13
	l-0.4-0.3C-693.6,499-695.7,498.2-698,498.2z"/>
<path class="st0" d="M-726,476.8l2.1-2.2l11,10.8c-0.6,0.4-1.3,0.9-1.9,1.5L-726,476.8z"/>
<path class="st0" d="M-725.3,467.1l2.4-1.8l13.3,18.1c-0.6,0.3-1.3,0.7-1.9,1L-725.3,467.1z"/>
</svg>
