<?xml version="1.0" encoding="utf-8"?>
<!-- Generator: Adobe Illustrator 19.0.0, SVG Export Plug-In . SVG Version: 6.00 Build 0)  -->
<svg version="1.1" id="Layer_1" xmlns="http://www.w3.org/2000/svg" xmlns:xlink="http://www.w3.org/1999/xlink" x="0px" y="0px"
	 viewBox="0 0 29.2 49.3" style="enable-background:new 0 0 29.2 49.3;" xml:space="preserve">
<style type="text/css">
	.st0{fill:#FFFFFF;}
</style>
<g>
	<path class="st0" d="M24.7,0.6H4.5C2.6,0.6,1,2.2,1,4.2v41c0,1.9,1.6,3.5,3.5,3.5h20.2c1.9,0,3.5-1.6,3.5-3.5v-41
		C28.2,2.2,26.6,0.6,24.7,0.6L24.7,0.6z M2.6,7h24v30.4h-24V7z M4.5,2.2h20.2c1.1,0,1.9,0.9,1.9,1.9v1.3h-24V4.2
		C2.6,3.1,3.5,2.2,4.5,2.2L4.5,2.2z M24.7,47H4.5c-1.1,0-1.9-0.9-1.9-1.9V39h24v6.1C26.6,46.2,25.7,47,24.7,47L24.7,47z M24.7,47"/>
	<path class="st0" d="M14.6,39.8c-1.8,0-3.2,1.4-3.2,3.2c0,1.8,1.4,3.2,3.2,3.2c1.8,0,3.2-1.4,3.2-3.2
		C17.8,41.3,16.4,39.8,14.6,39.8L14.6,39.8z M14.6,44.6c-0.9,0-1.6-0.7-1.6-1.6c0-0.9,0.7-1.6,1.6-1.6c0.9,0,1.6,0.7,1.6,1.6
		C16.2,43.9,15.5,44.6,14.6,44.6L14.6,44.6z M14.6,44.6"/>
	<path class="st0" d="M11.4,4.6h3.2c0.4,0,0.8-0.4,0.8-0.8C15.4,3.4,15,3,14.6,3h-3.2c-0.4,0-0.8,0.4-0.8,0.8
		C10.6,4.3,11,4.6,11.4,4.6L11.4,4.6z M11.4,4.6"/>
	<g>
		<path class="st0" d="M17,4.6h0.8c0.4,0,0.8-0.4,0.8-0.8c0-0.4-0.4-0.8-0.8-0.8H17c-0.4,0-0.8,0.4-0.8,0.8
			C16.2,4.3,16.6,4.6,17,4.6L17,4.6z M17,4.6"/>
	</g>
</g>
</svg>
