<?xml version="1.0" encoding="utf-8"?>
<!-- Generator: Adobe Illustrator 19.0.0, SVG Export Plug-In . SVG Version: 6.00 Build 0)  -->
<svg version="1.1" id="Layer_1" xmlns="http://www.w3.org/2000/svg" xmlns:xlink="http://www.w3.org/1999/xlink" x="0px" y="0px"
	 viewBox="0 0 85 85" style="enable-background:new 0 0 85 85;" xml:space="preserve">
<style type="text/css">
	.st0{fill:#FFFFFF;}
</style>
<path id="XMLID_52_" class="st0" d="M24.1,75c-1.9,0-3.7-0.5-5.3-1.6c-1.6-1-2.8-2.5-3.6-4.2c-0.5-1.2-0.8-2.5-0.8-3.8
	c0-1.3,0.3-2.6,0.8-3.8c0.5-1.2,1.2-2.2,2.1-3c1.8-1.8,4.2-2.7,6.7-2.7c1.4,0,2.9,0.3,4.2,1l4.8,2.4c0.3,0.2,0.6,0.5,0.7,0.8
	c0.1,0.4,0.1,0.7-0.1,1.1c-0.2,0.5-0.7,0.8-1.3,0.8c-0.2,0-0.4,0-0.6-0.1l-4.8-2.4c-0.9-0.5-1.9-0.7-3-0.7c-1.3,0-2.6,0.4-3.7,1.1
	c-1.1,0.7-2,1.8-2.5,2.9c-0.4,0.8-0.6,1.8-0.6,2.7c0,1.4,0.4,2.7,1.2,3.8c0.7,1.1,1.8,1.9,3,2.4c0.8,0.3,1.7,0.5,2.5,0.5
	c1,0,2-0.2,3-0.7l29.9-14.7c1.3-0.6,2.8-1,4.2-1c1.9,0,3.7,0.5,5.3,1.6c1.6,1,2.8,2.5,3.6,4.2c0.5,1.2,0.8,2.5,0.8,3.9
	c0,1.3-0.3,2.6-0.8,3.8c-0.5,1.1-1.2,2.2-2.1,3C66.1,74,63.7,75,61.2,75c-1.4,0-2.9-0.3-4.2-1l-4.8-2.4c-0.7-0.3-1-1.2-0.7-1.9
	c0.2-0.5,0.7-0.8,1.3-0.8c0.2,0,0.4,0,0.6,0.1l4.8,2.4c0.9,0.5,1.9,0.7,3,0.7c1.3,0,2.6-0.4,3.7-1.1c1.1-0.7,2-1.8,2.5-2.9
	c0.4-0.8,0.6-1.8,0.6-2.7c0-1.4-0.4-2.7-1.2-3.9c-0.7-1.1-1.8-1.9-3-2.4c-0.8-0.3-1.7-0.5-2.5-0.5c-1,0-2,0.2-3,0.7L28.3,74
	C27,74.7,25.5,75,24.1,75z"/>
<path id="XMLID_51_" class="st0" d="M42.6,52.7c-3.9,0-7.7-1.2-11-3.4c-2.8-1.9-5.2-4.6-6.8-7.8c-1.7-3.2-2.6-6.9-2.6-10.6
	c0-3.7,0.9-7.4,2.6-10.6c1.6-3.1,4-5.8,6.8-7.8c0.2-0.2,0.5-0.2,0.8-0.2c0.5,0,0.9,0.2,1.2,0.6c0.2,0.3,0.3,0.7,0.2,1.1
	c-0.1,0.4-0.3,0.7-0.6,0.9c-2.5,1.7-4.5,4-5.9,6.7c-1.5,2.8-2.3,6-2.3,9.3c0,3.3,0.8,6.5,2.3,9.3c1.4,2.7,3.5,5.1,5.9,6.7
	c2.8,1.9,6,2.9,9.3,2.9c3.2,0,6.3-1,9.1-2.7l0.3-0.2c2.4-1.7,4.5-4,5.9-6.7c1.5-2.8,2.3-6,2.3-9.3c0-3.3-0.8-6.5-2.3-9.3
	c-1.4-2.7-3.5-5.1-5.9-6.7c-0.3-0.2-0.5-0.5-0.6-0.9c-0.1-0.4,0-0.8,0.2-1.1c0.3-0.4,0.7-0.6,1.2-0.6c0.3,0,0.6,0.1,0.8,0.3
	c2.8,1.9,5.2,4.6,6.8,7.8c1.7,3.2,2.6,6.9,2.6,10.6c0,3.7-0.9,7.4-2.6,10.6c-0.8,1.6-1.8,3-3,4.3c-1.2,1.3-2.5,2.5-3.9,3.4
	C50.3,51.5,46.5,52.7,42.6,52.7z"/>
<path id="XMLID_53_" class="st0" d="M42.6,35.9c-1.7,0-3.4-0.5-4.8-1.5c-1.4-0.9-2.5-2.2-3.1-3.8c-0.4-1.1-0.7-2.2-0.7-3.3
	c0-1.7,0.5-3.4,1.5-4.8c0.9-1.4,2.2-2.5,3.8-3.1c1.1-0.4,2.2-0.7,3.3-0.7c1.7,0,3.4,0.5,4.8,1.5c1.4,0.9,2.5,2.2,3.1,3.8
	c0.4,1.1,0.7,2.2,0.7,3.3c0,1.7-0.5,3.4-1.5,4.8c-0.9,1.4-2.2,2.5-3.8,3.1C44.9,35.7,43.8,35.9,42.6,35.9z M42.6,21.6
	c-1.1,0-2.2,0.3-3.2,1c-0.9,0.6-1.6,1.5-2.1,2.5c-0.3,0.7-0.4,1.5-0.4,2.2c0,1.1,0.3,2.2,1,3.2c0.6,0.9,1.5,1.6,2.5,2.1
	c0.7,0.3,1.4,0.4,2.2,0.4c1.1,0,2.2-0.3,3.2-1c0.9-0.6,1.6-1.5,2.1-2.5c0.3-0.7,0.4-1.4,0.4-2.2c0-1.1-0.3-2.2-1-3.2
	c-0.6-0.9-1.5-1.6-2.5-2.1C44.1,21.8,43.4,21.6,42.6,21.6z"/>
</svg>
