<?xml version="1.0" encoding="utf-8"?>
<!-- Generator: Adobe Illustrator 19.0.0, SVG Export Plug-In . SVG Version: 6.00 Build 0)  -->
<svg version="1.1" id="Layer_1" xmlns="http://www.w3.org/2000/svg" xmlns:xlink="http://www.w3.org/1999/xlink" x="0px" y="0px"
	 viewBox="0 0 85 85" style="enable-background:new 0 0 85 85;" xml:space="preserve">
<style type="text/css">
	.st0{fill:#FFFFFF;}
</style>
<path id="XMLID_2077_" class="st0" d="M41.9,77.8c19.5,0.3,35.5-15.2,35.9-34.7C78.1,23.6,62.6,7.6,43.1,7.2
	C23.6,6.9,7.6,22.5,7.2,41.9C6.9,61.4,22.5,77.5,41.9,77.8z M75.2,48.7c-3.3,14.1-14.4,19-14.4,19c4.7-2.4,7.6-10.9,2-15
	c-4.6-3.4-8.9,0.4-8.9,0.4c6-1.9,10.5,2.4,8.4,8.5c-2.2,6.2-6.6,2.8-6.6,2.8c-8.9-7.6-11.8-21-11.8-21
	C58.4,38.9,75.2,48.7,75.2,48.7z M48.7,9.8c14.1,3.3,19,14.5,19,14.5c-2.4-4.7-10.9-7.6-15-2c-3.4,4.6,0.4,8.9,0.4,8.9
	c-1.9-6,2.4-10.5,8.5-8.4s2.9,6.6,2.9,6.6c-7.6,8.9-21,11.8-21,11.8C38.9,26.7,48.7,9.8,48.7,9.8z M36.4,75.2
	c-14.1-3.3-19-14.4-19-14.4c2.4,4.7,10.9,7.6,15,2c3.4-4.7-0.4-8.9-0.4-8.9c1.9,6-2.4,10.5-8.5,8.4c-6.2-2.2-2.8-6.6-2.8-6.6
	c7.6-8.9,21-11.9,21-11.9C46.1,58.4,36.4,75.2,36.4,75.2z M24.3,17.4c-4.7,2.4-7.6,10.9-2,15c4.6,3.4,8.9-0.4,8.9-0.4
	c-6,1.9-10.5-2.4-8.4-8.5c2.2-6.2,6.6-2.8,6.6-2.8c8.9,7.6,11.8,21,11.8,21c-14.6,4.6-31.4-5.2-31.4-5.2
	C13.1,22.2,24.3,17.4,24.3,17.4z"/>
</svg>
