<?xml version="1.0" encoding="utf-8"?>
<!-- Generator: Adobe Illustrator 16.0.0, SVG Export Plug-In . SVG Version: 6.00 Build 0)  -->
<!DOCTYPE svg PUBLIC "-//W3C//DTD SVG 1.1//EN" "http://www.w3.org/Graphics/SVG/1.1/DTD/svg11.dtd">
<svg version="1.1" id="Layer_1" xmlns="http://www.w3.org/2000/svg" xmlns:xlink="http://www.w3.org/1999/xlink" x="0px" y="0px"
	 width="50.564px" height="50.563px" viewBox="0 0 50.564 50.563" enable-background="new 0 0 50.564 50.563" xml:space="preserve">
<g id="XMLID_1807_">
	<path id="XMLID_1811_" fill="#77A7B3" d="M50.564,25.281c0,13.963-11.319,25.282-25.282,25.282S0,39.244,0,25.281
		S11.319,0,25.282,0S50.564,11.318,50.564,25.281"/>
	<g id="XMLID_1808_">
		<defs>
			<rect id="XMLID_1809_" x="9.702" y="15.591" width="30.998" height="22"/>
		</defs>
		<clipPath id="XMLID_2_">
			<use xlink:href="#XMLID_1809_"  overflow="visible"/>
		</clipPath>
		<path id="XMLID_1810_" clip-path="url(#XMLID_2_)" fill="#FFFFFF" d="M36.771,25.21c1.729-0.142,2.902-0.929,3.354-1.995
			c-0.623,0.383-2.561,0.8-3.632,0.403c-0.051-0.251-0.108-0.49-0.166-0.705c-0.815-2.994-3.605-5.405-6.53-5.113
			c0.236-0.095,0.477-0.185,0.716-0.264c0.323-0.115,2.211-0.423,1.913-1.089c-0.25-0.588-2.559,0.441-2.992,0.576
			c0.573-0.217,1.521-0.586,1.622-1.246c-0.877,0.121-1.739,0.537-2.406,1.141c0.241-0.259,0.423-0.575,0.462-0.914
			c-2.343,1.497-3.711,4.514-4.818,7.442c-0.871-0.844-1.642-1.507-2.332-1.875c-1.942-1.042-4.262-2.125-7.902-3.479
			c-0.112,1.207,0.595,2.807,2.635,3.873c-0.443-0.058-1.25,0.074-1.896,0.227c0.265,1.381,1.123,2.519,3.449,3.068
			c-1.063,0.07-1.612,0.313-2.11,0.834c0.485,0.959,1.666,2.09,3.791,1.858c-2.362,1.017-0.964,2.905,0.959,2.623
			c-3.28,3.388-8.452,3.139-11.421,0.305c7.754,10.567,24.608,6.249,27.121-3.928c1.882,0.015,2.987-0.653,3.675-1.388
			C39.175,25.748,37.604,25.557,36.771,25.21"/>
	</g>
</g>
</svg>
