<?xml version="1.0" encoding="iso-8859-1"?>
<!-- Generator: Adobe Illustrator 19.0.0, SVG Export Plug-In . SVG Version: 6.00 Build 0)  -->
<svg version="1.1" id="Layer_1" xmlns="http://www.w3.org/2000/svg" xmlns:xlink="http://www.w3.org/1999/xlink" x="0px" y="0px"
	 viewBox="188.479 375.953 37.043 42.094" style="enable-background:new 188.479 375.953 37.043 42.094;" xml:space="preserve">
<g transform="translate(1 1)">
	<path style="fill:#FFFFFF;" d="M205.375,404.754h-1.251c-0.688,0-1.251-0.563-1.251-1.251v-6.878c0-0.375,0.25-0.625,0.625-0.625
		H206c0.375,0,0.625,0.25,0.625,0.625v6.878C206.625,404.191,206.063,404.754,205.375,404.754z M204.124,397.251v6.253h1.251v-6.253
		H204.124z"/>
	<path style="fill:#FFFFFF;" d="M207.876,402.253H206c-0.375,0-0.625-0.25-0.625-0.625v-5.002c0-0.375,0.25-0.625,0.625-0.625h2.501
		c0.375,0,0.625,0.25,0.625,0.625v4.377C209.126,401.69,208.564,402.253,207.876,402.253z M207.876,401.002v0.625V401.002
		L207.876,401.002z M206.625,401.002h1.251v-3.752h-1.251V401.002z"/>
	<path style="fill:#FFFFFF;" d="M214.129,399.752h-5.627c-0.375,0-0.625-0.25-0.625-0.625v-2.501c0-0.375,0.25-0.625,0.625-0.625
		h5.627c0.688,0,1.251,0.563,1.251,1.251v1.251C215.379,399.189,214.816,399.752,214.129,399.752z M209.126,398.501h5.002v-1.251
		h-5.002V398.501z"/>
	<path style="fill:#FFFFFF;" d="M203.499,399.752h-5.627c-0.688,0-1.251-0.563-1.251-1.251v-1.251c0-0.688,0.563-1.251,1.251-1.251
		h5.627c0.375,0,0.625,0.25,0.625,0.625v2.501C204.124,399.502,203.874,399.752,203.499,399.752z M197.871,397.251v1.251h5.002
		v-1.251H197.871z"/>
	<path style="fill:#FFFFFF;" d="M212.253,414.758h-12.506c-1.063,0-1.876-0.813-1.876-1.876v-13.756c0-0.375,0.25-0.625,0.625-0.625
		h5.002c0.375,0,0.625,0.25,0.625,0.625v4.377h1.251v-1.876c0-0.375,0.25-0.625,0.625-0.625h1.876v-1.876
		c0-0.375,0.25-0.625,0.625-0.625h5.002c0.375,0,0.625,0.25,0.625,0.625v13.756C214.129,413.945,213.316,414.758,212.253,414.758z
		 M199.122,399.752v13.131c0,0.375,0.25,0.625,0.625,0.625h12.506c0.375,0,0.625-0.25,0.625-0.625v-13.131h-3.752v1.251
		c0,0.688-0.563,1.251-1.251,1.251h-1.251v1.251c0,0.688-0.563,1.251-1.251,1.251h-1.251c-0.688,0-1.251-0.563-1.251-1.251v-3.752
		H199.122z"/>
	<path style="fill:#FFFFFF;" d="M218.756,402.003c-0.813,0-1.563-0.563-1.813-1.376l-2.626-9.567c0-0.063-0.188-0.063-0.188,0v5.565
		c0,0.375-0.25,0.625-0.625,0.625h-15.007c-0.375,0-0.625-0.25-0.625-0.625v-5.565c0-0.063-0.125-0.125-0.188,0l-2.626,9.567
		c-0.25,1-1.313,1.563-2.314,1.313l-2.439-0.625c-1-0.25-1.563-1.313-1.313-2.314l3.251-12.506c0.063-0.25,0.125-0.5,0.188-0.75
		c0.25-1.063,0.5-2.188,1.125-3.189c2.001-3.251,5.878-5.315,9.879-5.315h5.19c4.002,0,7.878,2.063,9.817,5.315
		c0.625,1,0.875,2.126,1.126,3.189c0.063,0.25,0.125,0.5,0.188,0.75l3.251,12.506c0.25,1-0.313,2.001-1.313,2.314l-2.439,0.625
		C219.068,401.94,218.943,402.003,218.756,402.003z M214.191,389.747c0.625,0,1.126,0.375,1.313,1l2.626,9.567
		c0.063,0.313,0.438,0.5,0.75,0.438l2.439-0.625c0.313-0.062,0.5-0.438,0.438-0.75l-3.251-12.506l0,0
		c-0.063-0.25-0.125-0.5-0.188-0.75c-0.25-1-0.5-2.001-1-2.814c-1.688-2.939-5.127-4.815-8.754-4.815h-5.19
		c-3.564,0-7.003,1.876-8.754,4.69c-0.5,0.875-0.688,1.813-0.938,2.814c-0.063,0.25-0.125,0.5-0.188,0.75l-3.251,12.506
		c-0.063,0.313,0.125,0.688,0.438,0.75l2.439,0.625c0.313,0.063,0.688-0.125,0.75-0.438l2.626-9.567c0.188-0.563,0.688-1,1.313-1
		c0.75,0,1.313,0.625,1.313,1.313V396h13.756v-4.94C212.878,390.373,213.503,389.747,214.191,389.747z"/>
	<path style="fill:#FFFFFF;" d="M206,390.998c-0.313,0-0.5-0.188-0.625-0.438l-3.376-12.506c-0.063-0.188,0-0.375,0.063-0.5
		c0.125-0.125,0.25-0.25,0.438-0.25c0.375-0.063,0.625-0.063,0.938-0.063h5.19c0.313,0,0.563,0,0.875,0.063
		c0.188,0,0.375,0.125,0.438,0.25c0.125,0.125,0.125,0.375,0.063,0.5l-3.376,12.443C206.563,390.81,206.313,390.998,206,390.998z
		 M203.436,378.492l2.564,9.504l2.626-9.504l0,0H203.436L203.436,378.492z"/>
	<path style="fill:#FFFFFF;" d="M204.749,397.251c-0.063,0-0.063,0-0.125,0c-0.313-0.063-0.563-0.375-0.5-0.75l1.251-6.253
		c0.063-0.313,0.375-0.563,0.75-0.5c0.313,0.063,0.563,0.375,0.5,0.75l-1.251,6.253
		C205.312,397.063,205.062,397.251,204.749,397.251z"/>
</g>
</svg>
