<?xml version="1.0" encoding="utf-8"?>
<!-- Generator: Adobe Illustrator 19.0.0, SVG Export Plug-In . SVG Version: 6.00 Build 0)  -->
<svg version="1.1" id="Layer_1" xmlns="http://www.w3.org/2000/svg" xmlns:xlink="http://www.w3.org/1999/xlink" x="0px" y="0px"
	 viewBox="-715.4 475.3 64.8 49.6" style="enable-background:new -715.4 475.3 64.8 49.6;" xml:space="preserve">
<style type="text/css">
	.st0{fill:none;stroke:#FFFFFF;stroke-linecap:round;stroke-linejoin:round;}
	.st1{fill:#FFFFFF;}
</style>
<title>Plan de travail 10</title>
<g>
	<polyline class="st0" points="-674,502.4 -701.9,502.4 -704.8,494.9 -674,494.9 	"/>
	<polyline class="st0" points="-674,502.4 -666.2,502.4 -663.3,494.9 -674,494.9 	"/>
	<path class="st0" d="M-707.9,491.5h47.7c0.9,0,1.7,0.7,1.7,1.7l0,0c0,0.9-0.7,1.7-1.7,1.7h-47.7c-0.9,0-1.7-0.7-1.7-1.7l0,0
		C-709.6,492.3-708.8,491.5-707.9,491.5z"/>
	<path class="st0" d="M-698.3,491.5c0-2.4,1.9-4.3,4.3-4.3c2.4,0,4.3,1.9,4.3,4.3"/>
	<path class="st0" d="M-700,491.3c0-3.3,2.7-6,6-6c3.3,0,6,2.7,6,6"/>
	<path class="st0" d="M-701.8,491.3c0-4.3,3.5-7.9,7.9-7.9c4.3,0,7.9,3.5,7.9,7.9"/>
	<path class="st0" d="M-703.4,491.2c-0.2-5.2,3.9-9.5,9.1-9.7c5.2-0.2,9.5,3.9,9.7,9.1c0,0.2,0,0.4,0,0.6"/>
	<path class="st0" d="M-696.2,491.2c0-1.2,1-2.3,2.3-2.3c1.2,0,2.3,1,2.3,2.3l0,0"/>
	<path class="st0" d="M-678.5,491.3c0-2.4,1.9-4.3,4.3-4.3c2.4,0,4.3,1.9,4.3,4.3"/>
	<path class="st0" d="M-680.2,491.2c0-3.3,2.7-6,6-6c3.3,0,6,2.7,6,6"/>
	<path class="st0" d="M-682,491.2c0-4.3,3.5-7.9,7.9-7.9c4.3,0,7.9,3.5,7.9,7.9"/>
	<path class="st0" d="M-683.6,491c-0.2-5.2,3.9-9.5,9.1-9.7c5.2-0.2,9.5,3.9,9.7,9.1c0,0.2,0,0.4,0,0.6"/>
	<path class="st0" d="M-676.4,491c0-1.2,1-2.3,2.3-2.3c1.2,0,2.3,1,2.3,2.3"/>
	<path class="st0" d="M-687.3,484.4c1.6-1.8,4.3-1.9,6.1-0.3c0.1,0.1,0.1,0.1,0.2,0.2"/>
	<path class="st0" d="M-688.7,483.2c2.1-2.5,5.9-2.9,8.5-0.7c0.2,0.2,0.4,0.4,0.6,0.6"/>
	<path class="st0" d="M-690.3,482.3c2.7-3.4,7.6-4.1,11-1.4c0.5,0.4,0.9,0.8,1.3,1.2"/>
	<path class="st0" d="M-692,481.8c2.7-4.4,8.5-5.7,12.8-3c1.1,0.7,2,1.6,2.8,2.7"/>
	<path class="st0" d="M-686,485.7c0.4-0.6,1.1-1,1.9-1c0.8-0.1,1.6,0.4,1.9,1.1"/>
</g>
<path class="st1" d="M-663,524.9c-0.3,0-0.5-0.2-0.5-0.5v-4.5h-39v4.5c0,0.3-0.2,0.5-0.5,0.5s-0.5-0.2-0.5-0.5v-4.5h-4.5
	c-0.3,0-0.5-0.2-0.5-0.5s0.2-0.5,0.5-0.5h4.5v-10h-10v-7h61v7h-10v10h4.5c0.3,0,0.5,0.2,0.5,0.5s-0.2,0.5-0.5,0.5h-4.5v4.5
	C-662.5,524.7-662.7,524.9-663,524.9z M-702.5,518.9h39v-10h-39V518.9z M-712.5,507.9h59v-5h-59V507.9z"/>
</svg>
