<?xml version="1.0" encoding="utf-8"?>
<!-- Generator: Adobe Illustrator 19.0.0, SVG Export Plug-In . SVG Version: 6.00 Build 0)  -->
<svg version="1.1" id="Layer_1" xmlns="http://www.w3.org/2000/svg" xmlns:xlink="http://www.w3.org/1999/xlink" x="0px" y="0px"
	 viewBox="0 0 85 85" style="enable-background:new 0 0 85 85;" xml:space="preserve">
<style type="text/css">
	.st0{fill:#FFFFFF;}
</style>
<g>
	<path class="st0" d="M73.4,25.2c-3.1,0-4.6-1.4-6-2.7c-1.2-1.1-2.2-2-4.3-2c-2.1,0-3.1,0.9-4.3,2c-1.4,1.3-2.9,2.7-6,2.7
		s-4.6-1.4-6-2.7c-1.2-1.1-2.2-2-4.3-2c-2.1,0-3.1,0.9-4.3,2c-1.4,1.3-2.9,2.7-6,2.7c-3.1,0-4.6-1.4-6-2.7c-1.2-1.1-2.2-2-4.3-2
		c-2.1,0-3.1,0.9-4.3,2c-1.4,1.3-2.9,2.7-6,2.7c-3.1,0-4.6-1.4-6-2.7c-1.2-1.1-2.2-2-4.3-2c-0.7,0-1.2-0.6-1.2-1.2
		c0-0.7,0.6-1.2,1.2-1.2c3.1,0,4.6,1.4,6,2.7c1.2,1.1,2.2,2,4.3,2c2.1,0,3.1-0.9,4.3-2c1.4-1.3,2.9-2.7,6-2.7c3.1,0,4.6,1.4,6,2.7
		c1.2,1.1,2.2,2,4.3,2c2.1,0,3.1-0.9,4.3-2c1.4-1.3,2.9-2.7,6-2.7c3.1,0,4.6,1.4,6,2.7c1.2,1.1,2.2,2,4.3,2c2.1,0,3.1-0.9,4.3-2
		c1.4-1.3,2.9-2.7,6-2.7c3.1,0,4.6,1.4,6,2.7c1.2,1.1,2.2,2,4.3,2c2.1,0,3.1-0.9,4.3-2c1.4-1.3,2.9-2.7,6-2.7c0.7,0,1.2,0.6,1.2,1.2
		c0,0.7-0.6,1.2-1.2,1.2c-2.1,0-3.1,0.9-4.3,2C78.1,23.8,76.5,25.2,73.4,25.2L73.4,25.2z M73.4,25.2"/>
	<path class="st0" d="M73.4,36c-3.1,0-4.6-1.4-6-2.7c-1.2-1.1-2.2-2-4.3-2c-2.1,0-3.1,0.9-4.3,2c-1.4,1.3-2.9,2.7-6,2.7
		s-4.6-1.4-6-2.7c-1.2-1.1-2.2-2-4.3-2c-2.1,0-3.1,0.9-4.3,2c-1.4,1.3-2.9,2.7-6,2.7c-3.1,0-4.6-1.4-6-2.7c-1.2-1.1-2.2-2-4.3-2
		c-2.1,0-3.1,0.9-4.3,2c-1.4,1.3-2.9,2.7-6,2.7c-3.1,0-4.6-1.4-6-2.7c-1.2-1.1-2.2-2-4.3-2c-0.7,0-1.2-0.6-1.2-1.2
		c0-0.7,0.6-1.2,1.2-1.2c3.1,0,4.6,1.4,6,2.7c1.2,1.1,2.2,2,4.3,2c2.1,0,3.1-0.9,4.3-2c1.4-1.3,2.9-2.7,6-2.7c3.1,0,4.6,1.4,6,2.7
		c1.2,1.1,2.2,2,4.3,2c2.1,0,3.1-0.9,4.3-2c1.4-1.3,2.9-2.7,6-2.7c3.1,0,4.6,1.4,6,2.7c1.2,1.1,2.2,2,4.3,2c2.1,0,3.1-0.9,4.3-2
		c1.4-1.3,2.9-2.7,6-2.7c3.1,0,4.6,1.4,6,2.7c1.2,1.1,2.2,2,4.3,2c2.1,0,3.1-0.9,4.3-2c1.4-1.3,2.9-2.7,6-2.7c0.7,0,1.2,0.6,1.2,1.2
		c0,0.7-0.6,1.2-1.2,1.2c-2.1,0-3.1,0.9-4.3,2C78.1,34.6,76.5,36,73.4,36L73.4,36z M73.4,36"/>
	<path class="st0" d="M73.4,46.8c-3.1,0-4.6-1.4-6-2.7c-1.2-1.1-2.2-2-4.3-2c-2.1,0-3.1,0.9-4.3,2c-1.4,1.3-2.9,2.7-6,2.7
		s-4.6-1.4-6-2.7c-1.2-1.1-2.2-2-4.3-2c-2.1,0-3.1,0.9-4.3,2c-1.4,1.3-2.9,2.7-6,2.7c-3.1,0-4.6-1.4-6-2.7c-1.2-1.1-2.2-2-4.3-2
		c-2.1,0-3.1,0.9-4.3,2c-1.4,1.3-2.9,2.7-6,2.7c-3.1,0-4.6-1.4-6-2.7c-1.2-1.1-2.2-2-4.3-2c-0.7,0-1.2-0.6-1.2-1.2
		c0-0.7,0.6-1.2,1.2-1.2c3.1,0,4.6,1.4,6,2.7c1.2,1.1,2.2,2,4.3,2c2.1,0,3.1-0.9,4.3-2c1.4-1.3,2.9-2.7,6-2.7c3.1,0,4.6,1.4,6,2.7
		c1.2,1.1,2.2,2,4.3,2c2.1,0,3.1-0.9,4.3-2c1.4-1.3,2.9-2.7,6-2.7c3.1,0,4.6,1.4,6,2.7c1.2,1.1,2.2,2,4.3,2c2.1,0,3.1-0.9,4.3-2
		c1.4-1.3,2.9-2.7,6-2.7c3.1,0,4.6,1.4,6,2.7c1.2,1.1,2.2,2,4.3,2c2.1,0,3.1-0.9,4.3-2c1.4-1.3,2.9-2.7,6-2.7c0.7,0,1.2,0.6,1.2,1.2
		c0,0.7-0.6,1.2-1.2,1.2c-2.1,0-3.1,0.9-4.3,2C78.1,45.4,76.5,46.8,73.4,46.8L73.4,46.8z M73.4,46.8"/>
	<path class="st0" d="M73.4,57.6c-3.1,0-4.6-1.4-6-2.7c-1.2-1.1-2.2-2-4.3-2c-2.1,0-3.1,0.9-4.3,2c-1.4,1.3-2.9,2.7-6,2.7
		s-4.6-1.4-6-2.7c-1.2-1.1-2.2-2-4.3-2c-2.1,0-3.1,0.9-4.3,2c-1.4,1.3-2.9,2.7-6,2.7c-3.1,0-4.6-1.4-6-2.7c-1.2-1.1-2.2-2-4.3-2
		c-2.1,0-3.1,0.9-4.3,2c-1.4,1.3-2.9,2.7-6,2.7c-3.1,0-4.6-1.4-6-2.7c-1.2-1.1-2.2-2-4.3-2c-0.7,0-1.2-0.6-1.2-1.2
		c0-0.7,0.6-1.2,1.2-1.2c3.1,0,4.6,1.4,6,2.7c1.2,1.1,2.2,2,4.3,2c2.1,0,3.1-0.9,4.3-2c1.4-1.3,2.9-2.7,6-2.7c3.1,0,4.6,1.4,6,2.7
		c1.2,1.1,2.2,2,4.3,2c2.1,0,3.1-0.9,4.3-2c1.4-1.3,2.9-2.7,6-2.7c3.1,0,4.6,1.4,6,2.7c1.2,1.1,2.2,2,4.3,2c2.1,0,3.1-0.9,4.3-2
		c1.4-1.3,2.9-2.7,6-2.7c3.1,0,4.6,1.4,6,2.7c1.2,1.1,2.2,2,4.3,2c2.1,0,3.1-0.9,4.3-2c1.4-1.3,2.9-2.7,6-2.7c0.7,0,1.2,0.6,1.2,1.2
		c0,0.7-0.6,1.2-1.2,1.2c-2.1,0-3.1,0.9-4.3,2C78.1,56.1,76.5,57.6,73.4,57.6L73.4,57.6z M73.4,57.6"/>
	<path class="st0" d="M73.4,68.4c-3.1,0-4.6-1.4-6-2.7c-1.2-1.1-2.2-2-4.3-2c-2.1,0-3.1,0.9-4.3,2c-1.4,1.3-2.9,2.7-6,2.7
		s-4.6-1.4-6-2.7c-1.2-1.1-2.2-2-4.3-2c-2.1,0-3.1,0.9-4.3,2c-1.4,1.3-2.9,2.7-6,2.7c-3.1,0-4.6-1.4-6-2.7c-1.2-1.1-2.2-2-4.3-2
		c-2.1,0-3.1,0.9-4.3,2c-1.4,1.3-2.9,2.7-6,2.7c-3.1,0-4.6-1.4-6-2.7c-1.2-1.1-2.2-2-4.3-2c-0.7,0-1.2-0.6-1.2-1.2
		c0-0.7,0.6-1.2,1.2-1.2c3.1,0,4.6,1.4,6,2.7c1.2,1.1,2.2,2,4.3,2c2.1,0,3.1-0.9,4.3-2c1.4-1.3,2.9-2.7,6-2.7c3.1,0,4.6,1.4,6,2.7
		c1.2,1.1,2.2,2,4.3,2c2.1,0,3.1-0.9,4.3-2c1.4-1.3,2.9-2.7,6-2.7c3.1,0,4.6,1.4,6,2.7c1.2,1.1,2.2,2,4.3,2c2.1,0,3.1-0.9,4.3-2
		c1.4-1.3,2.9-2.7,6-2.7c3.1,0,4.6,1.4,6,2.7c1.2,1.1,2.2,2,4.3,2c2.1,0,3.1-0.9,4.3-2c1.4-1.3,2.9-2.7,6-2.7c0.7,0,1.2,0.6,1.2,1.2
		c0,0.7-0.6,1.2-1.2,1.2c-2.1,0-3.1,0.9-4.3,2C78.1,66.9,76.5,68.4,73.4,68.4L73.4,68.4z M73.4,68.4"/>
</g>
</svg>
