<svg xmlns="http://www.w3.org/2000/svg" width="50" height="50" viewBox="0 0 50 50">
  <metadata><?xpacket begin="﻿" id="W5M0MpCehiHzreSzNTczkc9d"?>
<x:xmpmeta xmlns:x="adobe:ns:meta/" x:xmptk="Adobe XMP Core 5.6-c142 79.160924, 2017/07/13-01:06:39        ">
   <rdf:RDF xmlns:rdf="http://www.w3.org/1999/02/22-rdf-syntax-ns#">
      <rdf:Description rdf:about=""/>
   </rdf:RDF>
</x:xmpmeta>
                                                                                                    
                                                                                                    
                                                                                                    
                                                                                                    
                                                                                                    
                                                                                                    
                                                                                                    
                                                                                                    
                                                                                                    
                                                                                                    
                                                                                                    
                                                                                                    
                                                                                                    
                                                                                                    
                                                                                                    
                                                                                                    
                                                                                                    
                                                                                                    
                                                                                                    
                                                                                                    
                           
<?xpacket end="w"?></metadata>
<defs>
    <style>
      .cls-1 {
        fill: #fff;
        fill-rule: evenodd;
      }
    </style>
  </defs>
  <path class="cls-1" d="M4,4H46V46H4V4ZM6,6h4V9H6V6Zm0,5h4v3H6V11Zm0,5h4v3H6V16Zm0,5h4v3H6V21Zm0,5h4v3H6V26Zm0,5h4v3H6V31Zm0,5h4v3H6V36Zm0,5h4v3H6V41Zm34,0h4v3H40V41Zm0-5v3h4V36H40Zm0-5h4v3H40V31Zm0-5h4v3H40V26Zm0-5h4v3H40V21Zm0-5h4v3H40V16Zm0-5h4v3H40V11Zm0-5h4V9H40V6ZM12,6H38V25H33L19,17V33l14-8h5V44H12V6Zm9,14V30l9-5Z"/>
</svg>
