<?xml version="1.0" encoding="utf-8"?>
<!-- Generator: Adobe Illustrator 16.0.0, SVG Export Plug-In . SVG Version: 6.00 Build 0)  -->
<!DOCTYPE svg PUBLIC "-//W3C//DTD SVG 1.1//EN" "http://www.w3.org/Graphics/SVG/1.1/DTD/svg11.dtd">
<svg version="1.1" id="Layer_1" xmlns="http://www.w3.org/2000/svg" xmlns:xlink="http://www.w3.org/1999/xlink" x="0px" y="0px"
	 width="40.79px" height="30.787px" viewBox="0 0 40.79 30.787" enable-background="new 0 0 40.79 30.787" xml:space="preserve">
<g id="XMLID_18009_">
	<g>
		<path id="XMLID_87_" fill="#FFFFFF" d="M40.297,21.846c0.003-0.024,0.013-0.045,0.013-0.069c0-0.049-0.003-0.101-0.013-0.146
			c-0.049-3.943-2.092-6.253-5.073-7.612v-2.088c0-4.062-3.012-6.485-8.053-6.485c-3.777,0-6.413,1.359-7.499,3.749
			c-1.233-2.021-3.731-3.163-7.188-3.163c-5.039,0-8.05,2.424-8.05,6.485v1.904c-2.282,1.419-3.728,3.693-3.728,7.355v7.588
			c0,0.784,0.638,1.423,1.422,1.423h1.883c0.783,0,1.422-0.639,1.422-1.423v-3.367H35.57v3.367c0,0.784,0.638,1.423,1.421,1.423
			h1.883c0.785,0,1.423-0.639,1.423-1.423V21.846z M2.128,24.578v-2.091h36.746v2.087H2.128V24.578z M20.54,11.931
			c0-4.57,4.635-5.063,6.631-5.063c1.994,0,6.63,0.493,6.63,5.063v1.533c-3.897-1.305-8.927-1.377-13.282-1.381
			c-0.004-0.014-0.004-0.027-0.004-0.042C20.521,12.003,20.54,11.973,20.54,11.931L20.54,11.931z M5.853,12.52
			c0-4.574,4.639-5.066,6.635-5.066c1.924,0,6.312,0.473,6.602,4.63c-4.709,0.004-9.658,0.08-13.236,1.609V12.52z M19.779,13.506
			c5.095,0,10.577,0.003,14.354,1.528c0.069,0.046,0.143,0.076,0.229,0.094c2.537,1.089,4.26,2.902,4.488,5.938H2.148
			C2.596,14.061,9.771,13.506,19.779,13.506L19.779,13.506z M2.128,29.368V26h1.883v3.368H2.128z M36.991,29.368V26h1.883
			l0.004,3.368H36.991z M36.991,29.368"/>
		
			<line id="XMLID_86_" fill="none" stroke="#FFFFFF" stroke-width="1.5" stroke-miterlimit="10" x1="38.395" y1="17.408" x2="38.395" y2="0.088"/>
		
			<line id="XMLID_85_" fill="none" stroke="#FFFFFF" stroke-width="1.5" stroke-linecap="round" stroke-miterlimit="10" x1="40.04" y1="0.75" x2="36.75" y2="0.75"/>
		
			<line id="XMLID_83_" fill="none" stroke="#FFFFFF" stroke-width="1.5" stroke-miterlimit="10" x1="2.395" y1="17.408" x2="2.395" y2="0.088"/>
		
			<line id="XMLID_82_" fill="none" stroke="#FFFFFF" stroke-width="1.5" stroke-linecap="round" stroke-miterlimit="10" x1="4.04" y1="0.75" x2="0.75" y2="0.75"/>
	</g>
</g>
</svg>
