<?xml version="1.0" encoding="utf-8"?>
<!-- Generator: Adobe Illustrator 19.0.0, SVG Export Plug-In . SVG Version: 6.00 Build 0)  -->
<svg version="1.1" id="Layer_1" xmlns="http://www.w3.org/2000/svg" xmlns:xlink="http://www.w3.org/1999/xlink" x="0px" y="0px"
	 viewBox="0 0 85 85" style="enable-background:new 0 0 85 85;" xml:space="preserve">
<style type="text/css">
	.st0{fill:#FFFFFF;}
</style>
<path id="XMLID_468_" class="st0" d="M74.8,22.6c-0.6-0.6-1.5-0.6-2.1,0l-9.5,9.5c-0.4,0.4-1,0.4-1.4,0c-0.4-0.4-0.4-1,0-1.4
	l9.5-9.5c0.6-0.6,0.6-1.5,0-2.1c-0.6-0.6-1.5-0.6-2.1,0l-9.5,9.5c-0.4,0.4-1,0.4-1.4,0c-0.4-0.4-0.4-1,0-1.4l9.5-9.5
	c0.6-0.6,0.6-1.5,0-2.1c-0.6-0.6-1.5-0.6-2.1,0l-9.5,9.5c-0.4,0.4-1,0.4-1.4,0c-0.4-0.4-0.4-1,0-1.4l9.5-9.5c0.6-0.6,0.6-1.5,0-2.1
	c-0.6-0.6-1.5-0.6-2.1,0L51.2,23.4c-2.9,2.9-1.7,6-2.2,9.9c-0.2,1.5-2.4,4.1-4.1,5.8l3,3c1.7-1.7,4.3-3.9,5.8-4.1
	c3.9-0.5,7,0.7,9.9-2.2l11.2-11.2h0c0,0,0,0,0,0v0C75.4,24.1,75.4,23.2,74.8,22.6z M68.5,64.8L18.2,14.5l0,0c-1.4-1.2-2.8-2-4.2-2
	c-1,0-2,0.4-2.9,1.3c-6,6,10.9,28.7,22.2,33.6c2.1,0.9,4,1,4.9,1c0.3,0,0.5,0,0.5,0l23.1,23.1c0.9,0.9,2.2,1.4,3.4,1.4
	c1.2,0,2.5-0.5,3.4-1.4C70.4,69.7,70.4,66.7,68.5,64.8C68.5,64.8,68.5,64.8,68.5,64.8z M33.7,49.3c-8.4,7.3-18.5,15.8-18.5,15.8
	c-1.9,1.9-1.9,4.9,0,6.8c1.9,1.9,4.9,1.9,6.8,0c0,0,0,0,0,0c0,0,9.8-11.6,17.4-20.4L38,50C37.1,50,35.5,49.9,33.7,49.3z"/>
</svg>
