<?xml version="1.0" encoding="utf-8"?>
<!-- Generator: Adobe Illustrator 19.0.0, SVG Export Plug-In . SVG Version: 6.00 Build 0)  -->
<svg version="1.1" id="Layer_1" xmlns="http://www.w3.org/2000/svg" xmlns:xlink="http://www.w3.org/1999/xlink" x="0px" y="0px"
	 viewBox="0 0 85 85" style="enable-background:new 0 0 85 85;" xml:space="preserve">
<style type="text/css">
	.st0{fill:#FFFFFF;}
</style>
<g id="XMLID_422_">
	<g id="XMLID_423_">
		<polygon id="XMLID_425_" class="st0" points="35.6,7.4 31.6,4.6 28.8,8.5 32.7,11.5 		"/>
		<path id="XMLID_424_" class="st0" d="M30.3,14.8l-3.9-3L7.6,38.4V61c0,0.5,0.1,12.7,7,17.3c1.8,1.2,3.7,1.8,5.9,1.8
			c1.5,0,3-0.3,4.6-0.8c1,0.8,2.3,1.3,3.6,1.3c0.9,0,1.8-0.2,2.7-0.7L30,77.1c-1.3,0.7-2.9,0.2-3.6-1.1c-0.3-0.6-0.4-1.3-0.2-2
			c0.2-0.7,0.7-1.2,1.3-1.5l-1.5-2.9c-1.4,0.7-2.4,1.9-2.9,3.4c-0.2,0.7-0.3,1.3-0.3,2c-2.3,0.6-4.1,0.4-5.6-0.6
			c-4-2.6-4.8-10.5-4.9-13.3V40L30.3,14.8z"/>
	</g>
	<path id="XMLID_3_" class="st0" d="M64.6,66.5c-3.2,0-9.2-2.7-13-6.3c-0.7,2-2.4,3.3-4.4,3.3s-3.7-1.3-4.4-3.3
		c-3.8,3.7-9.8,6.3-13,6.3h-0.5c-10.8,0-12.5-15.5-12.5-16.1c0-5.1,1.9-8.6,5.7-10.4c3.1-1.5,6.6-1.5,8.7-1.5h32.2
		c3.9,0,14.4,0,14.4,11.6c0,0.2-0.4,4.4-2.2,8.4c-2.3,5.2-5.9,7.9-10.3,7.9H64.6z M47.3,50.4c2.4,0,4.1,1.3,4.9,2.4l0.3,0.5V54
		c0,2.8,8,8.3,12.1,8.3h0.5c7,0,8.3-12.2,8.3-12.3c0-6.6-4.4-7.2-10.1-7.2H31.1c-5.7,0-10.1,0.5-10.1,7.3l0,0
		c0.2,1.2,1.7,12.1,8.3,12.1h0.5c4.1,0,12.1-5.5,12.1-8.3l0.1-0.5C42,53.1,42.8,50.4,47.3,50.4L47.3,50.4z"/>
</g>
</svg>
