<?xml version="1.0" encoding="utf-8"?>
<!-- Generator: Adobe Illustrator 16.0.0, SVG Export Plug-In . SVG Version: 6.00 Build 0)  -->
<!DOCTYPE svg PUBLIC "-//W3C//DTD SVG 1.1//EN" "http://www.w3.org/Graphics/SVG/1.1/DTD/svg11.dtd">
<svg version="1.1" id="Layer_1" xmlns="http://www.w3.org/2000/svg" xmlns:xlink="http://www.w3.org/1999/xlink" x="0px" y="0px"
	 width="228.089px" height="178.482px" viewBox="0 0 228.089 178.482" enable-background="new 0 0 228.089 178.482"
	 xml:space="preserve">
<g id="XMLID_5500_">
	<polygon id="XMLID_5520_" fill="#77A4B0" points="3.664,124.51 18.433,106.694 33.044,124.51 35.761,124.51 19.947,104.396 
		35.237,85.12 32.469,85.12 18.433,102.045 4.133,85.12 1.365,85.12 16.97,104.396 0.947,124.51 	"/>
	<path id="XMLID_5517_" fill="#77A4B0" d="M70.463,111.554h17.291l5.275,12.955h2.561L79.135,83.814l-16.508,40.695h2.561
		L70.463,111.554z M79.135,90.188l7.679,19.015H71.402L79.135,90.188z"/>
	<polygon id="XMLID_5516_" fill="#77A4B0" points="126.596,124.509 129.103,124.509 129.103,90.657 162.17,125.815 162.17,85.12 
		159.664,85.12 159.664,119.494 126.596,84.597 	"/>
	<polygon id="XMLID_5515_" fill="#77A4B0" points="197.815,104.188 224.893,104.188 224.893,124.509 227.4,124.509 227.4,85.12 
		224.893,85.12 224.893,101.837 197.815,101.837 197.815,85.12 195.308,85.12 195.308,124.509 197.815,124.509 	"/>
	<path id="XMLID_5509_" fill="#77A4B0" d="M113.656,62.379c17.225,0.282,31.415-13.45,31.699-30.676
		c0.282-17.224-13.449-31.416-30.674-31.699C97.458-0.28,83.264,13.455,82.982,30.678C82.699,47.902,96.433,62.095,113.656,62.379z
		 M143.094,36.637c-2.918,12.482-12.776,16.76-12.776,16.76c4.181-2.14,6.702-9.614,1.78-13.243
		c-4.109-3.036-7.895,0.373-7.895,0.373c5.277-1.668,9.314,2.09,7.396,7.542c-1.916,5.453-5.837,2.519-5.837,2.519
		c-7.86-6.685-10.475-18.572-10.475-18.572C128.186,27.983,143.094,36.637,143.094,36.637z M119.615,2.267
		c12.48,2.916,16.758,12.778,16.758,12.778c-2.138-4.182-9.611-6.702-13.242-1.782c-3.035,4.111,0.375,7.896,0.375,7.896
		c-1.67-5.277,2.088-9.317,7.539-7.4c5.454,1.918,2.521,5.837,2.521,5.837c-6.687,7.864-18.572,10.478-18.572,10.478
		C110.962,17.174,119.615,2.267,119.615,2.267z M108.721,60.115c-12.48-2.916-16.756-12.775-16.756-12.775
		c2.138,4.18,9.611,6.7,13.243,1.782c3.036-4.112-0.376-7.899-0.376-7.899c1.669,5.279-2.088,9.318-7.541,7.401
		c-5.451-1.918-2.52-5.835-2.52-5.835c6.686-7.865,18.572-10.48,18.572-10.48C117.377,45.209,108.721,60.115,108.721,60.115z
		 M98.021,8.986c-4.18,2.141-6.701,9.614-1.781,13.246c4.109,3.033,7.896-0.377,7.896-0.377c-5.276,1.67-9.317-2.088-7.398-7.541
		c1.916-5.45,5.837-2.52,5.837-2.52c7.86,6.687,10.473,18.571,10.473,18.571c-12.896,4.034-27.803-4.62-27.803-4.62
		C88.16,13.267,98.021,8.986,98.021,8.986z"/>
	<path id="XMLID_5508_" fill="#77A4B0" d="M227.293,141.452H0.797c-0.441,0-0.797,0.355-0.797,0.797c0,0.44,0.355,0.797,0.797,0.797
		h226.496c0.439,0,0.796-0.356,0.796-0.797C228.089,141.808,227.732,141.452,227.293,141.452z"/>
	<path id="XMLID_5507_" fill="#77A4B0" d="M98.777,165.691c-0.238-0.129-0.586-0.313-1.041-0.551
		c-2.52-1.318-3.778-2.741-3.778-4.268c0-1.07,0.317-1.921,0.952-2.551c0.634-0.629,1.487-0.943,2.558-0.943
		c0.794,0,1.479,0.162,2.061,0.49c0.579,0.327,1.027,0.803,1.346,1.428l1.532-0.922c-0.506-0.922-1.163-1.614-1.971-2.075
		c-0.809-0.461-1.758-0.691-2.849-0.691c-1.665,0-3.021,0.485-4.067,1.458c-1.047,0.971-1.568,2.23-1.568,3.777
		c0,1.239,0.361,2.301,1.085,3.182c0.724,0.883,2.181,1.904,4.373,3.064c1.715,0.912,2.832,1.715,3.353,2.41
		c0.521,0.693,0.781,1.566,0.781,2.617c0,1.438-0.387,2.563-1.16,3.375c-0.773,0.814-1.849,1.221-3.227,1.221
		c-1.092,0-2.025-0.295-2.804-0.885s-1.326-1.422-1.644-2.492l-1.695,0.908c0.574,1.408,1.371,2.467,2.387,3.176
		c1.016,0.707,2.238,1.063,3.666,1.063c1.963,0,3.515-0.572,4.654-1.717c1.142-1.146,1.711-2.695,1.711-4.648
		c0-1.449-0.313-2.625-0.937-3.533C101.871,167.677,100.631,166.712,98.777,165.691z"/>
	<path id="XMLID_5504_" fill="#77A4B0" d="M118.795,159.251c-0.377-0.862-0.907-1.541-1.592-2.037
		c-0.545-0.387-1.188-0.664-1.926-0.834c-0.738-0.168-1.892-0.252-3.457-0.252h-3.972v21.774h1.979v-9.771h2.29
		c2.509,0,4.343-0.482,5.503-1.451c1.159-0.965,1.74-2.484,1.74-4.557C119.36,161.071,119.172,160.114,118.795,159.251z
		 M116.021,165.476c-0.828,0.609-2.441,0.914-4.841,0.914h-1.354v-8.538h1.354c1.586,0,2.711,0.09,3.376,0.269
		c0.663,0.179,1.189,0.485,1.576,0.922c0.377,0.427,0.659,0.909,0.848,1.45c0.188,0.54,0.282,1.133,0.282,1.777
		C117.263,163.798,116.85,164.867,116.021,165.476z"/>
	<path id="XMLID_5501_" fill="#77A4B0" d="M118.459,177.902h2.008l2.885-7.377h8.895l2.781,7.377h2.156l-9.162-22.636
		L118.459,177.902z M124.021,168.83l3.867-9.475l3.718,9.475H124.021z"/>
</g>
</svg>
