<?xml version="1.0" encoding="utf-8"?>
<!-- Generator: Adobe Illustrator 16.0.0, SVG Export Plug-In . SVG Version: 6.00 Build 0)  -->
<!DOCTYPE svg PUBLIC "-//W3C//DTD SVG 1.1//EN" "http://www.w3.org/Graphics/SVG/1.1/DTD/svg11.dtd">
<svg version="1.1" id="Layer_1" xmlns="http://www.w3.org/2000/svg" xmlns:xlink="http://www.w3.org/1999/xlink" x="0px" y="0px"
	 width="140.667px" height="91.731px" viewBox="0 0 140.667 91.731" enable-background="new 0 0 140.667 91.731"
	 xml:space="preserve">
<g id="XMLID_1886_">
	<g id="XMLID_1887_">
		<path id="XMLID_2039_" fill="#FFFFFF" d="M20.261,36.313c-0.167,0.341-0.338,0.679-0.501,1.021
			c-0.846,1.782-1.709,3.558-2.529,5.353c-1.046,2.292-2.062,4.598-3.082,6.901c-0.307,0.692-0.559,1.409-0.885,2.092
			c-0.641,1.342-1.768,1.66-3.136,1.477c-0.55-0.072-0.916-0.4-1.103-0.941c-0.245-0.714-0.325-1.443-0.258-2.188
			c0.049-0.543,0.12-1.085,0.204-1.624c0.222-1.428,0.457-2.853,0.686-4.279c0.019-0.118,0.018-0.24-0.043-0.389
			c-0.058,0.11-0.128,0.217-0.172,0.333c-1.141,2.997-2.279,5.995-3.415,8.995c-0.718,1.895-1.429,3.791-2.148,5.686
			c-0.081,0.214-0.181,0.422-0.292,0.621c-0.264,0.468-0.648,0.798-1.182,0.9c-0.36,0.07-0.731,0.113-1.099,0.115
			c-1.01,0.005-1.378-0.441-1.296-1.476c0.056-0.701,0.214-1.394,0.297-2.093c0.178-1.486,0.344-2.974,0.502-4.462
			c0.173-1.628,0.337-3.258,0.493-4.888c0.126-1.314,0.231-2.631,0.354-3.945c0.158-1.701,0.328-3.4,0.487-5.101
			c0.126-1.35,0.345-2.692,0.259-4.056c-0.049-0.761-0.254-1.459-0.768-2.037c-0.162-0.183-0.36-0.334-0.551-0.489
			c-0.429-0.353-0.424-0.629,0.068-0.865c0.861-0.411,1.952-0.446,2.796,0.226c0.976,0.777,1.491,1.802,1.511,3.019
			c0.021,1.212-0.068,2.428-0.155,3.639c-0.09,1.247-0.234,2.489-0.354,3.733c-0.131,1.35-0.264,2.699-0.39,4.049
			c-0.113,1.207-0.219,2.415-0.279,3.645c0.049-0.1,0.105-0.195,0.147-0.297c1.291-3.203,2.577-6.409,3.871-9.61
			c0.945-2.338,1.83-4.696,2.54-7.117c0.159-0.543,0.335-1.094,0.782-1.475c0.233-0.198,0.518-0.381,0.809-0.458
			c0.595-0.156,1.206-0.262,1.824-0.078c0.536,0.158,0.798,0.402,0.818,0.965c0.019,0.486-0.006,0.994-0.122,1.465
			c-0.946,3.837-1.573,7.733-2.232,11.625c-0.1,0.588-0.171,1.182-0.198,1.802c0.062-0.106,0.132-0.209,0.184-0.319
			c1.416-3.034,2.819-6.074,4.252-9.1c0.701-1.481,1.446-2.942,2.189-4.402c0.334-0.655,0.807-1.199,1.471-1.547
			c0.76-0.397,1.529-0.348,2.297-0.021c0.386,0.164,0.626,0.488,0.703,0.875c0.117,0.584,0.239,1.184,0.221,1.772
			c-0.025,0.824-0.172,1.645-0.275,2.466c-0.283,2.254-0.575,4.507-0.856,6.762c-0.292,2.343-0.423,4.697-0.546,7.055
			c-0.217,4.139-0.191,8.279-0.152,12.419c0.015,1.653,0.156,3.313,0.738,4.891c0.762,2.063,2.008,3.745,3.92,4.894
			c1.629,0.979,3.167,0.872,4.776-0.309c0.935-0.687,1.658-1.575,2.327-2.51c0.113-0.157,0.241-0.31,0.323-0.482
			c0.319-0.671,0.889-0.951,1.582-0.955c0.468-0.002,0.948,0.064,1.4,0.188c0.416,0.114,0.479,0.365,0.245,0.727
			c-1.378,2.133-3.115,3.874-5.496,4.863c-2.314,0.963-4.629,0.835-6.864-0.24c-3.269-1.572-5.207-4.172-5.747-7.773
			c-0.117-0.781-0.171-1.576-0.209-2.366c-0.17-3.505-0.159-7.012-0.091-10.518c0.038-1.918,0.145-3.836,0.281-5.75
			c0.14-1.948,0.33-3.895,0.546-5.837c0.149-1.347,0.381-2.686,0.573-4.027c0.024-0.168,0.036-0.338,0.054-0.507
			C20.332,36.338,20.296,36.327,20.261,36.313z"/>
		<path id="XMLID_2038_" fill="#FFFFFF" d="M65.483,82.213c-0.009-2.532-0.528-4.975-1.22-7.387
			c-1.031-3.598-2.391-7.078-3.861-10.514c-1.631-3.809-3.194-7.641-4.453-11.592c-1.451-4.559-2.562-9.197-3.336-13.918
			c-0.354-2.158-0.624-4.325-0.709-6.509c-0.054-1.408-0.018-2.819-0.007-4.229c0.003-0.368,0.065-0.736,0.095-1.104
			c0.023-0.299,0.193-0.484,0.457-0.592c0.694-0.284,1.4-0.338,2.118-0.095c0.396,0.134,0.512,0.276,0.5,0.699
			c-0.021,0.738-0.083,1.477-0.095,2.216c-0.016,0.986-0.059,1.979,0.017,2.96c0.145,1.895,0.3,3.793,0.564,5.674
			c0.674,4.793,1.864,9.47,3.333,14.078c1.115,3.495,2.473,6.899,3.867,10.289c1.293,3.146,2.631,6.274,3.687,9.511
			c0.821,2.517,1.493,5.071,1.915,7.687c0.303,1.868,0.425,3.746,0.093,5.627c-0.601,3.409-2.661,5.46-5.948,6.344
			c-1.657,0.446-3.353,0.429-5.041,0.274c-2.806-0.257-5.502-1.022-8.188-1.826c-2.214-0.662-4.401-1.399-6.511-2.345
			c-2.046-0.917-4.031-1.947-5.855-3.263c-0.705-0.51-1.329-1.102-1.783-1.854c-0.316-0.521-0.538-1.076-0.52-1.695
			c0.021-0.707,0.395-1.227,0.947-1.631c0.562-0.412,1.195-0.675,1.862-0.858c1.229-0.339,2.482-0.521,3.755-0.564
			c1.161-0.04,2.323-0.075,3.485-0.076c0.399,0,0.801,0.097,1.196,0.175c0.212,0.043,0.408,0.164,0.438,0.405
			c0.034,0.267-0.146,0.458-0.362,0.527c-0.38,0.122-0.778,0.221-1.175,0.25c-0.544,0.04-1.093,0.005-1.639,0.003
			c-1.131-0.004-2.256,0.083-3.356,0.343c-0.441,0.104-0.884,0.26-1.285,0.468c-0.785,0.406-0.967,1.099-0.523,1.87
			c0.365,0.634,0.881,1.142,1.432,1.613c0.943,0.807,1.992,1.453,3.086,2.029c3.149,1.659,6.473,2.869,9.901,3.8
			c1.461,0.396,2.929,0.775,4.409,1.097c1.281,0.278,2.588,0.299,3.889,0.087c1.719-0.278,2.972-1.213,3.803-2.732
			c0.473-0.863,0.731-1.795,0.835-2.766C65.386,83.866,65.423,83.04,65.483,82.213z"/>
		<path id="XMLID_2037_" fill="#FFFFFF" d="M76.275,18.09c-0.84,0.277-1.545,0.178-2.209-0.163c-0.26-0.134-0.503-0.327-0.705-0.54
			c-0.301-0.317-0.221-0.554,0.202-0.703c0.132-0.047,0.272-0.072,0.41-0.102c0.723-0.158,1.442-0.333,2.171-0.465
			c0.388-0.071,0.546-0.262,0.631-0.646c0.637-2.872,1.257-5.749,1.967-8.604c0.506-2.033,1.135-4.037,1.725-6.049
			c0.225-0.764,0.496-0.926,1.297-0.76c0.426,0.088,0.852,0.229,1.242,0.421c0.559,0.274,0.634,0.53,0.452,1.115
			c-1.33,4.296-2.461,8.643-3.367,13.047c-0.038,0.185-0.06,0.372-0.1,0.636c0.253-0.042,0.438-0.068,0.622-0.105
			c3.769-0.745,7.538-1.485,11.303-2.245c0.783-0.158,1.545-0.206,2.262,0.192c0.286,0.159,0.561,0.371,0.778,0.614
			c0.251,0.28,0.161,0.538-0.204,0.633c-0.494,0.128-0.999,0.213-1.5,0.313c-4.39,0.872-8.778,1.748-13.17,2.608
			c-0.385,0.076-0.575,0.238-0.635,0.633c-0.322,2.143-0.684,4.278-0.988,6.424c-0.207,1.464-0.359,2.937-0.502,4.408
			c-0.111,1.139-0.173,2.282-0.254,3.424c-0.154,2.197-0.22,4.397-0.219,6.601c0.002,3.78,0.277,7.533,1.084,11.234
			c0.561,2.574,1.331,5.077,2.577,7.416c0.946,1.776,2.131,3.358,3.69,4.646c0.227,0.188,0.525,0.382,0.403,0.733
			c-0.129,0.375-0.493,0.335-0.81,0.343c-0.864,0.021-1.553-0.364-2.187-0.913c-2.355-2.039-4.02-4.559-5.195-7.422
			c-1.092-2.659-1.732-5.435-2.108-8.274c-0.262-1.975-0.43-3.956-0.441-5.95c-0.006-0.986-0.092-1.974-0.063-2.957
			c0.064-2.13,0.165-4.258,0.279-6.385c0.219-4.051,0.739-8.066,1.386-12.067C76.153,18.856,76.205,18.53,76.275,18.09z"/>
		<path id="XMLID_2036_" fill="#FFFFFF" d="M137.505,45.246c-0.009-1.93-0.532-3.729-1.271-5.48
			c-0.585-1.385-1.346-2.675-2.152-3.937c-1.025-1.603-2.081-3.187-3.084-4.803c-0.855-1.381-1.56-2.841-2.039-4.4
			c-0.46-1.495-0.715-3.021-0.604-4.584c0.137-1.938,1.083-3.163,3.008-3.667c1.026-0.269,2.059-0.239,3.089-0.019
			c0.204,0.043,0.42,0.102,0.592,0.211c0.147,0.095,0.332,0.275,0.33,0.416c-0.002,0.147-0.181,0.375-0.328,0.422
			c-0.379,0.117-0.781,0.165-1.179,0.215c-0.152,0.019-0.313-0.039-0.471-0.053c-0.651-0.054-1.119,0.221-1.424,0.796
			c-0.392,0.736-0.51,1.539-0.53,2.351c-0.039,1.552,0.309,3.043,0.812,4.5c0.55,1.591,1.336,3.063,2.277,4.457
			c1.103,1.637,2.208,3.271,3.258,4.941c1.178,1.874,2.112,3.866,2.581,6.046c0.376,1.745,0.451,3.495-0.098,5.223
			c-0.793,2.491-2.483,4.099-4.957,4.86c-1.877,0.578-3.805,0.653-5.752,0.409c-2.979-0.374-5.733-1.414-8.373-2.798
			c-0.213-0.111-0.506-0.193-0.485-0.494c0.021-0.324,0.328-0.395,0.579-0.456c0.84-0.21,1.641-0.21,2.453,0.228
			c1.727,0.929,3.532,1.677,5.462,2.085c1.167,0.247,2.344,0.307,3.517,0.085c2.386-0.453,4.18-2.273,4.6-4.666
			C137.422,46.512,137.444,45.875,137.505,45.246z"/>
		<path id="XMLID_2033_" fill="#FFFFFF" d="M37.939,59.545c-1.204,0.054-2.426-0.1-3.619-0.439c-1.77-0.506-3.253-1.432-4.23-3.039
			c-0.739-1.213-1.104-2.542-1.158-3.962c-0.104-2.733,0.785-5.13,2.494-7.225c1.248-1.531,2.883-2.509,4.754-3.109
			c1.067-0.343,2.172-0.492,3.278-0.501c1.054-0.01,2.111,0.11,3.13,0.42c0.193,0.059,0.416,0.167,0.523,0.322
			c0.188,0.271,0.447,0.382,0.727,0.49c1.618,0.63,3.039,1.555,4.209,2.846c1.244,1.372,1.992,2.971,2.185,4.824
			c0.304,2.928-0.889,5.172-3.186,6.883c-1.601,1.191-3.435,1.843-5.391,2.174C40.438,59.435,39.216,59.589,37.939,59.545z
			 M38.46,58.167c2.469-0.01,4.434-0.527,6.166-1.778c1.339-0.968,2.254-2.239,2.471-3.907c0.223-1.729-0.109-3.377-0.993-4.885
			c-1.444-2.463-3.577-3.987-6.385-4.527c-0.618-0.119-1.265-0.077-1.889-0.176c-0.45-0.071-0.836,0.025-1.218,0.223
			c-0.25,0.129-0.501,0.26-0.736,0.414c-1.082,0.713-1.896,1.676-2.526,2.796c-1.3,2.31-1.758,4.749-0.991,7.329
			c0.486,1.634,1.472,2.904,2.989,3.738C36.431,57.989,37.589,58.207,38.46,58.167z"/>
		<path id="XMLID_2030_" fill="#FFFFFF" d="M90.034,52.694c-1.792,0.003-3.465-0.41-4.94-1.453c-1.768-1.25-2.772-2.959-2.975-5.126
			c-0.188-2.023,0.308-3.873,1.421-5.565c0.087-0.132,0.2-0.265,0.229-0.412c0.144-0.697,0.646-1.071,1.215-1.377
			c0.861-0.462,1.787-0.748,2.746-0.914c2.109-0.364,3.982,0.229,5.658,1.486c1.888,1.418,3.014,3.318,3.415,5.645
			c0.188,1.088,0.168,2.175-0.095,3.249c-0.535,2.179-1.982,3.468-4.068,4.106c-0.469,0.144-0.961,0.223-1.447,0.293
			C90.81,52.679,90.419,52.672,90.034,52.694z M86.772,40.945c0.037,0.083,0.075,0.16,0.105,0.239
			c0.132,0.342,0.068,0.53-0.295,0.557c-0.425,0.03-0.569,0.293-0.707,0.606c-0.386,0.878-0.634,1.794-0.726,2.747
			c-0.127,1.314-0.037,2.611,0.506,3.834c0.721,1.621,1.866,2.236,3.242,2.181c2.837-0.113,4.833-2.19,4.975-5.039
			c0.093-1.87-0.465-3.542-1.451-5.096c-0.342-0.54-0.761-1.012-1.32-1.346c-0.33-0.197-0.668-0.28-1.058-0.223
			c-0.863,0.129-1.675,0.402-2.452,0.792C87.251,40.368,86.992,40.62,86.772,40.945z"/>
		<path id="XMLID_2026_" fill="#FFFFFF" d="M67.089,31.499c-0.054,2.271-0.16,4.542-0.147,6.813c0.017,2.87,0.158,5.738,0.622,8.58
			c0.482,2.956,1.332,5.802,2.59,8.52c0.479,1.038,1.031,2.043,1.56,3.059c0.246,0.475,0.178,0.672-0.347,0.785
			c-0.73,0.159-1.452,0.066-2.107-0.271C69,58.85,68.79,58.56,68.636,58.295c-0.9-1.559-1.658-3.187-2.305-4.867
			c-1.042-2.713-1.714-5.517-2.045-8.4c-0.238-2.082-0.329-4.175-0.373-6.272c-0.041-1.956,0.064-3.907,0.05-5.86
			c-0.005-0.792,0.054-1.584,0.093-2.375c0.024-0.476,0.209-0.675,0.676-0.714c0.565-0.047,1.125-0.022,1.665,0.193
			c0.572,0.229,0.729,0.448,0.729,1.077c0,0.141,0,0.281,0,0.423C67.114,31.5,67.101,31.499,67.089,31.499z"/>
		<path id="XMLID_1915_" fill="#FFFFFF" d="M115.56,27.579c0.025-0.586-0.052-1.246-0.266-1.889
			c-0.238-0.719-0.615-1.339-1.268-1.761c-0.029-0.02-0.059-0.04-0.085-0.063c-0.167-0.144-0.302-0.311-0.241-0.546
			c0.068-0.26,0.284-0.357,0.522-0.371c0.227-0.012,0.462-0.009,0.681,0.041c1.78,0.405,2.894,1.537,3.414,3.251
			c0.522,1.72,0.307,3.415-0.33,5.065c-0.619,1.607-1.648,2.937-2.876,4.125c-0.247,0.238-0.524,0.342-0.859,0.32
			c-0.63-0.042-1.206-0.252-1.727-0.598c-0.489-0.325-0.509-0.595-0.09-1.013c0.828-0.825,1.554-1.728,2.127-2.747
			C115.214,30.239,115.595,29.008,115.56,27.579z"/>
		<path id="XMLID_1911_" fill="#FFFFFF" d="M80.229,75.077c0.179,0.195,0.37,0.356,0.501,0.557c0.755,1.153,0.07,2.84-1.28,3.069
			c-0.618,0.105-1.262,0.059-1.895,0.07c-0.234,0.005-0.349-0.142-0.364-0.367c-0.01-0.14-0.014-0.281-0.015-0.423
			c-0.001-1.762-0.001-3.523,0.001-5.286c0-0.159,0.004-0.317,0.02-0.476c0.021-0.202,0.139-0.326,0.347-0.324
			c0.599,0.007,1.207-0.045,1.792,0.05c1.396,0.226,1.957,1.75,1.096,2.879C80.369,74.908,80.301,74.987,80.229,75.077z
			 M77.949,76.715c-0.001,0-0.002,0-0.002,0c-0.001,0.07-0.003,0.141-0.001,0.211c0.031,1.185-0.263,1.117,1.198,1.078
			c0.629-0.017,1.029-0.445,1.073-1.073c0.009-0.122,0.008-0.245,0.002-0.367c-0.03-0.622-0.354-0.975-0.972-1.028
			c-0.313-0.026-0.631-0.008-0.946-0.011c-0.237-0.003-0.356,0.107-0.354,0.35C77.952,76.155,77.949,76.435,77.949,76.715z
			 M78.717,72.656c0,0.002,0,0.004,0,0.004c-0.158,0.002-0.316-0.003-0.474,0.003c-0.189,0.008-0.291,0.115-0.292,0.303
			c-0.003,0.492-0.015,0.984,0.011,1.475c0.005,0.104,0.148,0.286,0.229,0.286c0.416,0.003,0.847,0.012,1.245-0.087
			c0.358-0.09,0.556-0.397,0.584-0.795c0.058-0.786-0.256-1.152-1.041-1.188C78.893,72.652,78.805,72.656,78.717,72.656z"/>
		<path id="XMLID_1910_" fill="#FFFFFF" d="M123.787,77.192c0-0.421,0.001-0.841,0-1.261c-0.004-1.18-0.012-2.359-0.009-3.539
			c0.001-0.368,0.085-0.475,0.334-0.491c0.222-0.015,0.381,0.067,0.416,0.305c0.018,0.121,0.022,0.246,0.022,0.368
			c0.001,1.849,0,3.697,0,5.546c0,0.035,0.001,0.07-0.001,0.105c-0.021,0.405-0.081,0.497-0.357,0.547
			c-0.372,0.068-0.606-0.02-0.742-0.331c-0.431-0.983-0.847-1.973-1.269-2.96c-0.301-0.705-0.6-1.409-0.986-2.096
			c0,0.398-0.005,0.797,0.002,1.195c0.019,1.143,0.043,2.286,0.062,3.43c0.003,0.157-0.013,0.316-0.035,0.473
			c-0.031,0.211-0.178,0.29-0.378,0.285c-0.205-0.005-0.334-0.098-0.344-0.316c-0.005-0.123-0.008-0.246-0.008-0.369
			c0-1.831,0-3.662,0-5.493c0-0.07,0-0.141,0.002-0.211c0.005-0.194-0.006-0.394,0.242-0.468c0.287-0.086,0.629-0.01,0.757,0.211
			c0.123,0.213,0.216,0.443,0.312,0.67c0.591,1.394,1.178,2.789,1.768,4.183c0.033,0.079,0.073,0.156,0.11,0.233
			C123.718,77.203,123.752,77.197,123.787,77.192z"/>
		<path id="XMLID_1907_" fill="#FFFFFF" d="M90.991,75.94c0.289,0.577,0.545,1.138,0.85,1.67c0.104,0.18,0.317,0.311,0.506,0.425
			c0.243,0.147,0.36,0.331,0.266,0.542c-0.103,0.229-0.302,0.203-0.499,0.166c-0.394-0.074-0.672-0.324-0.857-0.65
			c-0.303-0.535-0.57-1.091-0.847-1.641c-0.2-0.399-0.3-0.461-0.741-0.429c-0.332,0.024-0.397,0.075-0.406,0.416
			c-0.014,0.511-0.004,1.021-0.006,1.532c0,0.141-0.003,0.281-0.005,0.422c-0.002,0.229-0.104,0.366-0.345,0.376
			c-0.248,0.011-0.379-0.099-0.418-0.368c-0.017-0.121-0.013-0.246-0.013-0.369c-0.001-1.814-0.001-3.628,0-5.441
			c0-0.123,0.002-0.246,0.012-0.369c0.017-0.209,0.137-0.33,0.343-0.325c0.578,0.013,1.164-0.006,1.735,0.07
			c1.176,0.155,1.649,0.934,1.593,2.1C92.111,75.016,91.923,75.286,90.991,75.94z M90.009,72.659c-0.14,0-0.28-0.002-0.42,0.001
			c-0.211,0.005-0.327,0.108-0.328,0.324c0,0.648,0,1.297,0,1.945c0,0.217,0.111,0.325,0.326,0.319
			c0.297-0.006,0.598,0.009,0.891-0.037c0.477-0.073,0.77-0.347,0.877-0.846C91.591,73.269,91.135,72.671,90.009,72.659z"/>
		<path id="XMLID_1904_" fill="#FFFFFF" d="M109.289,75.331c0-0.51-0.006-1.02,0.001-1.529c0.007-0.489,0.142-0.945,0.452-1.324
			c0.535-0.65,1.263-0.718,2.021-0.589c0.707,0.121,1.166,0.563,1.361,1.246c0.086,0.3,0.12,0.622,0.127,0.936
			c0.017,0.844,0.006,1.688,0.005,2.532c0,0.088,0.002,0.177-0.005,0.265c-0.117,1.558-1.13,2.198-2.641,1.87
			c-0.787-0.171-1.274-0.858-1.315-1.77c-0.024-0.545-0.005-1.091-0.005-1.637H109.289z M110.075,75.303c0,0-0.005,0-0.007,0
			c0,0.51,0,1.021,0,1.531c0,0.053,0.005,0.105,0.01,0.158c0.046,0.495,0.25,0.873,0.756,1.034c0.861,0.274,1.583-0.202,1.628-1.105
			c0.028-0.562,0.013-1.126,0.013-1.689c-0.001-0.511,0.014-1.022-0.016-1.531c-0.04-0.675-0.466-1.095-1.098-1.131
			c-0.753-0.044-1.238,0.375-1.281,1.149C110.051,74.246,110.075,74.775,110.075,75.303z"/>
		<path id="XMLID_1901_" fill="#FFFFFF" d="M99.619,76.757c0.205-0.099,0.385-0.21,0.58-0.276c0.268-0.09,0.469-0.01,0.542,0.175
			c0.088,0.223-0.011,0.399-0.286,0.522c-0.123,0.055-0.244,0.115-0.384,0.182c0.085,0.352,0.254,0.57,0.573,0.658
			c0.068,0.02,0.139,0.029,0.205,0.054c0.203,0.075,0.242,0.239,0.211,0.429c-0.031,0.188-0.166,0.261-0.34,0.271
			c-0.297,0.018-0.556-0.083-0.769-0.287c-0.14-0.133-0.266-0.278-0.442-0.466c-0.141,0.131-0.274,0.258-0.41,0.383
			c-0.517,0.473-1.313,0.563-1.969,0.224c-0.627-0.323-0.998-1.015-0.913-1.71c0.063-0.524,0.268-0.98,0.667-1.34
			c0.209-0.188,0.41-0.383,0.628-0.586c-0.093-0.205-0.178-0.376-0.248-0.553c-0.269-0.676-0.078-1.325,0.501-1.723
			c0.571-0.394,1.436-0.352,1.913,0.104c0.255,0.242,0.373,0.55,0.382,0.9c0.003,0.152-0.034,0.306-0.213,0.305
			c-0.145-0.001-0.298-0.051-0.428-0.117c-0.056-0.029-0.058-0.158-0.09-0.238c-0.172-0.436-0.528-0.594-0.98-0.438
			c-0.369,0.128-0.53,0.483-0.396,0.906c0.042,0.132,0.116,0.257,0.19,0.375c0.443,0.699,0.891,1.395,1.339,2.091
			C99.519,76.657,99.571,76.704,99.619,76.757z M97.931,75.561c-0.314,0.313-0.576,0.523-0.777,0.781
			c-0.383,0.492-0.261,1.287,0.237,1.591c0.651,0.397,1.14,0.115,1.528-0.431c0.057-0.079,0.064-0.253,0.016-0.336
			C98.633,76.656,98.308,76.158,97.931,75.561z"/>
		<path id="XMLID_1900_" fill="#FFFFFF" d="M126.91,75.325c0,0.404-0.008,0.811,0.004,1.215c0.006,0.209,0.03,0.422,0.076,0.626
			c0.146,0.641,0.471,0.911,1.096,0.937c0.634,0.026,1.025-0.256,1.211-0.873c0.02-0.068,0.042-0.135,0.055-0.204
			c0.144-0.75,0.045-0.872-0.705-0.878c-0.158-0.001-0.317-0.001-0.475-0.014c-0.233-0.02-0.343-0.158-0.336-0.389
			c0.006-0.209,0.123-0.341,0.325-0.346c0.545-0.013,1.091-0.012,1.636-0.002c0.23,0.004,0.345,0.157,0.355,0.381
			c0.03,0.6,0.038,1.199-0.143,1.779c-0.246,0.791-0.854,1.232-1.697,1.252c-1.281,0.028-2.02-0.562-2.102-1.843
			c-0.074-1.155-0.053-2.321,0.016-3.478c0.057-0.938,0.697-1.527,1.584-1.629c1.013-0.117,1.758,0.268,2.073,1.075
			c0.044,0.114,0.071,0.235,0.099,0.354c0.051,0.229-0.03,0.379-0.269,0.427c-0.208,0.041-0.353,0.015-0.457-0.225
			c-0.335-0.771-0.671-0.984-1.34-0.918c-0.506,0.05-0.835,0.298-0.903,0.806c-0.088,0.643-0.1,1.295-0.145,1.942
			C126.882,75.323,126.896,75.324,126.91,75.325z"/>
		<path id="XMLID_1897_" fill="#FFFFFF" d="M86.959,78.657c-0.587,0.186-0.693,0.14-0.842-0.348
			c-0.17-0.555-0.335-1.112-0.482-1.674c-0.069-0.266-0.213-0.381-0.485-0.374c-0.404,0.01-0.81,0.012-1.215-0.001
			c-0.277-0.009-0.418,0.124-0.488,0.378c-0.141,0.509-0.288,1.016-0.438,1.521c-0.045,0.15-0.091,0.307-0.169,0.441
			c-0.1,0.173-0.382,0.225-0.566,0.132c-0.191-0.096-0.152-0.257-0.109-0.411c0.223-0.796,0.448-1.592,0.674-2.388
			c0.324-1.15,0.646-2.304,0.977-3.453c0.159-0.557,0.604-0.787,1.122-0.547c0.144,0.066,0.261,0.277,0.312,0.445
			c0.276,0.927,0.531,1.86,0.79,2.793c0.273,0.982,0.544,1.967,0.812,2.951C86.894,78.29,86.919,78.459,86.959,78.657z
			 M85.306,75.435c-0.24-0.923-0.463-1.778-0.685-2.634c-0.037-0.001-0.074-0.002-0.111-0.003c-0.228,0.867-0.532,1.714-0.688,2.637
			C84.324,75.435,84.769,75.435,85.306,75.435z"/>
		<path id="XMLID_1896_" fill="#FFFFFF" d="M131.746,75.336c0-0.916-0.004-1.831,0.001-2.746c0.003-0.649,0.056-0.701,0.682-0.705
			c0.774-0.004,1.549-0.002,2.323,0c0.141,0.001,0.283,0.006,0.42,0.03c0.188,0.034,0.25,0.181,0.252,0.353
			c0,0.173-0.064,0.318-0.252,0.351c-0.155,0.026-0.314,0.031-0.473,0.032c-0.599,0.004-1.197,0.005-1.795,0.004
			c-0.258-0.001-0.393,0.107-0.389,0.379c0.006,0.51,0.007,1.021,0,1.531c-0.004,0.271,0.125,0.379,0.386,0.377
			c0.457-0.004,0.915-0.012,1.372,0.011c0.141,0.007,0.327,0.067,0.404,0.171c0.161,0.213,0.016,0.498-0.259,0.549
			c-0.154,0.029-0.315,0.025-0.473,0.028c-0.353,0.005-0.704,0.003-1.056,0.007c-0.226,0.002-0.372,0.096-0.371,0.344
			c0,0.546,0,1.092,0,1.637c0,0.259,0.16,0.326,0.381,0.327c0.581,0,1.162,0.001,1.743,0.003c0.158,0.001,0.317,0.001,0.474,0.018
			c0.21,0.023,0.305,0.161,0.307,0.363c0.002,0.201-0.09,0.338-0.3,0.367c-0.104,0.014-0.21,0.019-0.315,0.019
			c-0.81,0.001-1.619,0.006-2.43-0.001c-0.563-0.004-0.627-0.069-0.631-0.648C131.74,77.202,131.746,76.269,131.746,75.336z"/>
		<path id="XMLID_1889_" fill="#FFFFFF" d="M118.765,74.596c0,0.633,0.011,1.267-0.005,1.9c-0.007,0.278-0.038,0.563-0.104,0.833
			c-0.258,1.036-1.02,1.677-2.318,1.442c-0.598-0.106-1.039-0.475-1.223-1.051c-0.152-0.48-0.27-0.99-0.286-1.491
			c-0.04-1.23-0.015-2.463-0.012-3.695c0.001-0.14-0.014-0.308,0.056-0.409c0.076-0.108,0.236-0.191,0.371-0.216
			c0.169-0.03,0.311,0.065,0.331,0.259c0.015,0.141,0.017,0.281,0.017,0.422c0.001,1.197-0.009,2.394,0.007,3.59
			c0.005,0.349,0.048,0.705,0.132,1.043c0.135,0.544,0.555,0.87,1.054,0.878c0.539,0.009,0.963-0.297,1.109-0.872
			c0.081-0.318,0.096-0.66,0.099-0.992c0.012-1.18,0.004-2.358,0.006-3.538c0-0.157,0.003-0.317,0.021-0.474
			c0.026-0.231,0.169-0.335,0.398-0.326c0.24,0.01,0.345,0.143,0.345,0.374c0,0.774,0,1.548,0,2.323H118.765z"/>
		<path id="XMLID_1888_" fill="#FFFFFF" d="M105.201,75.29c0-0.881-0.002-1.762,0.002-2.642c0-0.158,0.007-0.317,0.031-0.474
			c0.033-0.213,0.188-0.281,0.386-0.274c0.206,0.007,0.333,0.103,0.342,0.319c0.006,0.141,0.009,0.281,0.009,0.422
			c0,1.533,0,3.066,0,4.599c0,0.141,0.005,0.282,0.003,0.423c-0.005,0.244,0.122,0.352,0.357,0.352c0.423,0,0.846,0,1.269,0.005
			c0.141,0.001,0.282,0.003,0.421,0.024c0.186,0.027,0.261,0.153,0.267,0.336c0.005,0.201-0.062,0.354-0.276,0.381
			c-0.174,0.023-0.352,0.023-0.527,0.024c-0.581,0.003-1.163,0.009-1.743-0.003c-0.444-0.01-0.527-0.086-0.533-0.532
			c-0.012-0.986-0.004-1.973-0.004-2.96H105.201z"/>
	</g>
</g>
</svg>
