<?xml version="1.0" encoding="utf-8"?>
<!-- Generator: Adobe Illustrator 19.0.0, SVG Export Plug-In . SVG Version: 6.00 Build 0)  -->
<svg version="1.1" id="Layer_1" xmlns="http://www.w3.org/2000/svg" xmlns:xlink="http://www.w3.org/1999/xlink" x="0px" y="0px"
	 viewBox="-458 259.4 42.5 59.6" style="enable-background:new -458 259.4 42.5 59.6;" xml:space="preserve">
<style type="text/css">
	.st0{fill:#A3A3A3;}
	.st1{font-family:'Altis';}
	.st2{font-size:12px;}
	.st3{fill:none;stroke:#A3A3A3;stroke-miterlimit:10;}
</style>
<text id="XMLID_12_" transform="matrix(1 0 0 1 -450.5078 316.9446)" class="st0 st1 st2">VIEW</text>
<g id="XMLID_13_">
	<circle id="XMLID_29_" class="st3" cx="-436.7" cy="281.1" r="19.9"/>
	<g id="XMLID_15_">
		<circle id="XMLID_28_" class="st0" cx="-432.3" cy="277.6" r="1.7"/>
		<path id="XMLID_17_" class="st0" d="M-446.1,272.7V285v1.3v5.2h19v-2.3v-1.4v-15.1H-446.1z M-430.7,284.3
			c-0.3-0.3-0.7-0.5-1.2-0.5l0,0l0,0c-0.3,0-0.8,0.1-1,0.3l-0.1,0.1l-2.1,1.9l-3.9-5.2c-0.3-0.4-0.8-0.6-1.3-0.6
			c-0.3,0-0.8,0.2-1,0.4l-3.8,3.4v-10.4h17.2v13.2L-430.7,284.3z"/>
	</g>
</g>
</svg>
